<?xml version="1.0" encoding="UTF-8"?>
<svg xmlns="http://www.w3.org/2000/svg" xmlns:xlink="http://www.w3.org/1999/xlink" width="767pt" height="432pt" viewBox="0 0 767 432">
<defs>
<g>
<g id="glyph-0-0">
<path d="M 6.953125 -13.4375 L 1.578125 -13.4375 L 1.578125 4.484375 L 6.953125 4.484375 Z M 6.25 -12.765625 L 6.25 3.8125 L 2.28125 3.8125 L 2.28125 -12.765625 Z M 4.140625 -5.765625 C 3.640625 -5.765625 2.953125 -5.625 2.953125 -5.265625 C 2.953125 -5.109375 3.078125 -4.984375 3.265625 -4.984375 C 3.3125 -4.984375 3.359375 -4.984375 3.421875 -5.015625 C 3.640625 -5.125 3.828125 -5.15625 4.09375 -5.15625 C 4.734375 -5.15625 4.875 -4.765625 4.875 -4.28125 C 4.875 -3.59375 4.625 -3.34375 3.71875 -3.28125 L 3.71875 -2.21875 C 3.71875 -2.015625 3.859375 -1.90625 4.03125 -1.90625 C 4.1875 -1.90625 4.34375 -2.015625 4.34375 -2.21875 L 4.34375 -2.796875 C 5.203125 -2.921875 5.5625 -3.40625 5.5625 -4.296875 C 5.5625 -5.0625 5.25 -5.765625 4.140625 -5.765625 Z M 4.03125 -1.53125 C 3.78125 -1.53125 3.578125 -1.34375 3.578125 -1.09375 C 3.578125 -0.8125 3.78125 -0.609375 4.03125 -0.609375 C 4.28125 -0.609375 4.484375 -0.8125 4.484375 -1.09375 C 4.484375 -1.34375 4.28125 -1.53125 4.03125 -1.53125 Z M 4.03125 -1.53125 "/>
</g>
<g id="glyph-0-1">
<path d="M 4.390625 -6.890625 C 3.5 -6.890625 2.796875 -6.4375 2.328125 -5.75 L 2.234375 -6.75 L 1.21875 -6.75 L 1.21875 0 L 2.390625 0 L 2.390625 -4.78125 C 2.84375 -5.5 3.359375 -5.96875 4.109375 -5.96875 C 4.765625 -5.96875 5.171875 -5.6875 5.171875 -4.671875 L 5.171875 0 L 6.34375 0 L 6.34375 -4.84375 C 6.34375 -6.109375 5.625 -6.890625 4.390625 -6.890625 Z M 4.390625 -6.890625 "/>
</g>
<g id="glyph-0-2">
<path d="M 0.796875 -4.984375 L 5.609375 -4.984375 L 5.609375 -5.96875 L 0.796875 -5.96875 Z M 0.796875 -2.515625 L 5.609375 -2.515625 L 5.609375 -3.5 L 0.796875 -3.5 Z M 0.796875 -2.515625 "/>
</g>
<g id="glyph-0-3">
<path d="M 2.921875 -8.6875 C 1.84375 -8.6875 1.015625 -8.25 0.3125 -7.390625 L 1.109375 -6.78125 C 1.65625 -7.4375 2.140625 -7.71875 2.859375 -7.71875 C 3.6875 -7.71875 4.265625 -7.1875 4.265625 -6.296875 C 4.265625 -4.90625 3.515625 -4.078125 0.5 -0.9375 L 0.5 0 L 5.546875 0 L 5.6875 -0.984375 L 1.84375 -0.984375 C 4.46875 -3.609375 5.484375 -4.75 5.484375 -6.34375 C 5.484375 -7.671875 4.484375 -8.6875 2.921875 -8.6875 Z M 2.921875 -8.6875 "/>
</g>
<g id="glyph-0-4">
<path d="M 3.578125 -8.6875 C 1.65625 -8.6875 0.703125 -7.109375 0.703125 -4.28125 C 0.703125 -1.4375 1.65625 0.15625 3.578125 0.15625 C 5.484375 0.15625 6.4375 -1.4375 6.4375 -4.28125 C 6.4375 -7.109375 5.484375 -8.6875 3.578125 -8.6875 Z M 3.578125 -7.75 C 4.625 -7.75 5.203125 -6.78125 5.203125 -4.28125 C 5.203125 -1.75 4.625 -0.78125 3.578125 -0.78125 C 2.5 -0.78125 1.9375 -1.75 1.9375 -4.28125 C 1.9375 -6.78125 2.5 -7.75 3.578125 -7.75 Z M 3.578125 -7.75 "/>
</g>
<g id="glyph-0-5">
<path d="M 1.515625 -6.328125 C 1.03125 -6.328125 0.640625 -5.9375 0.640625 -5.453125 C 0.640625 -4.953125 1.03125 -4.5625 1.515625 -4.5625 C 2.03125 -4.5625 2.421875 -4.953125 2.421875 -5.453125 C 2.421875 -5.9375 2.03125 -6.328125 1.515625 -6.328125 Z M 1.515625 -1.625 C 1.03125 -1.625 0.640625 -1.234375 0.640625 -0.75 C 0.640625 -0.4375 0.78125 -0.171875 1 0 L 0.484375 2.125 L 1.328125 2.125 L 2.1875 0.171875 C 2.359375 -0.203125 2.421875 -0.453125 2.421875 -0.75 C 2.421875 -1.234375 2.03125 -1.625 1.515625 -1.625 Z M 1.515625 -1.625 "/>
</g>
<g id="glyph-0-6">
</g>
<g id="glyph-0-7">
<path d="M 4.3125 -6.890625 C 3.546875 -6.890625 2.8125 -6.53125 2.3125 -5.828125 L 2.234375 -6.75 L 1.21875 -6.75 L 1.21875 2.71875 L 2.390625 2.578125 L 2.390625 -0.609375 C 2.828125 -0.09375 3.421875 0.15625 4.15625 0.15625 C 5.90625 0.15625 6.8125 -1.328125 6.8125 -3.375 C 6.8125 -5.5 6.109375 -6.890625 4.3125 -6.890625 Z M 3.875 -0.8125 C 3.265625 -0.8125 2.734375 -1.09375 2.390625 -1.625 L 2.390625 -4.90625 C 2.75 -5.453125 3.296875 -5.96875 4.015625 -5.96875 C 5.03125 -5.96875 5.546875 -5.125 5.546875 -3.375 C 5.546875 -1.609375 4.953125 -0.8125 3.875 -0.8125 Z M 3.875 -0.8125 "/>
</g>
<g id="glyph-0-8">
<path d="M 1.515625 -1.625 C 1.03125 -1.625 0.640625 -1.234375 0.640625 -0.75 C 0.640625 -0.25 1.03125 0.15625 1.515625 0.15625 C 2.03125 0.15625 2.421875 -0.25 2.421875 -0.75 C 2.421875 -1.234375 2.03125 -1.625 1.515625 -1.625 Z M 1.515625 -1.625 "/>
</g>
<g id="glyph-0-9">
<path d="M 5.546875 -8.5625 L 0.90625 -8.5625 L 0.90625 -4.25 L 1.828125 -4.25 C 2.234375 -4.4375 2.578125 -4.546875 3.046875 -4.546875 C 3.921875 -4.546875 4.609375 -4.078125 4.609375 -2.765625 C 4.609375 -1.515625 3.921875 -0.8125 2.859375 -0.8125 C 2.109375 -0.8125 1.5625 -1.078125 1.046875 -1.625 L 0.328125 -0.9375 C 1 -0.25 1.78125 0.15625 2.859375 0.15625 C 4.640625 0.15625 5.828125 -1.03125 5.828125 -2.734375 C 5.828125 -4.4375 4.84375 -5.453125 3.40625 -5.453125 C 2.9375 -5.453125 2.484375 -5.34375 2.03125 -5.125 L 2.03125 -7.640625 L 5.375 -7.640625 Z M 5.546875 -8.5625 "/>
</g>
<g id="glyph-0-10">
<path d="M 5.296875 -8.5625 L 0.3125 -8.5625 L 0.3125 -7.59375 L 4.109375 -7.59375 L 1.03125 -0.234375 L 2.09375 0.125 L 5.296875 -7.671875 Z M 5.296875 -8.5625 "/>
</g>
<g id="glyph-0-11">
<path d="M 6.421875 -3.046875 L 5.3125 -3.046875 L 5.3125 -5.34375 L 4.28125 -5.34375 L 4.1875 -3.046875 L 1.75 -3.046875 L 4.0625 -8.28125 L 3.078125 -8.6875 L 0.515625 -2.953125 L 0.515625 -2.109375 L 4.171875 -2.109375 L 4.171875 0 L 5.3125 0 L 5.3125 -2.109375 L 6.421875 -2.109375 Z M 6.421875 -3.046875 "/>
</g>
<g id="glyph-0-12">
<path d="M 4.140625 -8.5625 L 3.09375 -8.5625 L 0.453125 -6.921875 L 0.953125 -6.09375 L 2.953125 -7.3125 L 2.953125 0 L 4.140625 0 Z M 4.140625 -8.5625 "/>
</g>
<g id="glyph-0-13">
<path d="M 2.875 -8.6875 C 1.953125 -8.6875 1.171875 -8.359375 0.4375 -7.671875 L 1.046875 -6.96875 C 1.625 -7.515625 2.140625 -7.734375 2.8125 -7.734375 C 3.671875 -7.734375 4.234375 -7.25 4.234375 -6.4375 C 4.234375 -5.4375 3.53125 -4.921875 2.6875 -4.921875 L 2.25 -4.921875 L 2.109375 -4.015625 L 2.75 -4.015625 C 3.78125 -4.015625 4.453125 -3.65625 4.453125 -2.484375 C 4.453125 -1.46875 3.796875 -0.8125 2.71875 -0.8125 C 2.03125 -0.8125 1.453125 -1.0625 0.890625 -1.65625 L 0.1875 -1 C 0.84375 -0.21875 1.734375 0.15625 2.765625 0.15625 C 4.546875 0.15625 5.6875 -0.96875 5.6875 -2.46875 C 5.6875 -3.765625 4.828125 -4.4375 3.75 -4.546875 C 4.703125 -4.765625 5.40625 -5.421875 5.40625 -6.515625 C 5.40625 -7.671875 4.515625 -8.6875 2.875 -8.6875 Z M 2.875 -8.6875 "/>
</g>
<g id="glyph-1-0">
<path d="M 8.6875 -16.796875 L 1.96875 -16.796875 L 1.96875 5.59375 L 8.6875 5.59375 Z M 7.828125 -15.96875 L 7.828125 4.765625 L 2.84375 4.765625 L 2.84375 -15.96875 Z M 5.1875 -7.21875 C 4.5625 -7.21875 3.703125 -7.03125 3.703125 -6.59375 C 3.703125 -6.390625 3.84375 -6.21875 4.078125 -6.21875 C 4.140625 -6.21875 4.203125 -6.234375 4.28125 -6.265625 C 4.5625 -6.40625 4.78125 -6.453125 5.125 -6.453125 C 5.921875 -6.453125 6.09375 -5.96875 6.09375 -5.34375 C 6.09375 -4.5 5.796875 -4.171875 4.640625 -4.109375 L 4.640625 -2.765625 C 4.640625 -2.53125 4.828125 -2.390625 5.046875 -2.390625 C 5.234375 -2.390625 5.4375 -2.53125 5.4375 -2.765625 L 5.4375 -3.484375 C 6.515625 -3.640625 6.953125 -4.25 6.953125 -5.375 C 6.953125 -6.34375 6.5625 -7.21875 5.1875 -7.21875 Z M 5.046875 -1.921875 C 4.71875 -1.921875 4.484375 -1.6875 4.484375 -1.359375 C 4.484375 -1.03125 4.71875 -0.765625 5.046875 -0.765625 C 5.359375 -0.765625 5.59375 -1.03125 5.59375 -1.359375 C 5.59375 -1.6875 5.359375 -1.921875 5.046875 -1.921875 Z M 5.046875 -1.921875 "/>
</g>
<g id="glyph-1-1">
<path d="M 9.328125 -11.03125 L 7.90625 -11.03125 L 7.90625 -5.015625 C 7.90625 -3.65625 8.078125 -1.90625 8.109375 -1.640625 L 3.578125 -11.03125 L 1.59375 -11.03125 L 1.59375 0 L 3.03125 0 L 3.03125 -5.0625 C 3.03125 -7.109375 2.890625 -8.453125 2.8125 -9.359375 L 7.296875 0 L 9.328125 0 Z M 9.328125 -11.03125 "/>
</g>
<g id="glyph-1-2">
<path d="M 4.6875 -8.625 C 2.28125 -8.625 0.90625 -6.8125 0.90625 -4.203125 C 0.90625 -1.53125 2.265625 0.1875 4.671875 0.1875 C 7.0625 0.1875 8.4375 -1.609375 8.4375 -4.21875 C 8.4375 -6.890625 7.09375 -8.625 4.6875 -8.625 Z M 4.6875 -7.4375 C 6.078125 -7.4375 6.84375 -6.421875 6.84375 -4.21875 C 6.84375 -2.015625 6.078125 -0.984375 4.671875 -0.984375 C 3.265625 -0.984375 2.5 -2.015625 2.5 -4.203125 C 2.5 -6.421875 3.28125 -7.4375 4.6875 -7.4375 Z M 4.6875 -7.4375 "/>
</g>
<g id="glyph-1-3">
<path d="M 1.90625 -2.03125 C 1.28125 -2.03125 0.796875 -1.53125 0.796875 -0.921875 C 0.796875 -0.296875 1.28125 0.1875 1.90625 0.1875 C 2.546875 0.1875 3.03125 -0.296875 3.03125 -0.921875 C 3.03125 -1.53125 2.546875 -2.03125 1.90625 -2.03125 Z M 1.90625 -2.03125 "/>
</g>
<g id="glyph-1-4">
</g>
<g id="glyph-1-5">
<path d="M 4.390625 -10.8125 C 4.8125 -10.8125 5.3125 -10.734375 5.859375 -10.5 L 6.3125 -11.5625 C 5.640625 -11.859375 5.109375 -12 4.296875 -12 C 2.59375 -12 1.65625 -10.984375 1.65625 -9.578125 L 1.65625 -8.4375 L 0.15625 -8.4375 L 0.15625 -7.296875 L 1.65625 -7.296875 L 1.65625 0 L 3.140625 0 L 3.140625 -7.296875 L 5.03125 -7.296875 L 5.1875 -8.4375 L 3.140625 -8.4375 L 3.140625 -9.59375 C 3.140625 -10.421875 3.453125 -10.8125 4.390625 -10.8125 Z M 4.390625 -10.8125 "/>
</g>
<g id="glyph-1-6">
<path d="M 4.3125 -11.21875 C 2.28125 -11.21875 0.84375 -10.03125 0.84375 -8.34375 C 0.84375 -6.625 1.96875 -5.8125 4.109375 -5.15625 C 5.984375 -4.578125 6.5 -4.09375 6.5 -3.03125 C 6.5 -1.703125 5.421875 -1.0625 4.125 -1.0625 C 2.921875 -1.0625 2.0625 -1.484375 1.25 -2.171875 L 0.40625 -1.234375 C 1.3125 -0.34375 2.5625 0.1875 4.140625 0.1875 C 6.625 0.1875 8.078125 -1.15625 8.078125 -3.078125 C 8.078125 -5.1875 6.578125 -5.875 4.8125 -6.421875 C 2.828125 -7.03125 2.40625 -7.46875 2.40625 -8.40625 C 2.40625 -9.453125 3.28125 -9.96875 4.390625 -9.96875 C 5.296875 -9.96875 6.0625 -9.6875 6.890625 -9.015625 L 7.734375 -9.9375 C 6.796875 -10.765625 5.84375 -11.21875 4.3125 -11.21875 Z M 4.3125 -11.21875 "/>
</g>
<g id="glyph-1-7">
<path d="M 7.796875 -8.4375 L 6.3125 -8.4375 L 6.3125 -2.421875 C 5.8125 -1.5625 5.125 -0.953125 4.203125 -0.953125 C 3.296875 -0.953125 2.90625 -1.390625 2.90625 -2.546875 L 2.90625 -8.4375 L 1.4375 -8.4375 L 1.4375 -2.390625 C 1.4375 -0.734375 2.3125 0.1875 3.796875 0.1875 C 4.984375 0.1875 5.78125 -0.28125 6.421875 -1.3125 L 6.53125 0 L 7.796875 0 Z M 7.796875 -8.4375 "/>
</g>
<g id="glyph-1-8">
<path d="M 4.59375 -8.625 C 2.296875 -8.625 0.90625 -6.828125 0.90625 -4.140625 C 0.90625 -1.421875 2.3125 0.1875 4.59375 0.1875 C 5.5625 0.1875 6.421875 -0.125 7.171875 -0.734375 L 6.5 -1.703125 C 5.859375 -1.28125 5.359375 -1.0625 4.65625 -1.0625 C 3.328125 -1.0625 2.5 -1.96875 2.5 -4.171875 C 2.5 -6.375 3.328125 -7.40625 4.65625 -7.40625 C 5.359375 -7.40625 5.890625 -7.203125 6.46875 -6.78125 L 7.171875 -7.71875 C 6.390625 -8.375 5.578125 -8.625 4.59375 -8.625 Z M 4.59375 -8.625 "/>
</g>
<g id="glyph-1-9">
<path d="M 7.890625 -4.46875 C 7.890625 -7.046875 6.6875 -8.625 4.421875 -8.625 C 2.234375 -8.625 0.90625 -6.75 0.90625 -4.125 C 0.90625 -1.453125 2.28125 0.1875 4.640625 0.1875 C 5.8125 0.1875 6.75 -0.203125 7.578125 -0.859375 L 6.9375 -1.75 C 6.203125 -1.234375 5.578125 -1.015625 4.75 -1.015625 C 3.53125 -1.015625 2.625 -1.765625 2.484375 -3.71875 L 7.859375 -3.71875 C 7.875 -3.90625 7.890625 -4.171875 7.890625 -4.46875 Z M 6.4375 -4.796875 L 2.484375 -4.796875 C 2.59375 -6.671875 3.328125 -7.453125 4.453125 -7.453125 C 5.78125 -7.453125 6.4375 -6.546875 6.4375 -4.890625 Z M 6.4375 -4.796875 "/>
</g>
<g id="glyph-1-10">
<path d="M 3.8125 -8.625 C 2.0625 -8.625 0.765625 -7.640625 0.765625 -6.296875 C 0.765625 -5.125 1.484375 -4.34375 3.3125 -3.859375 C 4.9375 -3.421875 5.359375 -3.109375 5.359375 -2.265625 C 5.359375 -1.46875 4.65625 -0.984375 3.546875 -0.984375 C 2.640625 -0.984375 1.859375 -1.296875 1.1875 -1.8125 L 0.40625 -0.90625 C 1.140625 -0.265625 2.15625 0.1875 3.578125 0.1875 C 5.296875 0.1875 6.90625 -0.609375 6.90625 -2.375 C 6.90625 -3.84375 5.890625 -4.546875 4.109375 -4.984375 C 2.75 -5.34375 2.296875 -5.65625 2.296875 -6.359375 C 2.296875 -7.03125 2.890625 -7.453125 3.859375 -7.453125 C 4.640625 -7.453125 5.296875 -7.21875 6.046875 -6.734375 L 6.671875 -7.65625 C 5.875 -8.265625 4.984375 -8.625 3.8125 -8.625 Z M 3.8125 -8.625 "/>
</g>
<g id="glyph-1-11">
<path d="M 5.390625 -8.625 C 4.4375 -8.625 3.515625 -8.15625 2.890625 -7.296875 L 2.78125 -8.4375 L 1.515625 -8.4375 L 1.515625 3.40625 L 2.984375 3.234375 L 2.984375 -0.765625 C 3.53125 -0.109375 4.28125 0.1875 5.203125 0.1875 C 7.375 0.1875 8.515625 -1.65625 8.515625 -4.21875 C 8.515625 -6.875 7.625 -8.625 5.390625 -8.625 Z M 4.84375 -1.015625 C 4.078125 -1.015625 3.421875 -1.375 2.984375 -2.03125 L 2.984375 -6.140625 C 3.4375 -6.8125 4.125 -7.453125 5.03125 -7.453125 C 6.28125 -7.453125 6.921875 -6.421875 6.921875 -4.21875 C 6.921875 -2.015625 6.1875 -1.015625 4.84375 -1.015625 Z M 4.84375 -1.015625 "/>
</g>
<g id="glyph-1-12">
<path d="M 7.203125 -1.96875 L 7.203125 -5.828125 C 7.203125 -7.578125 6.265625 -8.625 4.234375 -8.625 C 3.296875 -8.625 2.375 -8.4375 1.328125 -8.046875 L 1.703125 -6.96875 C 2.5625 -7.265625 3.34375 -7.421875 3.96875 -7.421875 C 5.140625 -7.421875 5.734375 -6.96875 5.734375 -5.765625 L 5.734375 -5.140625 L 4.4375 -5.140625 C 2.078125 -5.140625 0.71875 -4.15625 0.71875 -2.359375 C 0.71875 -0.84375 1.734375 0.1875 3.40625 0.1875 C 4.4375 0.1875 5.328125 -0.1875 5.921875 -1.078125 C 6.171875 -0.234375 6.71875 0.09375 7.5625 0.1875 L 7.90625 -0.828125 C 7.46875 -0.984375 7.203125 -1.234375 7.203125 -1.96875 Z M 3.75 -0.90625 C 2.78125 -0.90625 2.28125 -1.4375 2.28125 -2.4375 C 2.28125 -3.578125 3.078125 -4.15625 4.625 -4.15625 L 5.734375 -4.15625 L 5.734375 -2.21875 C 5.25 -1.34375 4.609375 -0.90625 3.75 -0.90625 Z M 3.75 -0.90625 "/>
</g>
<g id="glyph-1-13">
<path d="M 5.1875 -8.625 C 4.15625 -8.625 3.375 -7.984375 2.921875 -6.71875 L 2.78125 -8.4375 L 1.515625 -8.4375 L 1.515625 0 L 2.984375 0 L 2.984375 -4.8125 C 3.34375 -6.4375 3.953125 -7.1875 5.015625 -7.1875 C 5.3125 -7.1875 5.484375 -7.15625 5.75 -7.09375 L 6.015625 -8.53125 C 5.765625 -8.59375 5.453125 -8.625 5.1875 -8.625 Z M 5.1875 -8.625 "/>
</g>
<g id="glyph-1-14">
<path d="M 9.984375 -8.625 C 8.84375 -8.625 8.078125 -8.015625 7.46875 -7.109375 C 7.15625 -8.0625 6.390625 -8.625 5.34375 -8.625 C 4.234375 -8.625 3.46875 -8.046875 2.90625 -7.203125 L 2.78125 -8.4375 L 1.515625 -8.4375 L 1.515625 0 L 2.984375 0 L 2.984375 -5.984375 C 3.546875 -6.875 4.0625 -7.46875 4.96875 -7.46875 C 5.609375 -7.46875 6.15625 -7.109375 6.15625 -5.84375 L 6.15625 0 L 7.625 0 L 7.625 -5.984375 C 8.203125 -6.875 8.703125 -7.46875 9.609375 -7.46875 C 10.25 -7.46875 10.796875 -7.109375 10.796875 -5.84375 L 10.796875 0 L 12.265625 0 L 12.265625 -6.046875 C 12.265625 -7.625 11.359375 -8.625 9.984375 -8.625 Z M 9.984375 -8.625 "/>
</g>
<g id="glyph-2-0">
<path d="M -16.796875 -8.6875 L -16.796875 -1.96875 L 5.59375 -1.96875 L 5.59375 -8.6875 Z M -15.96875 -7.828125 L 4.765625 -7.828125 L 4.765625 -2.84375 L -15.96875 -2.84375 Z M -7.21875 -5.1875 C -7.21875 -4.5625 -7.03125 -3.703125 -6.59375 -3.703125 C -6.390625 -3.703125 -6.21875 -3.84375 -6.21875 -4.078125 C -6.21875 -4.140625 -6.234375 -4.203125 -6.265625 -4.28125 C -6.40625 -4.5625 -6.453125 -4.78125 -6.453125 -5.125 C -6.453125 -5.921875 -5.96875 -6.09375 -5.34375 -6.09375 C -4.5 -6.09375 -4.171875 -5.796875 -4.109375 -4.640625 L -2.765625 -4.640625 C -2.53125 -4.640625 -2.390625 -4.828125 -2.390625 -5.046875 C -2.390625 -5.234375 -2.53125 -5.4375 -2.765625 -5.4375 L -3.484375 -5.4375 C -3.640625 -6.515625 -4.25 -6.953125 -5.375 -6.953125 C -6.34375 -6.953125 -7.21875 -6.5625 -7.21875 -5.1875 Z M -1.921875 -5.046875 C -1.921875 -4.71875 -1.6875 -4.484375 -1.359375 -4.484375 C -1.03125 -4.484375 -0.765625 -4.71875 -0.765625 -5.046875 C -0.765625 -5.359375 -1.03125 -5.59375 -1.359375 -5.59375 C -1.6875 -5.59375 -1.921875 -5.359375 -1.921875 -5.046875 Z M -1.921875 -5.046875 "/>
</g>
<g id="glyph-2-1">
<path d="M -11.03125 -4.5 L -11.03125 -1.59375 L 0 -1.59375 L 0 -3.125 L -4.046875 -3.125 L -4.046875 -4.515625 C -4.046875 -6.9375 -5.09375 -8.78125 -7.609375 -8.78125 C -9.9375 -8.78125 -11.03125 -7.15625 -11.03125 -4.5 Z M -5.25 -4.453125 L -5.25 -3.125 L -9.84375 -3.125 L -9.84375 -4.484375 C -9.84375 -6.109375 -9.25 -7.171875 -7.59375 -7.171875 C -5.734375 -7.171875 -5.25 -6.078125 -5.25 -4.453125 Z M -5.25 -4.453125 "/>
</g>
<g id="glyph-2-2">
<path d="M -8.625 -5.1875 C -8.625 -4.15625 -7.984375 -3.375 -6.71875 -2.921875 L -8.4375 -2.78125 L -8.4375 -1.515625 L 0 -1.515625 L 0 -2.984375 L -4.8125 -2.984375 C -6.4375 -3.34375 -7.1875 -3.953125 -7.1875 -5.015625 C -7.1875 -5.3125 -7.15625 -5.484375 -7.09375 -5.75 L -8.53125 -6.015625 C -8.59375 -5.765625 -8.625 -5.453125 -8.625 -5.1875 Z M -8.625 -5.1875 "/>
</g>
<g id="glyph-2-3">
<path d="M -8.625 -4.6875 C -8.625 -2.28125 -6.8125 -0.90625 -4.203125 -0.90625 C -1.53125 -0.90625 0.1875 -2.265625 0.1875 -4.671875 C 0.1875 -7.0625 -1.609375 -8.4375 -4.21875 -8.4375 C -6.890625 -8.4375 -8.625 -7.09375 -8.625 -4.6875 Z M -7.4375 -4.6875 C -7.4375 -6.078125 -6.421875 -6.84375 -4.21875 -6.84375 C -2.015625 -6.84375 -0.984375 -6.078125 -0.984375 -4.671875 C -0.984375 -3.265625 -2.015625 -2.5 -4.203125 -2.5 C -6.421875 -2.5 -7.4375 -3.28125 -7.4375 -4.6875 Z M -7.4375 -4.6875 "/>
</g>
<g id="glyph-2-4">
<path d="M -8.625 -5.375 C -8.625 -4.359375 -8.15625 -3.5625 -7.375 -2.984375 L -12 -2.984375 L -11.828125 -1.515625 L 0 -1.515625 L 0 -2.8125 L -0.921875 -2.953125 C -0.21875 -3.53125 0.1875 -4.265625 0.1875 -5.203125 C 0.1875 -7.25 -1.578125 -8.515625 -4.21875 -8.515625 C -7.046875 -8.515625 -8.625 -7.28125 -8.625 -5.375 Z M -0.96875 -4.84375 C -0.96875 -4.09375 -1.4375 -3.421875 -2.109375 -2.984375 L -6.140625 -2.984375 C -6.8125 -3.421875 -7.453125 -4.03125 -7.453125 -4.953125 C -7.453125 -6.140625 -6.625 -6.921875 -4.21875 -6.921875 C -1.921875 -6.921875 -0.96875 -6.078125 -0.96875 -4.84375 Z M -0.96875 -4.84375 "/>
</g>
<g id="glyph-2-5">
<path d="M -1.96875 -7.203125 L -5.828125 -7.203125 C -7.578125 -7.203125 -8.625 -6.265625 -8.625 -4.234375 C -8.625 -3.296875 -8.4375 -2.375 -8.046875 -1.328125 L -6.96875 -1.703125 C -7.265625 -2.5625 -7.421875 -3.34375 -7.421875 -3.96875 C -7.421875 -5.140625 -6.96875 -5.734375 -5.765625 -5.734375 L -5.140625 -5.734375 L -5.140625 -4.4375 C -5.140625 -2.078125 -4.15625 -0.71875 -2.359375 -0.71875 C -0.84375 -0.71875 0.1875 -1.734375 0.1875 -3.40625 C 0.1875 -4.4375 -0.1875 -5.328125 -1.078125 -5.921875 C -0.234375 -6.171875 0.09375 -6.71875 0.1875 -7.5625 L -0.828125 -7.90625 C -0.984375 -7.46875 -1.234375 -7.203125 -1.96875 -7.203125 Z M -0.90625 -3.75 C -0.90625 -2.78125 -1.4375 -2.28125 -2.4375 -2.28125 C -3.578125 -2.28125 -4.15625 -3.078125 -4.15625 -4.625 L -4.15625 -5.734375 L -2.21875 -5.734375 C -1.34375 -5.25 -0.90625 -4.609375 -0.90625 -3.75 Z M -0.90625 -3.75 "/>
</g>
<g id="glyph-2-6">
<path d="M -12.484375 -2.234375 C -12.484375 -1.625 -12.046875 -1.21875 -11.46875 -1.21875 C -10.90625 -1.21875 -10.484375 -1.625 -10.484375 -2.234375 C -10.484375 -2.859375 -10.90625 -3.28125 -11.46875 -3.28125 C -12.046875 -3.28125 -12.484375 -2.859375 -12.484375 -2.234375 Z M -8.4375 -2.984375 L -8.4375 -1.515625 L 0 -1.515625 L 0 -2.984375 Z M -8.4375 -2.984375 "/>
</g>
<g id="glyph-2-7">
<path d="M 0.1875 -3.203125 C 0.1875 -3.625 0.078125 -4.046875 -0.09375 -4.375 L -1.125 -3.984375 C -1.0625 -3.828125 -1.03125 -3.640625 -1.03125 -3.4375 C -1.03125 -3.0625 -1.25 -2.90625 -1.703125 -2.90625 L -12 -2.90625 L -11.828125 -1.4375 L -1.65625 -1.4375 C -0.46875 -1.4375 0.1875 -2.125 0.1875 -3.203125 Z M 0.1875 -3.203125 "/>
</g>
<g id="glyph-2-8">
<path d="M -1.390625 -5.21875 C -1.140625 -4.796875 -1.03125 -4.46875 -1.03125 -4.09375 C -1.03125 -3.359375 -1.421875 -3.09375 -2.265625 -3.09375 L -7.296875 -3.09375 L -7.296875 -4.921875 L -8.4375 -5.09375 L -8.4375 -3.09375 L -10.515625 -3.09375 L -10.34375 -1.609375 L -8.4375 -1.609375 L -8.4375 -0.140625 L -7.296875 -0.140625 L -7.296875 -1.609375 L -2.203125 -1.609375 C -0.640625 -1.609375 0.1875 -2.46875 0.1875 -3.890625 C 0.1875 -4.609375 0 -5.21875 -0.390625 -5.78125 Z M -1.390625 -5.21875 "/>
</g>
<g id="glyph-2-9">
<path d="M -8.4375 -7.71875 L -8.4375 -6.1875 L -1.078125 -3.984375 L -8.4375 -1.734375 L -8.4375 -0.15625 L 0 -2.984375 L 0 -3.484375 C 1.3125 -3.015625 1.96875 -2.53125 2.25 -0.8125 L 3.40625 -0.96875 C 3.15625 -3.3125 1.84375 -4.296875 0.046875 -4.890625 Z M -8.4375 -7.71875 "/>
</g>
<g id="glyph-2-10">
</g>
<g id="glyph-2-11">
<path d="M -11.03125 -10.546875 L -11.03125 -8.484375 L -3.015625 -6.265625 L -11.03125 -3.953125 L -11.03125 -1.90625 L 0 -0.984375 L 0 -2.4375 L -4.859375 -2.796875 C -6.484375 -2.921875 -8.1875 -3.015625 -9.484375 -3.015625 L -1.25 -5.515625 L -1.25 -6.9375 L -9.46875 -9.328125 C -8.5625 -9.34375 -6.703125 -9.453125 -4.96875 -9.59375 L 0 -9.984375 L 0 -11.453125 Z M -11.03125 -10.546875 "/>
</g>
<g id="glyph-2-12">
<path d="M -8.625 -3.8125 C -8.625 -2.0625 -7.640625 -0.765625 -6.296875 -0.765625 C -5.125 -0.765625 -4.34375 -1.484375 -3.859375 -3.3125 C -3.421875 -4.9375 -3.109375 -5.359375 -2.265625 -5.359375 C -1.46875 -5.359375 -0.984375 -4.65625 -0.984375 -3.546875 C -0.984375 -2.640625 -1.296875 -1.859375 -1.8125 -1.1875 L -0.90625 -0.40625 C -0.265625 -1.140625 0.1875 -2.15625 0.1875 -3.578125 C 0.1875 -5.296875 -0.609375 -6.90625 -2.375 -6.90625 C -3.84375 -6.90625 -4.546875 -5.890625 -4.984375 -4.109375 C -5.34375 -2.75 -5.65625 -2.296875 -6.359375 -2.296875 C -7.03125 -2.296875 -7.453125 -2.890625 -7.453125 -3.859375 C -7.453125 -4.640625 -7.21875 -5.296875 -6.734375 -6.046875 L -7.65625 -6.671875 C -8.265625 -5.875 -8.625 -4.984375 -8.625 -3.8125 Z M -8.625 -3.8125 "/>
</g>
</g>
<clipPath id="clip-0">
<path clip-rule="nonzero" d="M 59.128906 326 L 246.738281 326 L 246.738281 328 L 59.128906 328 Z M 59.128906 326 "/>
</clipPath>
<clipPath id="clip-1">
<path clip-rule="nonzero" d="M 59.128906 243 L 246.738281 243 L 246.738281 244 L 59.128906 244 Z M 59.128906 243 "/>
</clipPath>
<clipPath id="clip-2">
<path clip-rule="nonzero" d="M 59.128906 159 L 246.738281 159 L 246.738281 161 L 59.128906 161 Z M 59.128906 159 "/>
</clipPath>
<clipPath id="clip-3">
<path clip-rule="nonzero" d="M 59.128906 76 L 246.738281 76 L 246.738281 77 L 59.128906 77 Z M 59.128906 76 "/>
</clipPath>
<clipPath id="clip-4">
<path clip-rule="nonzero" d="M 89 32.722656 L 91 32.722656 L 91 384.871094 L 89 384.871094 Z M 89 32.722656 "/>
</clipPath>
<clipPath id="clip-5">
<path clip-rule="nonzero" d="M 131 32.722656 L 133 32.722656 L 133 384.871094 L 131 384.871094 Z M 131 32.722656 "/>
</clipPath>
<clipPath id="clip-6">
<path clip-rule="nonzero" d="M 173 32.722656 L 175 32.722656 L 175 384.871094 L 173 384.871094 Z M 173 32.722656 "/>
</clipPath>
<clipPath id="clip-7">
<path clip-rule="nonzero" d="M 215 32.722656 L 216 32.722656 L 216 384.871094 L 215 384.871094 Z M 215 32.722656 "/>
</clipPath>
<clipPath id="clip-8">
<path clip-rule="nonzero" d="M 59.128906 368 L 246.738281 368 L 246.738281 370 L 59.128906 370 Z M 59.128906 368 "/>
</clipPath>
<clipPath id="clip-9">
<path clip-rule="nonzero" d="M 59.128906 284 L 246.738281 284 L 246.738281 287 L 59.128906 287 Z M 59.128906 284 "/>
</clipPath>
<clipPath id="clip-10">
<path clip-rule="nonzero" d="M 59.128906 201 L 246.738281 201 L 246.738281 203 L 59.128906 203 Z M 59.128906 201 "/>
</clipPath>
<clipPath id="clip-11">
<path clip-rule="nonzero" d="M 59.128906 117 L 246.738281 117 L 246.738281 120 L 59.128906 120 Z M 59.128906 117 "/>
</clipPath>
<clipPath id="clip-12">
<path clip-rule="nonzero" d="M 59.128906 33 L 246.738281 33 L 246.738281 36 L 59.128906 36 Z M 59.128906 33 "/>
</clipPath>
<clipPath id="clip-13">
<path clip-rule="nonzero" d="M 68 32.722656 L 71 32.722656 L 71 384.871094 L 68 384.871094 Z M 68 32.722656 "/>
</clipPath>
<clipPath id="clip-14">
<path clip-rule="nonzero" d="M 110 32.722656 L 113 32.722656 L 113 384.871094 L 110 384.871094 Z M 110 32.722656 "/>
</clipPath>
<clipPath id="clip-15">
<path clip-rule="nonzero" d="M 152 32.722656 L 154 32.722656 L 154 384.871094 L 152 384.871094 Z M 152 32.722656 "/>
</clipPath>
<clipPath id="clip-16">
<path clip-rule="nonzero" d="M 193 32.722656 L 196 32.722656 L 196 384.871094 L 193 384.871094 Z M 193 32.722656 "/>
</clipPath>
<clipPath id="clip-17">
<path clip-rule="nonzero" d="M 235 32.722656 L 238 32.722656 L 238 384.871094 L 235 384.871094 Z M 235 32.722656 "/>
</clipPath>
<clipPath id="clip-18">
<path clip-rule="nonzero" d="M 254.707031 326 L 442.316406 326 L 442.316406 328 L 254.707031 328 Z M 254.707031 326 "/>
</clipPath>
<clipPath id="clip-19">
<path clip-rule="nonzero" d="M 254.707031 243 L 442.316406 243 L 442.316406 244 L 254.707031 244 Z M 254.707031 243 "/>
</clipPath>
<clipPath id="clip-20">
<path clip-rule="nonzero" d="M 254.707031 159 L 442.316406 159 L 442.316406 161 L 254.707031 161 Z M 254.707031 159 "/>
</clipPath>
<clipPath id="clip-21">
<path clip-rule="nonzero" d="M 254.707031 76 L 442.316406 76 L 442.316406 77 L 254.707031 77 Z M 254.707031 76 "/>
</clipPath>
<clipPath id="clip-22">
<path clip-rule="nonzero" d="M 285 32.722656 L 287 32.722656 L 287 384.871094 L 285 384.871094 Z M 285 32.722656 "/>
</clipPath>
<clipPath id="clip-23">
<path clip-rule="nonzero" d="M 327 32.722656 L 329 32.722656 L 329 384.871094 L 327 384.871094 Z M 327 32.722656 "/>
</clipPath>
<clipPath id="clip-24">
<path clip-rule="nonzero" d="M 368 32.722656 L 370 32.722656 L 370 384.871094 L 368 384.871094 Z M 368 32.722656 "/>
</clipPath>
<clipPath id="clip-25">
<path clip-rule="nonzero" d="M 410 32.722656 L 412 32.722656 L 412 384.871094 L 410 384.871094 Z M 410 32.722656 "/>
</clipPath>
<clipPath id="clip-26">
<path clip-rule="nonzero" d="M 254.707031 368 L 442.316406 368 L 442.316406 370 L 254.707031 370 Z M 254.707031 368 "/>
</clipPath>
<clipPath id="clip-27">
<path clip-rule="nonzero" d="M 254.707031 284 L 442.316406 284 L 442.316406 287 L 254.707031 287 Z M 254.707031 284 "/>
</clipPath>
<clipPath id="clip-28">
<path clip-rule="nonzero" d="M 254.707031 201 L 442.316406 201 L 442.316406 203 L 254.707031 203 Z M 254.707031 201 "/>
</clipPath>
<clipPath id="clip-29">
<path clip-rule="nonzero" d="M 254.707031 117 L 442.316406 117 L 442.316406 120 L 254.707031 120 Z M 254.707031 117 "/>
</clipPath>
<clipPath id="clip-30">
<path clip-rule="nonzero" d="M 254.707031 33 L 442.316406 33 L 442.316406 36 L 254.707031 36 Z M 254.707031 33 "/>
</clipPath>
<clipPath id="clip-31">
<path clip-rule="nonzero" d="M 264 32.722656 L 266 32.722656 L 266 384.871094 L 264 384.871094 Z M 264 32.722656 "/>
</clipPath>
<clipPath id="clip-32">
<path clip-rule="nonzero" d="M 306 32.722656 L 308 32.722656 L 308 384.871094 L 306 384.871094 Z M 306 32.722656 "/>
</clipPath>
<clipPath id="clip-33">
<path clip-rule="nonzero" d="M 347 32.722656 L 350 32.722656 L 350 384.871094 L 347 384.871094 Z M 347 32.722656 "/>
</clipPath>
<clipPath id="clip-34">
<path clip-rule="nonzero" d="M 389 32.722656 L 391 32.722656 L 391 384.871094 L 389 384.871094 Z M 389 32.722656 "/>
</clipPath>
<clipPath id="clip-35">
<path clip-rule="nonzero" d="M 431 32.722656 L 433 32.722656 L 433 384.871094 L 431 384.871094 Z M 431 32.722656 "/>
</clipPath>
<clipPath id="clip-36">
<path clip-rule="nonzero" d="M 450.289062 326 L 637.898438 326 L 637.898438 328 L 450.289062 328 Z M 450.289062 326 "/>
</clipPath>
<clipPath id="clip-37">
<path clip-rule="nonzero" d="M 450.289062 243 L 637.898438 243 L 637.898438 244 L 450.289062 244 Z M 450.289062 243 "/>
</clipPath>
<clipPath id="clip-38">
<path clip-rule="nonzero" d="M 450.289062 159 L 637.898438 159 L 637.898438 161 L 450.289062 161 Z M 450.289062 159 "/>
</clipPath>
<clipPath id="clip-39">
<path clip-rule="nonzero" d="M 450.289062 76 L 637.898438 76 L 637.898438 77 L 450.289062 77 Z M 450.289062 76 "/>
</clipPath>
<clipPath id="clip-40">
<path clip-rule="nonzero" d="M 481 32.722656 L 482 32.722656 L 482 384.871094 L 481 384.871094 Z M 481 32.722656 "/>
</clipPath>
<clipPath id="clip-41">
<path clip-rule="nonzero" d="M 522 32.722656 L 524 32.722656 L 524 384.871094 L 522 384.871094 Z M 522 32.722656 "/>
</clipPath>
<clipPath id="clip-42">
<path clip-rule="nonzero" d="M 564 32.722656 L 566 32.722656 L 566 384.871094 L 564 384.871094 Z M 564 32.722656 "/>
</clipPath>
<clipPath id="clip-43">
<path clip-rule="nonzero" d="M 606 32.722656 L 608 32.722656 L 608 384.871094 L 606 384.871094 Z M 606 32.722656 "/>
</clipPath>
<clipPath id="clip-44">
<path clip-rule="nonzero" d="M 450.289062 368 L 637.898438 368 L 637.898438 370 L 450.289062 370 Z M 450.289062 368 "/>
</clipPath>
<clipPath id="clip-45">
<path clip-rule="nonzero" d="M 450.289062 284 L 637.898438 284 L 637.898438 287 L 450.289062 287 Z M 450.289062 284 "/>
</clipPath>
<clipPath id="clip-46">
<path clip-rule="nonzero" d="M 450.289062 201 L 637.898438 201 L 637.898438 203 L 450.289062 203 Z M 450.289062 201 "/>
</clipPath>
<clipPath id="clip-47">
<path clip-rule="nonzero" d="M 450.289062 117 L 637.898438 117 L 637.898438 120 L 450.289062 120 Z M 450.289062 117 "/>
</clipPath>
<clipPath id="clip-48">
<path clip-rule="nonzero" d="M 450.289062 33 L 637.898438 33 L 637.898438 36 L 450.289062 36 Z M 450.289062 33 "/>
</clipPath>
<clipPath id="clip-49">
<path clip-rule="nonzero" d="M 459 32.722656 L 462 32.722656 L 462 384.871094 L 459 384.871094 Z M 459 32.722656 "/>
</clipPath>
<clipPath id="clip-50">
<path clip-rule="nonzero" d="M 501 32.722656 L 504 32.722656 L 504 384.871094 L 501 384.871094 Z M 501 32.722656 "/>
</clipPath>
<clipPath id="clip-51">
<path clip-rule="nonzero" d="M 543 32.722656 L 545 32.722656 L 545 384.871094 L 543 384.871094 Z M 543 32.722656 "/>
</clipPath>
<clipPath id="clip-52">
<path clip-rule="nonzero" d="M 585 32.722656 L 587 32.722656 L 587 384.871094 L 585 384.871094 Z M 585 32.722656 "/>
</clipPath>
<clipPath id="clip-53">
<path clip-rule="nonzero" d="M 626 32.722656 L 629 32.722656 L 629 384.871094 L 626 384.871094 Z M 626 32.722656 "/>
</clipPath>
</defs>
<rect x="-76.7" y="-43.2" width="920.4" height="518.4" fill="rgb(100%, 100%, 100%)" fill-opacity="1"/>
<rect x="-76.7" y="-43.2" width="920.4" height="518.4" fill="rgb(100%, 100%, 100%)" fill-opacity="1"/>
<g clip-path="url(#clip-0)">
<path fill="none" stroke-width="0.775984" stroke-linecap="butt" stroke-linejoin="round" stroke="rgb(92.156863%, 92.156863%, 92.156863%)" stroke-opacity="1" stroke-miterlimit="10" d="M 59.128906 327.101562 L 246.738281 327.101562 "/>
</g>
<g clip-path="url(#clip-1)">
<path fill="none" stroke-width="0.775984" stroke-linecap="butt" stroke-linejoin="round" stroke="rgb(92.156863%, 92.156863%, 92.156863%)" stroke-opacity="1" stroke-miterlimit="10" d="M 59.128906 243.578125 L 246.738281 243.578125 "/>
</g>
<g clip-path="url(#clip-2)">
<path fill="none" stroke-width="0.775984" stroke-linecap="butt" stroke-linejoin="round" stroke="rgb(92.156863%, 92.156863%, 92.156863%)" stroke-opacity="1" stroke-miterlimit="10" d="M 59.128906 160.050781 L 246.738281 160.050781 "/>
</g>
<g clip-path="url(#clip-3)">
<path fill="none" stroke-width="0.775984" stroke-linecap="butt" stroke-linejoin="round" stroke="rgb(92.156863%, 92.156863%, 92.156863%)" stroke-opacity="1" stroke-miterlimit="10" d="M 59.128906 76.523438 L 246.738281 76.523438 "/>
</g>
<g clip-path="url(#clip-4)">
<path fill="none" stroke-width="0.775984" stroke-linecap="butt" stroke-linejoin="round" stroke="rgb(92.156863%, 92.156863%, 92.156863%)" stroke-opacity="1" stroke-miterlimit="10" d="M 90.382812 384.871094 L 90.382812 32.722656 "/>
</g>
<g clip-path="url(#clip-5)">
<path fill="none" stroke-width="0.775984" stroke-linecap="butt" stroke-linejoin="round" stroke="rgb(92.156863%, 92.156863%, 92.156863%)" stroke-opacity="1" stroke-miterlimit="10" d="M 132.082031 384.871094 L 132.082031 32.722656 "/>
</g>
<g clip-path="url(#clip-6)">
<path fill="none" stroke-width="0.775984" stroke-linecap="butt" stroke-linejoin="round" stroke="rgb(92.156863%, 92.156863%, 92.156863%)" stroke-opacity="1" stroke-miterlimit="10" d="M 173.785156 384.871094 L 173.785156 32.722656 "/>
</g>
<g clip-path="url(#clip-7)">
<path fill="none" stroke-width="0.775984" stroke-linecap="butt" stroke-linejoin="round" stroke="rgb(92.156863%, 92.156863%, 92.156863%)" stroke-opacity="1" stroke-miterlimit="10" d="M 215.484375 384.871094 L 215.484375 32.722656 "/>
</g>
<g clip-path="url(#clip-8)">
<path fill="none" stroke-width="1.551969" stroke-linecap="butt" stroke-linejoin="round" stroke="rgb(92.156863%, 92.156863%, 92.156863%)" stroke-opacity="1" stroke-miterlimit="10" d="M 59.128906 368.863281 L 246.738281 368.863281 "/>
</g>
<g clip-path="url(#clip-9)">
<path fill="none" stroke-width="1.551969" stroke-linecap="butt" stroke-linejoin="round" stroke="rgb(92.156863%, 92.156863%, 92.156863%)" stroke-opacity="1" stroke-miterlimit="10" d="M 59.128906 285.339844 L 246.738281 285.339844 "/>
</g>
<g clip-path="url(#clip-10)">
<path fill="none" stroke-width="1.551969" stroke-linecap="butt" stroke-linejoin="round" stroke="rgb(92.156863%, 92.156863%, 92.156863%)" stroke-opacity="1" stroke-miterlimit="10" d="M 59.128906 201.8125 L 246.738281 201.8125 "/>
</g>
<g clip-path="url(#clip-11)">
<path fill="none" stroke-width="1.551969" stroke-linecap="butt" stroke-linejoin="round" stroke="rgb(92.156863%, 92.156863%, 92.156863%)" stroke-opacity="1" stroke-miterlimit="10" d="M 59.128906 118.289062 L 246.738281 118.289062 "/>
</g>
<g clip-path="url(#clip-12)">
<path fill="none" stroke-width="1.551969" stroke-linecap="butt" stroke-linejoin="round" stroke="rgb(92.156863%, 92.156863%, 92.156863%)" stroke-opacity="1" stroke-miterlimit="10" d="M 59.128906 34.761719 L 246.738281 34.761719 "/>
</g>
<g clip-path="url(#clip-13)">
<path fill="none" stroke-width="1.551969" stroke-linecap="butt" stroke-linejoin="round" stroke="rgb(92.156863%, 92.156863%, 92.156863%)" stroke-opacity="1" stroke-miterlimit="10" d="M 69.53125 384.871094 L 69.53125 32.722656 "/>
</g>
<g clip-path="url(#clip-14)">
<path fill="none" stroke-width="1.551969" stroke-linecap="butt" stroke-linejoin="round" stroke="rgb(92.156863%, 92.156863%, 92.156863%)" stroke-opacity="1" stroke-miterlimit="10" d="M 111.234375 384.871094 L 111.234375 32.722656 "/>
</g>
<g clip-path="url(#clip-15)">
<path fill="none" stroke-width="1.551969" stroke-linecap="butt" stroke-linejoin="round" stroke="rgb(92.156863%, 92.156863%, 92.156863%)" stroke-opacity="1" stroke-miterlimit="10" d="M 152.933594 384.871094 L 152.933594 32.722656 "/>
</g>
<g clip-path="url(#clip-16)">
<path fill="none" stroke-width="1.551969" stroke-linecap="butt" stroke-linejoin="round" stroke="rgb(92.156863%, 92.156863%, 92.156863%)" stroke-opacity="1" stroke-miterlimit="10" d="M 194.632812 384.871094 L 194.632812 32.722656 "/>
</g>
<g clip-path="url(#clip-17)">
<path fill="none" stroke-width="1.551969" stroke-linecap="butt" stroke-linejoin="round" stroke="rgb(92.156863%, 92.156863%, 92.156863%)" stroke-opacity="1" stroke-miterlimit="10" d="M 236.335938 384.871094 L 236.335938 32.722656 "/>
</g>
<path fill-rule="nonzero" fill="rgb(90.196078%, 62.352941%, 0%)" fill-opacity="1" d="M 71.824219 368.863281 L 75.578125 368.863281 L 75.578125 368.832031 L 71.824219 368.832031 Z M 71.824219 368.863281 "/>
<path fill-rule="nonzero" fill="rgb(90.196078%, 62.352941%, 0%)" fill-opacity="1" d="M 75.996094 368.863281 L 79.75 368.863281 L 79.75 368.5625 L 75.996094 368.5625 Z M 75.996094 368.863281 "/>
<path fill-rule="nonzero" fill="rgb(90.196078%, 62.352941%, 0%)" fill-opacity="1" d="M 80.167969 368.863281 L 83.921875 368.863281 L 83.921875 367.046875 L 80.167969 367.046875 Z M 80.167969 368.863281 "/>
<path fill-rule="nonzero" fill="rgb(90.196078%, 62.352941%, 0%)" fill-opacity="1" d="M 84.335938 368.863281 L 88.089844 368.863281 L 88.089844 361.144531 L 84.335938 361.144531 Z M 84.335938 368.863281 "/>
<path fill-rule="nonzero" fill="rgb(90.196078%, 62.352941%, 0%)" fill-opacity="1" d="M 88.507812 368.863281 L 92.261719 368.863281 L 92.261719 344.164062 L 88.507812 344.164062 Z M 88.507812 368.863281 "/>
<path fill-rule="nonzero" fill="rgb(90.196078%, 62.352941%, 0%)" fill-opacity="1" d="M 92.675781 368.863281 L 96.429688 368.863281 L 96.429688 307.113281 L 92.675781 307.113281 Z M 92.675781 368.863281 "/>
<path fill-rule="nonzero" fill="rgb(90.196078%, 62.352941%, 0%)" fill-opacity="1" d="M 96.847656 368.863281 L 100.601562 368.863281 L 100.601562 245.363281 L 96.847656 245.363281 Z M 96.847656 368.863281 "/>
<path fill-rule="nonzero" fill="rgb(90.196078%, 62.352941%, 0%)" fill-opacity="1" d="M 101.015625 368.863281 L 104.769531 368.863281 L 104.769531 168.175781 L 101.015625 168.175781 Z M 101.015625 368.863281 "/>
<path fill-rule="nonzero" fill="rgb(90.196078%, 62.352941%, 0%)" fill-opacity="1" d="M 105.1875 368.863281 L 108.941406 368.863281 L 108.941406 101.28125 L 105.1875 101.28125 Z M 105.1875 368.863281 "/>
<path fill-rule="nonzero" fill="rgb(90.196078%, 62.352941%, 0%)" fill-opacity="1" d="M 109.355469 368.863281 L 113.109375 368.863281 L 113.109375 74.523438 L 109.355469 74.523438 Z M 109.355469 368.863281 "/>
<path fill-rule="nonzero" fill="rgb(90.196078%, 62.352941%, 0%)" fill-opacity="1" d="M 113.527344 368.863281 L 117.28125 368.863281 L 117.28125 101.28125 L 113.527344 101.28125 Z M 113.527344 368.863281 "/>
<path fill-rule="nonzero" fill="rgb(90.196078%, 62.352941%, 0%)" fill-opacity="1" d="M 117.695312 368.863281 L 121.449219 368.863281 L 121.449219 168.175781 L 117.695312 168.175781 Z M 117.695312 368.863281 "/>
<path fill-rule="nonzero" fill="rgb(90.196078%, 62.352941%, 0%)" fill-opacity="1" d="M 121.867188 368.863281 L 125.621094 368.863281 L 125.621094 245.363281 L 121.867188 245.363281 Z M 121.867188 368.863281 "/>
<path fill-rule="nonzero" fill="rgb(90.196078%, 62.352941%, 0%)" fill-opacity="1" d="M 126.035156 368.863281 L 129.789062 368.863281 L 129.789062 307.113281 L 126.035156 307.113281 Z M 126.035156 368.863281 "/>
<path fill-rule="nonzero" fill="rgb(90.196078%, 62.352941%, 0%)" fill-opacity="1" d="M 130.207031 368.863281 L 133.960938 368.863281 L 133.960938 344.164062 L 130.207031 344.164062 Z M 130.207031 368.863281 "/>
<path fill-rule="nonzero" fill="rgb(90.196078%, 62.352941%, 0%)" fill-opacity="1" d="M 134.375 368.863281 L 138.128906 368.863281 L 138.128906 361.144531 L 134.375 361.144531 Z M 134.375 368.863281 "/>
<path fill-rule="nonzero" fill="rgb(90.196078%, 62.352941%, 0%)" fill-opacity="1" d="M 138.546875 368.863281 L 142.300781 368.863281 L 142.300781 367.046875 L 138.546875 367.046875 Z M 138.546875 368.863281 "/>
<path fill-rule="nonzero" fill="rgb(90.196078%, 62.352941%, 0%)" fill-opacity="1" d="M 142.71875 368.863281 L 146.472656 368.863281 L 146.472656 368.5625 L 142.71875 368.5625 Z M 142.71875 368.863281 "/>
<path fill-rule="nonzero" fill="rgb(90.196078%, 62.352941%, 0%)" fill-opacity="1" d="M 146.886719 368.863281 L 150.640625 368.863281 L 150.640625 368.832031 L 146.886719 368.832031 Z M 146.886719 368.863281 "/>
<g clip-path="url(#clip-18)">
<path fill="none" stroke-width="0.775984" stroke-linecap="butt" stroke-linejoin="round" stroke="rgb(92.156863%, 92.156863%, 92.156863%)" stroke-opacity="1" stroke-miterlimit="10" d="M 254.707031 327.101562 L 442.320312 327.101562 "/>
</g>
<g clip-path="url(#clip-19)">
<path fill="none" stroke-width="0.775984" stroke-linecap="butt" stroke-linejoin="round" stroke="rgb(92.156863%, 92.156863%, 92.156863%)" stroke-opacity="1" stroke-miterlimit="10" d="M 254.707031 243.578125 L 442.320312 243.578125 "/>
</g>
<g clip-path="url(#clip-20)">
<path fill="none" stroke-width="0.775984" stroke-linecap="butt" stroke-linejoin="round" stroke="rgb(92.156863%, 92.156863%, 92.156863%)" stroke-opacity="1" stroke-miterlimit="10" d="M 254.707031 160.050781 L 442.320312 160.050781 "/>
</g>
<g clip-path="url(#clip-21)">
<path fill="none" stroke-width="0.775984" stroke-linecap="butt" stroke-linejoin="round" stroke="rgb(92.156863%, 92.156863%, 92.156863%)" stroke-opacity="1" stroke-miterlimit="10" d="M 254.707031 76.523438 L 442.320312 76.523438 "/>
</g>
<g clip-path="url(#clip-22)">
<path fill="none" stroke-width="0.775984" stroke-linecap="butt" stroke-linejoin="round" stroke="rgb(92.156863%, 92.156863%, 92.156863%)" stroke-opacity="1" stroke-miterlimit="10" d="M 285.964844 384.871094 L 285.964844 32.722656 "/>
</g>
<g clip-path="url(#clip-23)">
<path fill="none" stroke-width="0.775984" stroke-linecap="butt" stroke-linejoin="round" stroke="rgb(92.156863%, 92.156863%, 92.156863%)" stroke-opacity="1" stroke-miterlimit="10" d="M 327.664062 384.871094 L 327.664062 32.722656 "/>
</g>
<g clip-path="url(#clip-24)">
<path fill="none" stroke-width="0.775984" stroke-linecap="butt" stroke-linejoin="round" stroke="rgb(92.156863%, 92.156863%, 92.156863%)" stroke-opacity="1" stroke-miterlimit="10" d="M 369.363281 384.871094 L 369.363281 32.722656 "/>
</g>
<g clip-path="url(#clip-25)">
<path fill="none" stroke-width="0.775984" stroke-linecap="butt" stroke-linejoin="round" stroke="rgb(92.156863%, 92.156863%, 92.156863%)" stroke-opacity="1" stroke-miterlimit="10" d="M 411.066406 384.871094 L 411.066406 32.722656 "/>
</g>
<g clip-path="url(#clip-26)">
<path fill="none" stroke-width="1.551969" stroke-linecap="butt" stroke-linejoin="round" stroke="rgb(92.156863%, 92.156863%, 92.156863%)" stroke-opacity="1" stroke-miterlimit="10" d="M 254.707031 368.863281 L 442.320312 368.863281 "/>
</g>
<g clip-path="url(#clip-27)">
<path fill="none" stroke-width="1.551969" stroke-linecap="butt" stroke-linejoin="round" stroke="rgb(92.156863%, 92.156863%, 92.156863%)" stroke-opacity="1" stroke-miterlimit="10" d="M 254.707031 285.339844 L 442.320312 285.339844 "/>
</g>
<g clip-path="url(#clip-28)">
<path fill="none" stroke-width="1.551969" stroke-linecap="butt" stroke-linejoin="round" stroke="rgb(92.156863%, 92.156863%, 92.156863%)" stroke-opacity="1" stroke-miterlimit="10" d="M 254.707031 201.8125 L 442.320312 201.8125 "/>
</g>
<g clip-path="url(#clip-29)">
<path fill="none" stroke-width="1.551969" stroke-linecap="butt" stroke-linejoin="round" stroke="rgb(92.156863%, 92.156863%, 92.156863%)" stroke-opacity="1" stroke-miterlimit="10" d="M 254.707031 118.289062 L 442.320312 118.289062 "/>
</g>
<g clip-path="url(#clip-30)">
<path fill="none" stroke-width="1.551969" stroke-linecap="butt" stroke-linejoin="round" stroke="rgb(92.156863%, 92.156863%, 92.156863%)" stroke-opacity="1" stroke-miterlimit="10" d="M 254.707031 34.761719 L 442.320312 34.761719 "/>
</g>
<g clip-path="url(#clip-31)">
<path fill="none" stroke-width="1.551969" stroke-linecap="butt" stroke-linejoin="round" stroke="rgb(92.156863%, 92.156863%, 92.156863%)" stroke-opacity="1" stroke-miterlimit="10" d="M 265.113281 384.871094 L 265.113281 32.722656 "/>
</g>
<g clip-path="url(#clip-32)">
<path fill="none" stroke-width="1.551969" stroke-linecap="butt" stroke-linejoin="round" stroke="rgb(92.156863%, 92.156863%, 92.156863%)" stroke-opacity="1" stroke-miterlimit="10" d="M 306.8125 384.871094 L 306.8125 32.722656 "/>
</g>
<g clip-path="url(#clip-33)">
<path fill="none" stroke-width="1.551969" stroke-linecap="butt" stroke-linejoin="round" stroke="rgb(92.156863%, 92.156863%, 92.156863%)" stroke-opacity="1" stroke-miterlimit="10" d="M 348.515625 384.871094 L 348.515625 32.722656 "/>
</g>
<g clip-path="url(#clip-34)">
<path fill="none" stroke-width="1.551969" stroke-linecap="butt" stroke-linejoin="round" stroke="rgb(92.156863%, 92.156863%, 92.156863%)" stroke-opacity="1" stroke-miterlimit="10" d="M 390.214844 384.871094 L 390.214844 32.722656 "/>
</g>
<g clip-path="url(#clip-35)">
<path fill="none" stroke-width="1.551969" stroke-linecap="butt" stroke-linejoin="round" stroke="rgb(92.156863%, 92.156863%, 92.156863%)" stroke-opacity="1" stroke-miterlimit="10" d="M 431.914062 384.871094 L 431.914062 32.722656 "/>
</g>
<path fill-rule="nonzero" fill="rgb(33.72549%, 70.588235%, 91.372549%)" fill-opacity="1" d="M 279.917969 368.863281 L 283.671875 368.863281 L 283.671875 368.855469 L 279.917969 368.855469 Z M 279.917969 368.863281 "/>
<path fill-rule="nonzero" fill="rgb(33.72549%, 70.588235%, 91.372549%)" fill-opacity="1" d="M 284.085938 368.863281 L 287.839844 368.863281 L 287.839844 368.800781 L 284.085938 368.800781 Z M 284.085938 368.863281 "/>
<path fill-rule="nonzero" fill="rgb(33.72549%, 70.588235%, 91.372549%)" fill-opacity="1" d="M 288.257812 368.863281 L 292.011719 368.863281 L 292.011719 368.5 L 288.257812 368.5 Z M 288.257812 368.863281 "/>
<path fill-rule="nonzero" fill="rgb(33.72549%, 70.588235%, 91.372549%)" fill-opacity="1" d="M 292.425781 368.863281 L 296.179688 368.863281 L 296.179688 367.164062 L 292.425781 367.164062 Z M 292.425781 368.863281 "/>
<path fill-rule="nonzero" fill="rgb(33.72549%, 70.588235%, 91.372549%)" fill-opacity="1" d="M 296.597656 368.863281 L 300.351562 368.863281 L 300.351562 362.417969 L 296.597656 362.417969 Z M 296.597656 368.863281 "/>
<path fill-rule="nonzero" fill="rgb(33.72549%, 70.588235%, 91.372549%)" fill-opacity="1" d="M 300.765625 368.863281 L 304.519531 368.863281 L 304.519531 348.804688 L 300.765625 348.804688 Z M 300.765625 368.863281 "/>
<path fill-rule="nonzero" fill="rgb(33.72549%, 70.588235%, 91.372549%)" fill-opacity="1" d="M 304.9375 368.863281 L 308.691406 368.863281 L 308.691406 317.382812 L 304.9375 317.382812 Z M 304.9375 368.863281 "/>
<path fill-rule="nonzero" fill="rgb(33.72549%, 70.588235%, 91.372549%)" fill-opacity="1" d="M 309.105469 368.863281 L 312.859375 368.863281 L 312.859375 259.664062 L 309.105469 259.664062 Z M 309.105469 368.863281 "/>
<path fill-rule="nonzero" fill="rgb(33.72549%, 70.588235%, 91.372549%)" fill-opacity="1" d="M 313.277344 368.863281 L 317.03125 368.863281 L 317.03125 177.761719 L 313.277344 177.761719 Z M 313.277344 368.863281 "/>
<path fill-rule="nonzero" fill="rgb(33.72549%, 70.588235%, 91.372549%)" fill-opacity="1" d="M 317.445312 368.863281 L 321.199219 368.863281 L 321.199219 94.460938 L 317.445312 94.460938 Z M 317.445312 368.863281 "/>
<path fill-rule="nonzero" fill="rgb(33.72549%, 70.588235%, 91.372549%)" fill-opacity="1" d="M 321.617188 368.863281 L 325.371094 368.863281 L 325.371094 48.726562 L 321.617188 48.726562 Z M 321.617188 368.863281 "/>
<path fill-rule="nonzero" fill="rgb(33.72549%, 70.588235%, 91.372549%)" fill-opacity="1" d="M 325.785156 368.863281 L 329.539062 368.863281 L 329.539062 70.070312 L 325.785156 70.070312 Z M 325.785156 368.863281 "/>
<path fill-rule="nonzero" fill="rgb(33.72549%, 70.588235%, 91.372549%)" fill-opacity="1" d="M 329.957031 368.863281 L 333.710938 368.863281 L 333.710938 150.992188 L 329.957031 150.992188 Z M 329.957031 368.863281 "/>
<path fill-rule="nonzero" fill="rgb(33.72549%, 70.588235%, 91.372549%)" fill-opacity="1" d="M 334.128906 368.863281 L 337.882812 368.863281 L 337.882812 249.25 L 334.128906 249.25 Z M 334.128906 368.863281 "/>
<path fill-rule="nonzero" fill="rgb(33.72549%, 70.588235%, 91.372549%)" fill-opacity="1" d="M 338.296875 368.863281 L 342.050781 368.863281 L 342.050781 322.347656 L 338.296875 322.347656 Z M 338.296875 368.863281 "/>
<path fill-rule="nonzero" fill="rgb(33.72549%, 70.588235%, 91.372549%)" fill-opacity="1" d="M 342.46875 368.863281 L 346.222656 368.863281 L 346.222656 357.4375 L 342.46875 357.4375 Z M 342.46875 368.863281 "/>
<path fill-rule="nonzero" fill="rgb(33.72549%, 70.588235%, 91.372549%)" fill-opacity="1" d="M 346.636719 368.863281 L 350.390625 368.863281 L 350.390625 367.53125 L 346.636719 367.53125 Z M 346.636719 368.863281 "/>
<g clip-path="url(#clip-36)">
<path fill="none" stroke-width="0.775984" stroke-linecap="butt" stroke-linejoin="round" stroke="rgb(92.156863%, 92.156863%, 92.156863%)" stroke-opacity="1" stroke-miterlimit="10" d="M 450.289062 327.101562 L 637.898438 327.101562 "/>
</g>
<g clip-path="url(#clip-37)">
<path fill="none" stroke-width="0.775984" stroke-linecap="butt" stroke-linejoin="round" stroke="rgb(92.156863%, 92.156863%, 92.156863%)" stroke-opacity="1" stroke-miterlimit="10" d="M 450.289062 243.578125 L 637.898438 243.578125 "/>
</g>
<g clip-path="url(#clip-38)">
<path fill="none" stroke-width="0.775984" stroke-linecap="butt" stroke-linejoin="round" stroke="rgb(92.156863%, 92.156863%, 92.156863%)" stroke-opacity="1" stroke-miterlimit="10" d="M 450.289062 160.050781 L 637.898438 160.050781 "/>
</g>
<g clip-path="url(#clip-39)">
<path fill="none" stroke-width="0.775984" stroke-linecap="butt" stroke-linejoin="round" stroke="rgb(92.156863%, 92.156863%, 92.156863%)" stroke-opacity="1" stroke-miterlimit="10" d="M 450.289062 76.523438 L 637.898438 76.523438 "/>
</g>
<g clip-path="url(#clip-40)">
<path fill="none" stroke-width="0.775984" stroke-linecap="butt" stroke-linejoin="round" stroke="rgb(92.156863%, 92.156863%, 92.156863%)" stroke-opacity="1" stroke-miterlimit="10" d="M 481.542969 384.871094 L 481.542969 32.722656 "/>
</g>
<g clip-path="url(#clip-41)">
<path fill="none" stroke-width="0.775984" stroke-linecap="butt" stroke-linejoin="round" stroke="rgb(92.156863%, 92.156863%, 92.156863%)" stroke-opacity="1" stroke-miterlimit="10" d="M 523.242188 384.871094 L 523.242188 32.722656 "/>
</g>
<g clip-path="url(#clip-42)">
<path fill="none" stroke-width="0.775984" stroke-linecap="butt" stroke-linejoin="round" stroke="rgb(92.156863%, 92.156863%, 92.156863%)" stroke-opacity="1" stroke-miterlimit="10" d="M 564.945312 384.871094 L 564.945312 32.722656 "/>
</g>
<g clip-path="url(#clip-43)">
<path fill="none" stroke-width="0.775984" stroke-linecap="butt" stroke-linejoin="round" stroke="rgb(92.156863%, 92.156863%, 92.156863%)" stroke-opacity="1" stroke-miterlimit="10" d="M 606.644531 384.871094 L 606.644531 32.722656 "/>
</g>
<g clip-path="url(#clip-44)">
<path fill="none" stroke-width="1.551969" stroke-linecap="butt" stroke-linejoin="round" stroke="rgb(92.156863%, 92.156863%, 92.156863%)" stroke-opacity="1" stroke-miterlimit="10" d="M 450.289062 368.863281 L 637.898438 368.863281 "/>
</g>
<g clip-path="url(#clip-45)">
<path fill="none" stroke-width="1.551969" stroke-linecap="butt" stroke-linejoin="round" stroke="rgb(92.156863%, 92.156863%, 92.156863%)" stroke-opacity="1" stroke-miterlimit="10" d="M 450.289062 285.339844 L 637.898438 285.339844 "/>
</g>
<g clip-path="url(#clip-46)">
<path fill="none" stroke-width="1.551969" stroke-linecap="butt" stroke-linejoin="round" stroke="rgb(92.156863%, 92.156863%, 92.156863%)" stroke-opacity="1" stroke-miterlimit="10" d="M 450.289062 201.8125 L 637.898438 201.8125 "/>
</g>
<g clip-path="url(#clip-47)">
<path fill="none" stroke-width="1.551969" stroke-linecap="butt" stroke-linejoin="round" stroke="rgb(92.156863%, 92.156863%, 92.156863%)" stroke-opacity="1" stroke-miterlimit="10" d="M 450.289062 118.289062 L 637.898438 118.289062 "/>
</g>
<g clip-path="url(#clip-48)">
<path fill="none" stroke-width="1.551969" stroke-linecap="butt" stroke-linejoin="round" stroke="rgb(92.156863%, 92.156863%, 92.156863%)" stroke-opacity="1" stroke-miterlimit="10" d="M 450.289062 34.761719 L 637.898438 34.761719 "/>
</g>
<g clip-path="url(#clip-49)">
<path fill="none" stroke-width="1.551969" stroke-linecap="butt" stroke-linejoin="round" stroke="rgb(92.156863%, 92.156863%, 92.156863%)" stroke-opacity="1" stroke-miterlimit="10" d="M 460.691406 384.871094 L 460.691406 32.722656 "/>
</g>
<g clip-path="url(#clip-50)">
<path fill="none" stroke-width="1.551969" stroke-linecap="butt" stroke-linejoin="round" stroke="rgb(92.156863%, 92.156863%, 92.156863%)" stroke-opacity="1" stroke-miterlimit="10" d="M 502.394531 384.871094 L 502.394531 32.722656 "/>
</g>
<g clip-path="url(#clip-51)">
<path fill="none" stroke-width="1.551969" stroke-linecap="butt" stroke-linejoin="round" stroke="rgb(92.156863%, 92.156863%, 92.156863%)" stroke-opacity="1" stroke-miterlimit="10" d="M 544.09375 384.871094 L 544.09375 32.722656 "/>
</g>
<g clip-path="url(#clip-52)">
<path fill="none" stroke-width="1.551969" stroke-linecap="butt" stroke-linejoin="round" stroke="rgb(92.156863%, 92.156863%, 92.156863%)" stroke-opacity="1" stroke-miterlimit="10" d="M 585.792969 384.871094 L 585.792969 32.722656 "/>
</g>
<g clip-path="url(#clip-53)">
<path fill="none" stroke-width="1.551969" stroke-linecap="butt" stroke-linejoin="round" stroke="rgb(92.156863%, 92.156863%, 92.156863%)" stroke-opacity="1" stroke-miterlimit="10" d="M 627.496094 384.871094 L 627.496094 32.722656 "/>
</g>
<path fill-rule="nonzero" fill="rgb(0%, 61.960784%, 45.098039%)" fill-opacity="1" d="M 483.835938 368.863281 L 487.589844 368.863281 L 487.589844 368.859375 L 483.835938 368.859375 Z M 483.835938 368.863281 "/>
<path fill-rule="nonzero" fill="rgb(0%, 61.960784%, 45.098039%)" fill-opacity="1" d="M 488.007812 368.863281 L 491.761719 368.863281 L 491.761719 368.835938 L 488.007812 368.835938 Z M 488.007812 368.863281 "/>
<path fill-rule="nonzero" fill="rgb(0%, 61.960784%, 45.098039%)" fill-opacity="1" d="M 492.175781 368.863281 L 495.929688 368.863281 L 495.929688 368.746094 L 492.175781 368.746094 Z M 492.175781 368.863281 "/>
<path fill-rule="nonzero" fill="rgb(0%, 61.960784%, 45.098039%)" fill-opacity="1" d="M 496.347656 368.863281 L 500.101562 368.863281 L 500.101562 368.449219 L 496.347656 368.449219 Z M 496.347656 368.863281 "/>
<path fill-rule="nonzero" fill="rgb(0%, 61.960784%, 45.098039%)" fill-opacity="1" d="M 500.515625 368.863281 L 504.269531 368.863281 L 504.269531 367.574219 L 500.515625 367.574219 Z M 500.515625 368.863281 "/>
<path fill-rule="nonzero" fill="rgb(0%, 61.960784%, 45.098039%)" fill-opacity="1" d="M 504.6875 368.863281 L 508.441406 368.863281 L 508.441406 365.351562 L 504.6875 365.351562 Z M 504.6875 368.863281 "/>
<path fill-rule="nonzero" fill="rgb(0%, 61.960784%, 45.098039%)" fill-opacity="1" d="M 508.855469 368.863281 L 512.609375 368.863281 L 512.609375 360.375 L 508.855469 360.375 Z M 508.855469 368.863281 "/>
<path fill-rule="nonzero" fill="rgb(0%, 61.960784%, 45.098039%)" fill-opacity="1" d="M 513.027344 368.863281 L 516.78125 368.863281 L 516.78125 350.582031 L 513.027344 350.582031 Z M 513.027344 368.863281 "/>
<path fill-rule="nonzero" fill="rgb(0%, 61.960784%, 45.098039%)" fill-opacity="1" d="M 517.199219 368.863281 L 520.953125 368.863281 L 520.953125 333.605469 L 517.199219 333.605469 Z M 517.199219 368.863281 "/>
<path fill-rule="nonzero" fill="rgb(0%, 61.960784%, 45.098039%)" fill-opacity="1" d="M 521.367188 368.863281 L 525.121094 368.863281 L 525.121094 307.746094 L 521.367188 307.746094 Z M 521.367188 368.863281 "/>
<path fill-rule="nonzero" fill="rgb(0%, 61.960784%, 45.098039%)" fill-opacity="1" d="M 525.539062 368.863281 L 529.292969 368.863281 L 529.292969 273.371094 L 525.539062 273.371094 Z M 525.539062 368.863281 "/>
<path fill-rule="nonzero" fill="rgb(0%, 61.960784%, 45.098039%)" fill-opacity="1" d="M 529.707031 368.863281 L 533.460938 368.863281 L 533.460938 234.050781 L 529.707031 234.050781 Z M 529.707031 368.863281 "/>
<path fill-rule="nonzero" fill="rgb(0%, 61.960784%, 45.098039%)" fill-opacity="1" d="M 533.878906 368.863281 L 537.632812 368.863281 L 537.632812 196.601562 L 533.878906 196.601562 Z M 533.878906 368.863281 "/>
<path fill-rule="nonzero" fill="rgb(0%, 61.960784%, 45.098039%)" fill-opacity="1" d="M 538.046875 368.863281 L 541.800781 368.863281 L 541.800781 169.402344 L 538.046875 169.402344 Z M 538.046875 368.863281 "/>
<path fill-rule="nonzero" fill="rgb(0%, 61.960784%, 45.098039%)" fill-opacity="1" d="M 542.21875 368.863281 L 545.972656 368.863281 L 545.972656 159.429688 L 542.21875 159.429688 Z M 542.21875 368.863281 "/>
<path fill-rule="nonzero" fill="rgb(0%, 61.960784%, 45.098039%)" fill-opacity="1" d="M 546.386719 368.863281 L 550.140625 368.863281 L 550.140625 169.402344 L 546.386719 169.402344 Z M 546.386719 368.863281 "/>
<path fill-rule="nonzero" fill="rgb(0%, 61.960784%, 45.098039%)" fill-opacity="1" d="M 550.558594 368.863281 L 554.3125 368.863281 L 554.3125 196.601562 L 550.558594 196.601562 Z M 550.558594 368.863281 "/>
<path fill-rule="nonzero" fill="rgb(0%, 61.960784%, 45.098039%)" fill-opacity="1" d="M 554.726562 368.863281 L 558.480469 368.863281 L 558.480469 234.050781 L 554.726562 234.050781 Z M 554.726562 368.863281 "/>
<path fill-rule="nonzero" fill="rgb(0%, 61.960784%, 45.098039%)" fill-opacity="1" d="M 558.898438 368.863281 L 562.652344 368.863281 L 562.652344 273.371094 L 558.898438 273.371094 Z M 558.898438 368.863281 "/>
<path fill-rule="nonzero" fill="rgb(0%, 61.960784%, 45.098039%)" fill-opacity="1" d="M 563.066406 368.863281 L 566.820312 368.863281 L 566.820312 307.746094 L 563.066406 307.746094 Z M 563.066406 368.863281 "/>
<path fill-rule="nonzero" fill="rgb(0%, 61.960784%, 45.098039%)" fill-opacity="1" d="M 567.238281 368.863281 L 570.992188 368.863281 L 570.992188 333.605469 L 567.238281 333.605469 Z M 567.238281 368.863281 "/>
<path fill-rule="nonzero" fill="rgb(0%, 61.960784%, 45.098039%)" fill-opacity="1" d="M 571.40625 368.863281 L 575.160156 368.863281 L 575.160156 350.582031 L 571.40625 350.582031 Z M 571.40625 368.863281 "/>
<path fill-rule="nonzero" fill="rgb(0%, 61.960784%, 45.098039%)" fill-opacity="1" d="M 575.578125 368.863281 L 579.332031 368.863281 L 579.332031 360.375 L 575.578125 360.375 Z M 575.578125 368.863281 "/>
<path fill-rule="nonzero" fill="rgb(0%, 61.960784%, 45.098039%)" fill-opacity="1" d="M 579.75 368.863281 L 583.503906 368.863281 L 583.503906 365.351562 L 579.75 365.351562 Z M 579.75 368.863281 "/>
<path fill-rule="nonzero" fill="rgb(0%, 61.960784%, 45.098039%)" fill-opacity="1" d="M 583.917969 368.863281 L 587.671875 368.863281 L 587.671875 367.574219 L 583.917969 367.574219 Z M 583.917969 368.863281 "/>
<path fill-rule="nonzero" fill="rgb(0%, 61.960784%, 45.098039%)" fill-opacity="1" d="M 588.089844 368.863281 L 591.84375 368.863281 L 591.84375 368.449219 L 588.089844 368.449219 Z M 588.089844 368.863281 "/>
<path fill-rule="nonzero" fill="rgb(0%, 61.960784%, 45.098039%)" fill-opacity="1" d="M 592.257812 368.863281 L 596.011719 368.863281 L 596.011719 368.746094 L 592.257812 368.746094 Z M 592.257812 368.863281 "/>
<path fill-rule="nonzero" fill="rgb(0%, 61.960784%, 45.098039%)" fill-opacity="1" d="M 596.429688 368.863281 L 600.183594 368.863281 L 600.183594 368.835938 L 596.429688 368.835938 Z M 596.429688 368.863281 "/>
<path fill-rule="nonzero" fill="rgb(0%, 61.960784%, 45.098039%)" fill-opacity="1" d="M 600.597656 368.863281 L 604.351562 368.863281 L 604.351562 368.859375 L 600.597656 368.859375 Z M 600.597656 368.863281 "/>
<g fill="rgb(10.196078%, 10.196078%, 10.196078%)" fill-opacity="1">
<use xlink:href="#glyph-0-1" x="121.433594" y="24.81543"/>
<use xlink:href="#glyph-0-2" x="129.433594" y="24.81543"/>
<use xlink:href="#glyph-0-3" x="135.433594" y="24.81543"/>
<use xlink:href="#glyph-0-4" x="141.433594" y="24.81543"/>
<use xlink:href="#glyph-0-5" x="148.433594" y="24.81543"/>
<use xlink:href="#glyph-0-6" x="151.433594" y="24.81543"/>
<use xlink:href="#glyph-0-7" x="154.433594" y="24.81543"/>
<use xlink:href="#glyph-0-2" x="162.433594" y="24.81543"/>
<use xlink:href="#glyph-0-4" x="168.433594" y="24.81543"/>
<use xlink:href="#glyph-0-8" x="175.433594" y="24.81543"/>
<use xlink:href="#glyph-0-9" x="178.433594" y="24.81543"/>
</g>
<g fill="rgb(10.196078%, 10.196078%, 10.196078%)" fill-opacity="1">
<use xlink:href="#glyph-0-1" x="317.015625" y="24.81543"/>
<use xlink:href="#glyph-0-2" x="325.015625" y="24.81543"/>
<use xlink:href="#glyph-0-3" x="331.015625" y="24.81543"/>
<use xlink:href="#glyph-0-4" x="337.015625" y="24.81543"/>
<use xlink:href="#glyph-0-5" x="344.015625" y="24.81543"/>
<use xlink:href="#glyph-0-6" x="347.015625" y="24.81543"/>
<use xlink:href="#glyph-0-7" x="350.015625" y="24.81543"/>
<use xlink:href="#glyph-0-2" x="358.015625" y="24.81543"/>
<use xlink:href="#glyph-0-4" x="364.015625" y="24.81543"/>
<use xlink:href="#glyph-0-8" x="371.015625" y="24.81543"/>
<use xlink:href="#glyph-0-10" x="374.015625" y="24.81543"/>
</g>
<g fill="rgb(10.196078%, 10.196078%, 10.196078%)" fill-opacity="1">
<use xlink:href="#glyph-0-1" x="512.09375" y="24.81543"/>
<use xlink:href="#glyph-0-2" x="520.09375" y="24.81543"/>
<use xlink:href="#glyph-0-11" x="526.09375" y="24.81543"/>
<use xlink:href="#glyph-0-4" x="533.09375" y="24.81543"/>
<use xlink:href="#glyph-0-5" x="540.09375" y="24.81543"/>
<use xlink:href="#glyph-0-6" x="543.09375" y="24.81543"/>
<use xlink:href="#glyph-0-7" x="546.09375" y="24.81543"/>
<use xlink:href="#glyph-0-2" x="554.09375" y="24.81543"/>
<use xlink:href="#glyph-0-4" x="560.09375" y="24.81543"/>
<use xlink:href="#glyph-0-8" x="567.09375" y="24.81543"/>
<use xlink:href="#glyph-0-9" x="570.09375" y="24.81543"/>
</g>
<g fill="rgb(30.196078%, 30.196078%, 30.196078%)" fill-opacity="1">
<use xlink:href="#glyph-0-4" x="66.03125" y="401.010742"/>
</g>
<g fill="rgb(30.196078%, 30.196078%, 30.196078%)" fill-opacity="1">
<use xlink:href="#glyph-0-12" x="104.734375" y="401.010742"/>
<use xlink:href="#glyph-0-4" x="110.734375" y="401.010742"/>
</g>
<g fill="rgb(30.196078%, 30.196078%, 30.196078%)" fill-opacity="1">
<use xlink:href="#glyph-0-3" x="146.433594" y="401.010742"/>
<use xlink:href="#glyph-0-4" x="152.433594" y="401.010742"/>
</g>
<g fill="rgb(30.196078%, 30.196078%, 30.196078%)" fill-opacity="1">
<use xlink:href="#glyph-0-13" x="188.132812" y="401.010742"/>
<use xlink:href="#glyph-0-4" x="194.132812" y="401.010742"/>
</g>
<g fill="rgb(30.196078%, 30.196078%, 30.196078%)" fill-opacity="1">
<use xlink:href="#glyph-0-11" x="229.335938" y="401.010742"/>
<use xlink:href="#glyph-0-4" x="236.335938" y="401.010742"/>
</g>
<g fill="rgb(30.196078%, 30.196078%, 30.196078%)" fill-opacity="1">
<use xlink:href="#glyph-0-4" x="261.613281" y="401.010742"/>
</g>
<g fill="rgb(30.196078%, 30.196078%, 30.196078%)" fill-opacity="1">
<use xlink:href="#glyph-0-12" x="300.3125" y="401.010742"/>
<use xlink:href="#glyph-0-4" x="306.3125" y="401.010742"/>
</g>
<g fill="rgb(30.196078%, 30.196078%, 30.196078%)" fill-opacity="1">
<use xlink:href="#glyph-0-3" x="342.015625" y="401.010742"/>
<use xlink:href="#glyph-0-4" x="348.015625" y="401.010742"/>
</g>
<g fill="rgb(30.196078%, 30.196078%, 30.196078%)" fill-opacity="1">
<use xlink:href="#glyph-0-13" x="383.714844" y="401.010742"/>
<use xlink:href="#glyph-0-4" x="389.714844" y="401.010742"/>
</g>
<g fill="rgb(30.196078%, 30.196078%, 30.196078%)" fill-opacity="1">
<use xlink:href="#glyph-0-11" x="424.914062" y="401.010742"/>
<use xlink:href="#glyph-0-4" x="431.914062" y="401.010742"/>
</g>
<g fill="rgb(30.196078%, 30.196078%, 30.196078%)" fill-opacity="1">
<use xlink:href="#glyph-0-4" x="457.191406" y="401.010742"/>
</g>
<g fill="rgb(30.196078%, 30.196078%, 30.196078%)" fill-opacity="1">
<use xlink:href="#glyph-0-12" x="495.894531" y="401.010742"/>
<use xlink:href="#glyph-0-4" x="501.894531" y="401.010742"/>
</g>
<g fill="rgb(30.196078%, 30.196078%, 30.196078%)" fill-opacity="1">
<use xlink:href="#glyph-0-3" x="537.59375" y="401.010742"/>
<use xlink:href="#glyph-0-4" x="543.59375" y="401.010742"/>
</g>
<g fill="rgb(30.196078%, 30.196078%, 30.196078%)" fill-opacity="1">
<use xlink:href="#glyph-0-13" x="579.292969" y="401.010742"/>
<use xlink:href="#glyph-0-4" x="585.292969" y="401.010742"/>
</g>
<g fill="rgb(30.196078%, 30.196078%, 30.196078%)" fill-opacity="1">
<use xlink:href="#glyph-0-11" x="620.496094" y="401.010742"/>
<use xlink:href="#glyph-0-4" x="627.496094" y="401.010742"/>
</g>
<g fill="rgb(30.196078%, 30.196078%, 30.196078%)" fill-opacity="1">
<use xlink:href="#glyph-0-4" x="27.957031" y="373.331055"/>
<use xlink:href="#glyph-0-8" x="34.957031" y="373.331055"/>
<use xlink:href="#glyph-0-4" x="37.957031" y="373.331055"/>
<use xlink:href="#glyph-0-4" x="44.957031" y="373.331055"/>
</g>
<g fill="rgb(30.196078%, 30.196078%, 30.196078%)" fill-opacity="1">
<use xlink:href="#glyph-0-4" x="28.957031" y="289.807617"/>
<use xlink:href="#glyph-0-8" x="35.957031" y="289.807617"/>
<use xlink:href="#glyph-0-4" x="38.957031" y="289.807617"/>
<use xlink:href="#glyph-0-9" x="45.957031" y="289.807617"/>
</g>
<g fill="rgb(30.196078%, 30.196078%, 30.196078%)" fill-opacity="1">
<use xlink:href="#glyph-0-4" x="29.957031" y="206.280273"/>
<use xlink:href="#glyph-0-8" x="36.957031" y="206.280273"/>
<use xlink:href="#glyph-0-12" x="38.957031" y="206.280273"/>
<use xlink:href="#glyph-0-4" x="44.957031" y="206.280273"/>
</g>
<g fill="rgb(30.196078%, 30.196078%, 30.196078%)" fill-opacity="1">
<use xlink:href="#glyph-0-4" x="30.957031" y="122.756836"/>
<use xlink:href="#glyph-0-8" x="37.957031" y="122.756836"/>
<use xlink:href="#glyph-0-12" x="39.957031" y="122.756836"/>
<use xlink:href="#glyph-0-9" x="45.957031" y="122.756836"/>
</g>
<g fill="rgb(30.196078%, 30.196078%, 30.196078%)" fill-opacity="1">
<use xlink:href="#glyph-0-4" x="28.957031" y="39.229492"/>
<use xlink:href="#glyph-0-8" x="35.957031" y="39.229492"/>
<use xlink:href="#glyph-0-3" x="38.957031" y="39.229492"/>
<use xlink:href="#glyph-0-4" x="44.957031" y="39.229492"/>
</g>
<g fill="rgb(0%, 0%, 0%)" fill-opacity="1">
<use xlink:href="#glyph-1-1" x="290.015625" y="419.991211"/>
<use xlink:href="#glyph-1-2" x="301.015625" y="419.991211"/>
<use xlink:href="#glyph-1-3" x="310.015625" y="419.991211"/>
<use xlink:href="#glyph-1-4" x="314.015625" y="419.991211"/>
<use xlink:href="#glyph-1-2" x="318.015625" y="419.991211"/>
<use xlink:href="#glyph-1-5" x="327.015625" y="419.991211"/>
<use xlink:href="#glyph-1-4" x="332.015625" y="419.991211"/>
<use xlink:href="#glyph-1-6" x="336.015625" y="419.991211"/>
<use xlink:href="#glyph-1-7" x="345.015625" y="419.991211"/>
<use xlink:href="#glyph-1-8" x="354.015625" y="419.991211"/>
<use xlink:href="#glyph-1-8" x="361.015625" y="419.991211"/>
<use xlink:href="#glyph-1-9" x="368.015625" y="419.991211"/>
<use xlink:href="#glyph-1-10" x="377.015625" y="419.991211"/>
<use xlink:href="#glyph-1-10" x="384.015625" y="419.991211"/>
<use xlink:href="#glyph-1-9" x="391.015625" y="419.991211"/>
<use xlink:href="#glyph-1-10" x="400.015625" y="419.991211"/>
</g>
<g fill="rgb(0%, 0%, 0%)" fill-opacity="1">
<use xlink:href="#glyph-2-1" x="19.928711" y="269.796875"/>
<use xlink:href="#glyph-2-2" x="19.928711" y="260.796875"/>
<use xlink:href="#glyph-2-3" x="19.928711" y="254.796875"/>
<use xlink:href="#glyph-2-4" x="19.928711" y="245.796875"/>
<use xlink:href="#glyph-2-5" x="19.928711" y="235.796875"/>
<use xlink:href="#glyph-2-4" x="19.928711" y="226.796875"/>
<use xlink:href="#glyph-2-6" x="19.928711" y="216.796875"/>
<use xlink:href="#glyph-2-7" x="19.928711" y="211.796875"/>
<use xlink:href="#glyph-2-6" x="19.928711" y="206.796875"/>
<use xlink:href="#glyph-2-8" x="19.928711" y="201.796875"/>
<use xlink:href="#glyph-2-9" x="19.928711" y="195.796875"/>
<use xlink:href="#glyph-2-10" x="19.928711" y="187.796875"/>
<use xlink:href="#glyph-2-11" x="19.928711" y="183.796875"/>
<use xlink:href="#glyph-2-5" x="19.928711" y="170.796875"/>
<use xlink:href="#glyph-2-12" x="19.928711" y="161.796875"/>
<use xlink:href="#glyph-2-12" x="19.928711" y="154.796875"/>
</g>
<g fill="rgb(0%, 0%, 0%)" fill-opacity="1">
<use xlink:href="#glyph-1-11" x="661.808594" y="184.850586"/>
<use xlink:href="#glyph-1-12" x="671.808594" y="184.850586"/>
<use xlink:href="#glyph-1-13" x="680.808594" y="184.850586"/>
<use xlink:href="#glyph-1-12" x="686.808594" y="184.850586"/>
<use xlink:href="#glyph-1-14" x="695.808594" y="184.850586"/>
<use xlink:href="#glyph-1-10" x="709.808594" y="184.850586"/>
</g>
<path fill-rule="nonzero" fill="rgb(90.196078%, 62.352941%, 0%)" fill-opacity="1" d="M 662.839844 211.109375 L 678.058594 211.109375 L 678.058594 195.890625 L 662.839844 195.890625 Z M 662.839844 211.109375 "/>
<path fill-rule="nonzero" fill="rgb(33.72549%, 70.588235%, 91.372549%)" fill-opacity="1" d="M 662.839844 228.390625 L 678.058594 228.390625 L 678.058594 213.171875 L 662.839844 213.171875 Z M 662.839844 228.390625 "/>
<path fill-rule="nonzero" fill="rgb(0%, 61.960784%, 45.098039%)" fill-opacity="1" d="M 662.839844 245.671875 L 678.058594 245.671875 L 678.058594 230.453125 L 662.839844 230.453125 Z M 662.839844 245.671875 "/>
<g fill="rgb(0%, 0%, 0%)" fill-opacity="1">
<use xlink:href="#glyph-0-1" x="687.058594" y="207.97168"/>
<use xlink:href="#glyph-0-2" x="695.058594" y="207.97168"/>
<use xlink:href="#glyph-0-3" x="701.058594" y="207.97168"/>
<use xlink:href="#glyph-0-4" x="707.058594" y="207.97168"/>
<use xlink:href="#glyph-0-5" x="714.058594" y="207.97168"/>
<use xlink:href="#glyph-0-6" x="717.058594" y="207.97168"/>
<use xlink:href="#glyph-0-7" x="720.058594" y="207.97168"/>
<use xlink:href="#glyph-0-2" x="728.058594" y="207.97168"/>
<use xlink:href="#glyph-0-4" x="734.058594" y="207.97168"/>
<use xlink:href="#glyph-0-8" x="741.058594" y="207.97168"/>
<use xlink:href="#glyph-0-9" x="744.058594" y="207.97168"/>
</g>
<g fill="rgb(0%, 0%, 0%)" fill-opacity="1">
<use xlink:href="#glyph-0-1" x="687.058594" y="225.249023"/>
<use xlink:href="#glyph-0-2" x="695.058594" y="225.249023"/>
<use xlink:href="#glyph-0-3" x="701.058594" y="225.249023"/>
<use xlink:href="#glyph-0-4" x="707.058594" y="225.249023"/>
<use xlink:href="#glyph-0-5" x="714.058594" y="225.249023"/>
<use xlink:href="#glyph-0-6" x="717.058594" y="225.249023"/>
<use xlink:href="#glyph-0-7" x="720.058594" y="225.249023"/>
<use xlink:href="#glyph-0-2" x="728.058594" y="225.249023"/>
<use xlink:href="#glyph-0-4" x="734.058594" y="225.249023"/>
<use xlink:href="#glyph-0-8" x="741.058594" y="225.249023"/>
<use xlink:href="#glyph-0-10" x="744.058594" y="225.249023"/>
</g>
<g fill="rgb(0%, 0%, 0%)" fill-opacity="1">
<use xlink:href="#glyph-0-1" x="687.058594" y="242.530273"/>
<use xlink:href="#glyph-0-2" x="695.058594" y="242.530273"/>
<use xlink:href="#glyph-0-11" x="701.058594" y="242.530273"/>
<use xlink:href="#glyph-0-4" x="708.058594" y="242.530273"/>
<use xlink:href="#glyph-0-5" x="715.058594" y="242.530273"/>
<use xlink:href="#glyph-0-6" x="718.058594" y="242.530273"/>
<use xlink:href="#glyph-0-7" x="721.058594" y="242.530273"/>
<use xlink:href="#glyph-0-2" x="729.058594" y="242.530273"/>
<use xlink:href="#glyph-0-4" x="735.058594" y="242.530273"/>
<use xlink:href="#glyph-0-8" x="742.058594" y="242.530273"/>
<use xlink:href="#glyph-0-9" x="745.058594" y="242.530273"/>
</g>
</svg>
