<?xml version="1.0" encoding="UTF-8"?>
<svg xmlns="http://www.w3.org/2000/svg" xmlns:xlink="http://www.w3.org/1999/xlink" width="767pt" height="432pt" viewBox="0 0 767 432">
<defs>
<g>
<g id="glyph-0-0">
<path d="M 0.28125 0 L 0.28125 -6.3125 L 5.296875 -6.3125 L 5.296875 0 Z M 4.5 -0.796875 L 4.5 -5.515625 L 1.078125 -5.515625 L 1.078125 -0.796875 Z M 4.5 -0.796875 "/>
</g>
<g id="glyph-0-1">
<path d="M 3.09375 -0.734375 C 3.382812 -0.734375 3.625 -0.765625 3.8125 -0.828125 C 4.132812 -0.929688 4.40625 -1.144531 4.625 -1.46875 C 4.789062 -1.71875 4.910156 -2.039062 4.984375 -2.4375 C 5.023438 -2.675781 5.046875 -2.898438 5.046875 -3.109375 C 5.046875 -3.890625 4.890625 -4.492188 4.578125 -4.921875 C 4.273438 -5.359375 3.773438 -5.578125 3.078125 -5.578125 L 1.5625 -5.578125 L 1.5625 -0.734375 Z M 0.703125 -6.3125 L 3.265625 -6.3125 C 4.128906 -6.3125 4.800781 -6.003906 5.28125 -5.390625 C 5.707031 -4.828125 5.921875 -4.113281 5.921875 -3.25 C 5.921875 -2.582031 5.796875 -1.976562 5.546875 -1.4375 C 5.097656 -0.476562 4.332031 0 3.25 0 L 0.703125 0 Z M 0.703125 -6.3125 "/>
</g>
<g id="glyph-0-2">
<path d="M 0.5625 -4.578125 L 1.359375 -4.578125 L 1.359375 0 L 0.5625 0 Z M 0.5625 -6.3125 L 1.359375 -6.3125 L 1.359375 -5.4375 L 0.5625 -5.4375 Z M 0.5625 -6.3125 "/>
</g>
<g id="glyph-0-3">
<path d="M 2.484375 -4.703125 C 2.804688 -4.703125 3.117188 -4.625 3.421875 -4.46875 C 3.734375 -4.320312 3.96875 -4.125 4.125 -3.875 C 4.28125 -3.644531 4.382812 -3.375 4.4375 -3.0625 C 4.488281 -2.851562 4.515625 -2.515625 4.515625 -2.046875 L 1.140625 -2.046875 C 1.148438 -1.585938 1.257812 -1.210938 1.46875 -0.921875 C 1.675781 -0.640625 1.992188 -0.5 2.421875 -0.5 C 2.828125 -0.5 3.148438 -0.632812 3.390625 -0.90625 C 3.523438 -1.0625 3.625 -1.238281 3.6875 -1.4375 L 4.453125 -1.4375 C 4.429688 -1.269531 4.363281 -1.082031 4.25 -0.875 C 4.132812 -0.664062 4.003906 -0.5 3.859375 -0.375 C 3.628906 -0.144531 3.34375 0.0078125 3 0.09375 C 2.8125 0.132812 2.597656 0.15625 2.359375 0.15625 C 1.785156 0.15625 1.300781 -0.0507812 0.90625 -0.46875 C 0.507812 -0.882812 0.3125 -1.46875 0.3125 -2.21875 C 0.3125 -2.945312 0.507812 -3.539062 0.90625 -4 C 1.3125 -4.46875 1.835938 -4.703125 2.484375 -4.703125 Z M 3.71875 -2.671875 C 3.6875 -3.003906 3.613281 -3.269531 3.5 -3.46875 C 3.28125 -3.84375 2.925781 -4.03125 2.4375 -4.03125 C 2.082031 -4.03125 1.785156 -3.898438 1.546875 -3.640625 C 1.304688 -3.390625 1.175781 -3.066406 1.15625 -2.671875 Z M 2.40625 -4.71875 Z M 2.40625 -4.71875 "/>
</g>
<g id="glyph-0-4">
<path d="M 0.71875 -5.890625 L 1.5 -5.890625 L 1.5 -4.59375 L 2.234375 -4.59375 L 2.234375 -3.96875 L 1.5 -3.96875 L 1.5 -0.96875 C 1.5 -0.800781 1.554688 -0.691406 1.671875 -0.640625 C 1.722656 -0.609375 1.820312 -0.59375 1.96875 -0.59375 C 2 -0.59375 2.035156 -0.59375 2.078125 -0.59375 C 2.128906 -0.59375 2.179688 -0.597656 2.234375 -0.609375 L 2.234375 0 C 2.148438 0.0195312 2.054688 0.0351562 1.953125 0.046875 C 1.859375 0.0664062 1.757812 0.078125 1.65625 0.078125 C 1.289062 0.078125 1.039062 -0.015625 0.90625 -0.203125 C 0.78125 -0.390625 0.71875 -0.628906 0.71875 -0.921875 L 0.71875 -3.96875 L 0.09375 -3.96875 L 0.09375 -4.59375 L 0.71875 -4.59375 Z M 0.71875 -5.890625 "/>
</g>
<g id="glyph-0-5">
<path d="M 0.96875 -4.546875 L 1.875 -4.546875 L 1.875 -3.609375 L 0.96875 -3.609375 Z M 0.96875 -0.9375 L 1.875 -0.9375 L 1.875 0 L 0.96875 0 Z M 0.96875 -0.9375 "/>
</g>
<g id="glyph-0-6">
</g>
<g id="glyph-0-7">
<path d="M 2.28125 0.171875 C 1.550781 0.171875 1.019531 -0.0234375 0.6875 -0.421875 C 0.363281 -0.828125 0.203125 -1.316406 0.203125 -1.890625 L 1.015625 -1.890625 C 1.046875 -1.492188 1.117188 -1.203125 1.234375 -1.015625 C 1.441406 -0.691406 1.804688 -0.53125 2.328125 -0.53125 C 2.734375 -0.53125 3.054688 -0.640625 3.296875 -0.859375 C 3.546875 -1.078125 3.671875 -1.359375 3.671875 -1.703125 C 3.671875 -2.128906 3.539062 -2.425781 3.28125 -2.59375 C 3.03125 -2.757812 2.671875 -2.84375 2.203125 -2.84375 C 2.148438 -2.84375 2.097656 -2.84375 2.046875 -2.84375 C 1.992188 -2.84375 1.941406 -2.84375 1.890625 -2.84375 L 1.890625 -3.515625 C 1.972656 -3.515625 2.039062 -3.507812 2.09375 -3.5 C 2.144531 -3.5 2.203125 -3.5 2.265625 -3.5 C 2.554688 -3.5 2.796875 -3.546875 2.984375 -3.640625 C 3.304688 -3.796875 3.46875 -4.082031 3.46875 -4.5 C 3.46875 -4.800781 3.359375 -5.035156 3.140625 -5.203125 C 2.921875 -5.367188 2.671875 -5.453125 2.390625 -5.453125 C 1.867188 -5.453125 1.507812 -5.28125 1.3125 -4.9375 C 1.207031 -4.75 1.144531 -4.476562 1.125 -4.125 L 0.359375 -4.125 C 0.359375 -4.582031 0.453125 -4.972656 0.640625 -5.296875 C 0.953125 -5.867188 1.503906 -6.15625 2.296875 -6.15625 C 2.929688 -6.15625 3.421875 -6.015625 3.765625 -5.734375 C 4.109375 -5.460938 4.28125 -5.0625 4.28125 -4.53125 C 4.28125 -4.144531 4.175781 -3.835938 3.96875 -3.609375 C 3.84375 -3.460938 3.679688 -3.347656 3.484375 -3.265625 C 3.804688 -3.171875 4.054688 -3 4.234375 -2.75 C 4.421875 -2.5 4.515625 -2.191406 4.515625 -1.828125 C 4.515625 -1.234375 4.316406 -0.75 3.921875 -0.375 C 3.535156 -0.0078125 2.988281 0.171875 2.28125 0.171875 Z M 2.28125 0.171875 "/>
</g>
<g id="glyph-0-8">
<path d="M 2.90625 -2.171875 L 2.90625 -4.96875 L 0.9375 -2.171875 Z M 2.921875 0 L 2.921875 -1.5 L 0.21875 -1.5 L 0.21875 -2.265625 L 3.046875 -6.171875 L 3.6875 -6.171875 L 3.6875 -2.171875 L 4.59375 -2.171875 L 4.59375 -1.5 L 3.6875 -1.5 L 3.6875 0 Z M 2.921875 0 "/>
</g>
<g id="glyph-0-9">
<path d="M 0.84375 -4.359375 L 0.84375 -4.953125 C 1.394531 -5.003906 1.78125 -5.09375 2 -5.21875 C 2.226562 -5.34375 2.394531 -5.644531 2.5 -6.125 L 3.109375 -6.125 L 3.109375 0 L 2.296875 0 L 2.296875 -4.359375 Z M 0.84375 -4.359375 "/>
</g>
<g id="glyph-0-10">
<path d="M 0.28125 0 C 0.300781 -0.53125 0.40625 -0.988281 0.59375 -1.375 C 0.789062 -1.769531 1.164062 -2.128906 1.71875 -2.453125 L 2.546875 -2.921875 C 2.910156 -3.140625 3.164062 -3.328125 3.3125 -3.484375 C 3.550781 -3.710938 3.671875 -3.984375 3.671875 -4.296875 C 3.671875 -4.648438 3.5625 -4.929688 3.34375 -5.140625 C 3.132812 -5.359375 2.847656 -5.46875 2.484375 -5.46875 C 1.960938 -5.46875 1.597656 -5.265625 1.390625 -4.859375 C 1.285156 -4.648438 1.226562 -4.351562 1.21875 -3.96875 L 0.421875 -3.96875 C 0.429688 -4.5 0.53125 -4.9375 0.71875 -5.28125 C 1.050781 -5.875 1.644531 -6.171875 2.5 -6.171875 C 3.195312 -6.171875 3.707031 -5.976562 4.03125 -5.59375 C 4.363281 -5.21875 4.53125 -4.796875 4.53125 -4.328125 C 4.53125 -3.835938 4.351562 -3.414062 4 -3.0625 C 3.800781 -2.863281 3.441406 -2.617188 2.921875 -2.328125 L 2.34375 -2 C 2.0625 -1.84375 1.835938 -1.695312 1.671875 -1.5625 C 1.390625 -1.3125 1.210938 -1.035156 1.140625 -0.734375 L 4.5 -0.734375 L 4.5 0 Z M 0.28125 0 "/>
</g>
<g id="glyph-0-11">
<path d="M 2.375 -6.15625 C 3.175781 -6.15625 3.753906 -5.828125 4.109375 -5.171875 C 4.378906 -4.660156 4.515625 -3.960938 4.515625 -3.078125 C 4.515625 -2.242188 4.390625 -1.554688 4.140625 -1.015625 C 3.785156 -0.222656 3.195312 0.171875 2.375 0.171875 C 1.632812 0.171875 1.082031 -0.148438 0.71875 -0.796875 C 0.425781 -1.328125 0.28125 -2.046875 0.28125 -2.953125 C 0.28125 -3.648438 0.367188 -4.25 0.546875 -4.75 C 0.878906 -5.6875 1.488281 -6.15625 2.375 -6.15625 Z M 2.375 -0.53125 C 2.769531 -0.53125 3.085938 -0.707031 3.328125 -1.0625 C 3.566406 -1.425781 3.6875 -2.085938 3.6875 -3.046875 C 3.6875 -3.753906 3.597656 -4.332031 3.421875 -4.78125 C 3.253906 -5.226562 2.921875 -5.453125 2.421875 -5.453125 C 1.972656 -5.453125 1.640625 -5.238281 1.421875 -4.8125 C 1.210938 -4.382812 1.109375 -3.753906 1.109375 -2.921875 C 1.109375 -2.296875 1.175781 -1.789062 1.3125 -1.40625 C 1.519531 -0.820312 1.875 -0.53125 2.375 -0.53125 Z M 2.375 -0.53125 "/>
</g>
<g id="glyph-0-12">
<path d="M 1.09375 -1.5625 C 1.132812 -1.125 1.335938 -0.820312 1.703125 -0.65625 C 1.878906 -0.570312 2.09375 -0.53125 2.34375 -0.53125 C 2.800781 -0.53125 3.140625 -0.675781 3.359375 -0.96875 C 3.578125 -1.257812 3.6875 -1.582031 3.6875 -1.9375 C 3.6875 -2.363281 3.554688 -2.691406 3.296875 -2.921875 C 3.035156 -3.160156 2.71875 -3.28125 2.34375 -3.28125 C 2.082031 -3.28125 1.851562 -3.226562 1.65625 -3.125 C 1.46875 -3.019531 1.304688 -2.878906 1.171875 -2.703125 L 0.5 -2.734375 L 0.96875 -6.046875 L 4.171875 -6.046875 L 4.171875 -5.296875 L 1.5625 -5.296875 L 1.296875 -3.59375 C 1.429688 -3.695312 1.566406 -3.773438 1.703125 -3.828125 C 1.929688 -3.929688 2.195312 -3.984375 2.5 -3.984375 C 3.0625 -3.984375 3.535156 -3.800781 3.921875 -3.4375 C 4.316406 -3.070312 4.515625 -2.609375 4.515625 -2.046875 C 4.515625 -1.460938 4.332031 -0.945312 3.96875 -0.5 C 3.613281 -0.0625 3.046875 0.15625 2.265625 0.15625 C 1.753906 0.15625 1.304688 0.0117188 0.921875 -0.265625 C 0.546875 -0.546875 0.332031 -0.976562 0.28125 -1.5625 Z M 1.09375 -1.5625 "/>
</g>
<g id="glyph-1-0">
<path d="M 0.359375 0 L 0.359375 -7.890625 L 6.625 -7.890625 L 6.625 0 Z M 5.625 -0.984375 L 5.625 -6.90625 L 1.34375 -6.90625 L 1.34375 -0.984375 Z M 5.625 -0.984375 "/>
</g>
<g id="glyph-1-1">
<path d="M 6.578125 -7.890625 L 6.578125 -6.953125 L 3.921875 -6.953125 L 3.921875 0 L 2.84375 0 L 2.84375 -6.953125 L 0.171875 -6.953125 L 0.171875 -7.890625 Z M 6.578125 -7.890625 "/>
</g>
<g id="glyph-1-2">
<path d="M 0.703125 -5.71875 L 1.6875 -5.71875 L 1.6875 0 L 0.703125 0 Z M 0.703125 -7.890625 L 1.6875 -7.890625 L 1.6875 -6.796875 L 0.703125 -6.796875 Z M 0.703125 -7.890625 "/>
</g>
<g id="glyph-1-3">
<path d="M 0.703125 -5.75 L 1.671875 -5.75 L 1.671875 -4.9375 C 1.898438 -5.21875 2.101562 -5.421875 2.28125 -5.546875 C 2.601562 -5.765625 2.96875 -5.875 3.375 -5.875 C 3.832031 -5.875 4.203125 -5.765625 4.484375 -5.546875 C 4.640625 -5.410156 4.78125 -5.21875 4.90625 -4.96875 C 5.125 -5.28125 5.378906 -5.507812 5.671875 -5.65625 C 5.960938 -5.800781 6.285156 -5.875 6.640625 -5.875 C 7.410156 -5.875 7.9375 -5.597656 8.21875 -5.046875 C 8.375 -4.742188 8.453125 -4.335938 8.453125 -3.828125 L 8.453125 0 L 7.4375 0 L 7.4375 -4 C 7.4375 -4.382812 7.34375 -4.644531 7.15625 -4.78125 C 6.96875 -4.925781 6.734375 -5 6.453125 -5 C 6.078125 -5 5.75 -4.867188 5.46875 -4.609375 C 5.195312 -4.359375 5.0625 -3.9375 5.0625 -3.34375 L 5.0625 0 L 4.078125 0 L 4.078125 -3.75 C 4.078125 -4.144531 4.03125 -4.429688 3.9375 -4.609375 C 3.789062 -4.878906 3.519531 -5.015625 3.125 -5.015625 C 2.757812 -5.015625 2.425781 -4.867188 2.125 -4.578125 C 1.820312 -4.296875 1.671875 -3.785156 1.671875 -3.046875 L 1.671875 0 L 0.703125 0 Z M 0.703125 -5.75 "/>
</g>
<g id="glyph-1-4">
<path d="M 3.109375 -5.875 C 3.515625 -5.875 3.90625 -5.78125 4.28125 -5.59375 C 4.664062 -5.40625 4.960938 -5.15625 5.171875 -4.84375 C 5.359375 -4.5625 5.484375 -4.222656 5.546875 -3.828125 C 5.609375 -3.566406 5.640625 -3.144531 5.640625 -2.5625 L 1.421875 -2.5625 C 1.441406 -1.976562 1.578125 -1.507812 1.828125 -1.15625 C 2.085938 -0.8125 2.488281 -0.640625 3.03125 -0.640625 C 3.539062 -0.640625 3.945312 -0.804688 4.25 -1.140625 C 4.414062 -1.328125 4.535156 -1.550781 4.609375 -1.8125 L 5.5625 -1.8125 C 5.53125 -1.59375 5.441406 -1.351562 5.296875 -1.09375 C 5.160156 -0.832031 5.003906 -0.625 4.828125 -0.46875 C 4.535156 -0.175781 4.175781 0.0195312 3.75 0.125 C 3.507812 0.175781 3.242188 0.203125 2.953125 0.203125 C 2.234375 0.203125 1.625 -0.0546875 1.125 -0.578125 C 0.632812 -1.097656 0.390625 -1.828125 0.390625 -2.765625 C 0.390625 -3.691406 0.640625 -4.441406 1.140625 -5.015625 C 1.640625 -5.585938 2.296875 -5.875 3.109375 -5.875 Z M 4.640625 -3.328125 C 4.609375 -3.753906 4.519531 -4.09375 4.375 -4.34375 C 4.101562 -4.800781 3.660156 -5.03125 3.046875 -5.03125 C 2.597656 -5.03125 2.222656 -4.867188 1.921875 -4.546875 C 1.628906 -4.234375 1.472656 -3.828125 1.453125 -3.328125 Z M 3.015625 -5.890625 Z M 3.015625 -5.890625 "/>
</g>
<g id="glyph-2-0">
<path d="M 0 -0.359375 L -7.890625 -0.359375 L -7.890625 -6.625 L 0 -6.625 Z M -0.984375 -5.625 L -6.90625 -5.625 L -6.90625 -1.34375 L -0.984375 -1.34375 Z M -0.984375 -5.625 "/>
</g>
<g id="glyph-2-1">
<path d="M -5.75 -1.15625 L -1.21875 -2.265625 L -5.75 -3.390625 L -5.75 -4.46875 L -1.25 -5.59375 L -5.75 -6.765625 L -5.75 -7.734375 L 0 -6.0625 L 0 -5.0625 L -4.453125 -3.890625 L 0 -2.765625 L 0 -1.75 L -5.75 -0.09375 Z M -5.75 -1.15625 "/>
</g>
<g id="glyph-2-2">
<path d="M -5.875 -3.109375 C -5.875 -3.515625 -5.78125 -3.90625 -5.59375 -4.28125 C -5.40625 -4.664062 -5.15625 -4.960938 -4.84375 -5.171875 C -4.5625 -5.359375 -4.222656 -5.484375 -3.828125 -5.546875 C -3.566406 -5.609375 -3.144531 -5.640625 -2.5625 -5.640625 L -2.5625 -1.421875 C -1.976562 -1.441406 -1.507812 -1.578125 -1.15625 -1.828125 C -0.8125 -2.085938 -0.640625 -2.488281 -0.640625 -3.03125 C -0.640625 -3.539062 -0.804688 -3.945312 -1.140625 -4.25 C -1.328125 -4.414062 -1.550781 -4.535156 -1.8125 -4.609375 L -1.8125 -5.5625 C -1.59375 -5.53125 -1.351562 -5.441406 -1.09375 -5.296875 C -0.832031 -5.160156 -0.625 -5.003906 -0.46875 -4.828125 C -0.175781 -4.535156 0.0195312 -4.175781 0.125 -3.75 C 0.175781 -3.507812 0.203125 -3.242188 0.203125 -2.953125 C 0.203125 -2.234375 -0.0546875 -1.625 -0.578125 -1.125 C -1.097656 -0.632812 -1.828125 -0.390625 -2.765625 -0.390625 C -3.691406 -0.390625 -4.441406 -0.640625 -5.015625 -1.140625 C -5.585938 -1.640625 -5.875 -2.296875 -5.875 -3.109375 Z M -3.328125 -4.640625 C -3.753906 -4.609375 -4.09375 -4.519531 -4.34375 -4.375 C -4.800781 -4.101562 -5.03125 -3.660156 -5.03125 -3.046875 C -5.03125 -2.597656 -4.867188 -2.222656 -4.546875 -1.921875 C -4.234375 -1.628906 -3.828125 -1.472656 -3.328125 -1.453125 Z M -5.890625 -3.015625 Z M -5.890625 -3.015625 "/>
</g>
<g id="glyph-2-3">
<path d="M -5.71875 -0.703125 L -5.71875 -1.6875 L 0 -1.6875 L 0 -0.703125 Z M -7.890625 -0.703125 L -7.890625 -1.6875 L -6.796875 -1.6875 L -6.796875 -0.703125 Z M -7.890625 -0.703125 "/>
</g>
<g id="glyph-2-4">
<path d="M -5.859375 -2.734375 C -5.859375 -3.191406 -5.742188 -3.585938 -5.515625 -3.921875 C -5.390625 -4.097656 -5.207031 -4.285156 -4.96875 -4.484375 L -5.703125 -4.484375 L -5.703125 -5.375 L -0.46875 -5.375 C 0.257812 -5.375 0.835938 -5.265625 1.265625 -5.046875 C 2.046875 -4.648438 2.4375 -3.894531 2.4375 -2.78125 C 2.4375 -2.15625 2.296875 -1.628906 2.015625 -1.203125 C 1.734375 -0.785156 1.300781 -0.550781 0.71875 -0.5 L 0.71875 -1.484375 C 0.96875 -1.535156 1.164062 -1.628906 1.3125 -1.765625 C 1.53125 -1.984375 1.640625 -2.328125 1.640625 -2.796875 C 1.640625 -3.535156 1.375 -4.019531 0.84375 -4.25 C 0.539062 -4.382812 -0.00390625 -4.445312 -0.796875 -4.4375 C -0.503906 -4.25 -0.285156 -4.015625 -0.140625 -3.734375 C -0.00390625 -3.460938 0.0625 -3.109375 0.0625 -2.671875 C 0.0625 -2.046875 -0.15625 -1.5 -0.59375 -1.03125 C -1.03125 -0.5625 -1.757812 -0.328125 -2.78125 -0.328125 C -3.75 -0.328125 -4.503906 -0.5625 -5.046875 -1.03125 C -5.585938 -1.5 -5.859375 -2.066406 -5.859375 -2.734375 Z M -2.90625 -4.484375 C -3.613281 -4.484375 -4.140625 -4.332031 -4.484375 -4.03125 C -4.828125 -3.738281 -5 -3.367188 -5 -2.921875 C -5 -2.234375 -4.679688 -1.765625 -4.046875 -1.515625 C -3.703125 -1.390625 -3.253906 -1.328125 -2.703125 -1.328125 C -2.054688 -1.328125 -1.5625 -1.457031 -1.21875 -1.71875 C -0.882812 -1.976562 -0.71875 -2.332031 -0.71875 -2.78125 C -0.71875 -3.46875 -1.03125 -3.957031 -1.65625 -4.25 C -2.007812 -4.40625 -2.425781 -4.484375 -2.90625 -4.484375 Z M -5.890625 -2.859375 Z M -5.890625 -2.859375 "/>
</g>
<g id="glyph-2-5">
<path d="M -7.921875 -0.703125 L -7.921875 -1.671875 L -4.96875 -1.671875 C -5.257812 -1.898438 -5.46875 -2.109375 -5.59375 -2.296875 C -5.789062 -2.609375 -5.890625 -2.992188 -5.890625 -3.453125 C -5.890625 -4.285156 -5.597656 -4.851562 -5.015625 -5.15625 C -4.691406 -5.3125 -4.25 -5.390625 -3.6875 -5.390625 L 0 -5.390625 L 0 -4.40625 L -3.625 -4.40625 C -4.050781 -4.40625 -4.363281 -4.351562 -4.5625 -4.25 C -4.875 -4.070312 -5.03125 -3.738281 -5.03125 -3.25 C -5.03125 -2.851562 -4.890625 -2.488281 -4.609375 -2.15625 C -4.335938 -1.832031 -3.816406 -1.671875 -3.046875 -1.671875 L 0 -1.671875 L 0 -0.703125 Z M -7.921875 -0.703125 "/>
</g>
<g id="glyph-2-6">
<path d="M -7.359375 -0.90625 L -7.359375 -1.875 L -5.75 -1.875 L -5.75 -2.796875 L -4.96875 -2.796875 L -4.96875 -1.875 L -1.203125 -1.875 C -1.003906 -1.875 -0.875 -1.941406 -0.8125 -2.078125 C -0.769531 -2.160156 -0.75 -2.285156 -0.75 -2.453125 C -0.75 -2.503906 -0.75 -2.554688 -0.75 -2.609375 C -0.75 -2.660156 -0.753906 -2.722656 -0.765625 -2.796875 L 0 -2.796875 C 0.03125 -2.679688 0.0507812 -2.5625 0.0625 -2.4375 C 0.0820312 -2.320312 0.09375 -2.195312 0.09375 -2.0625 C 0.09375 -1.613281 -0.0195312 -1.304688 -0.25 -1.140625 C -0.488281 -0.984375 -0.789062 -0.90625 -1.15625 -0.90625 L -4.96875 -0.90625 L -4.96875 -0.125 L -5.75 -0.125 L -5.75 -0.90625 Z M -7.359375 -0.90625 "/>
</g>
</g>
<clipPath id="clip-0">
<path clip-rule="nonzero" d="M 39.152344 23.246094 L 397.597656 23.246094 L 397.597656 199.425781 L 39.152344 199.425781 Z M 39.152344 23.246094 "/>
</clipPath>
<clipPath id="clip-1">
<path clip-rule="nonzero" d="M 39.152344 169 L 397.597656 169 L 397.597656 171 L 39.152344 171 Z M 39.152344 169 "/>
</clipPath>
<clipPath id="clip-2">
<path clip-rule="nonzero" d="M 39.152344 126 L 397.597656 126 L 397.597656 128 L 39.152344 128 Z M 39.152344 126 "/>
</clipPath>
<clipPath id="clip-3">
<path clip-rule="nonzero" d="M 39.152344 83 L 397.597656 83 L 397.597656 85 L 39.152344 85 Z M 39.152344 83 "/>
</clipPath>
<clipPath id="clip-4">
<path clip-rule="nonzero" d="M 39.152344 40 L 397.597656 40 L 397.597656 42 L 39.152344 42 Z M 39.152344 40 "/>
</clipPath>
<clipPath id="clip-5">
<path clip-rule="nonzero" d="M 93 23.246094 L 95 23.246094 L 95 199.425781 L 93 199.425781 Z M 93 23.246094 "/>
</clipPath>
<clipPath id="clip-6">
<path clip-rule="nonzero" d="M 171 23.246094 L 173 23.246094 L 173 199.425781 L 171 199.425781 Z M 171 23.246094 "/>
</clipPath>
<clipPath id="clip-7">
<path clip-rule="nonzero" d="M 249 23.246094 L 250 23.246094 L 250 199.425781 L 249 199.425781 Z M 249 23.246094 "/>
</clipPath>
<clipPath id="clip-8">
<path clip-rule="nonzero" d="M 326 23.246094 L 328 23.246094 L 328 199.425781 L 326 199.425781 Z M 326 23.246094 "/>
</clipPath>
<clipPath id="clip-9">
<path clip-rule="nonzero" d="M 39.152344 190 L 397.597656 190 L 397.597656 192 L 39.152344 192 Z M 39.152344 190 "/>
</clipPath>
<clipPath id="clip-10">
<path clip-rule="nonzero" d="M 39.152344 147 L 397.597656 147 L 397.597656 150 L 39.152344 150 Z M 39.152344 147 "/>
</clipPath>
<clipPath id="clip-11">
<path clip-rule="nonzero" d="M 39.152344 105 L 397.597656 105 L 397.597656 107 L 39.152344 107 Z M 39.152344 105 "/>
</clipPath>
<clipPath id="clip-12">
<path clip-rule="nonzero" d="M 39.152344 62 L 397.597656 62 L 397.597656 64 L 39.152344 64 Z M 39.152344 62 "/>
</clipPath>
<clipPath id="clip-13">
<path clip-rule="nonzero" d="M 54 23.246094 L 56 23.246094 L 56 199.425781 L 54 199.425781 Z M 54 23.246094 "/>
</clipPath>
<clipPath id="clip-14">
<path clip-rule="nonzero" d="M 132 23.246094 L 134 23.246094 L 134 199.425781 L 132 199.425781 Z M 132 23.246094 "/>
</clipPath>
<clipPath id="clip-15">
<path clip-rule="nonzero" d="M 210 23.246094 L 212 23.246094 L 212 199.425781 L 210 199.425781 Z M 210 23.246094 "/>
</clipPath>
<clipPath id="clip-16">
<path clip-rule="nonzero" d="M 287 23.246094 L 289 23.246094 L 289 199.425781 L 287 199.425781 Z M 287 23.246094 "/>
</clipPath>
<clipPath id="clip-17">
<path clip-rule="nonzero" d="M 365 23.246094 L 367 23.246094 L 367 199.425781 L 365 199.425781 Z M 365 23.246094 "/>
</clipPath>
<clipPath id="clip-18">
<path clip-rule="nonzero" d="M 39.152344 222.671875 L 397.597656 222.671875 L 397.597656 398.851562 L 39.152344 398.851562 Z M 39.152344 222.671875 "/>
</clipPath>
<clipPath id="clip-19">
<path clip-rule="nonzero" d="M 39.152344 369 L 397.597656 369 L 397.597656 370 L 39.152344 370 Z M 39.152344 369 "/>
</clipPath>
<clipPath id="clip-20">
<path clip-rule="nonzero" d="M 39.152344 326 L 397.597656 326 L 397.597656 327 L 39.152344 327 Z M 39.152344 326 "/>
</clipPath>
<clipPath id="clip-21">
<path clip-rule="nonzero" d="M 39.152344 283 L 397.597656 283 L 397.597656 284 L 39.152344 284 Z M 39.152344 283 "/>
</clipPath>
<clipPath id="clip-22">
<path clip-rule="nonzero" d="M 39.152344 240 L 397.597656 240 L 397.597656 241 L 39.152344 241 Z M 39.152344 240 "/>
</clipPath>
<clipPath id="clip-23">
<path clip-rule="nonzero" d="M 93 222.671875 L 95 222.671875 L 95 398.851562 L 93 398.851562 Z M 93 222.671875 "/>
</clipPath>
<clipPath id="clip-24">
<path clip-rule="nonzero" d="M 171 222.671875 L 173 222.671875 L 173 398.851562 L 171 398.851562 Z M 171 222.671875 "/>
</clipPath>
<clipPath id="clip-25">
<path clip-rule="nonzero" d="M 249 222.671875 L 250 222.671875 L 250 398.851562 L 249 398.851562 Z M 249 222.671875 "/>
</clipPath>
<clipPath id="clip-26">
<path clip-rule="nonzero" d="M 326 222.671875 L 328 222.671875 L 328 398.851562 L 326 398.851562 Z M 326 222.671875 "/>
</clipPath>
<clipPath id="clip-27">
<path clip-rule="nonzero" d="M 39.152344 390 L 397.597656 390 L 397.597656 392 L 39.152344 392 Z M 39.152344 390 "/>
</clipPath>
<clipPath id="clip-28">
<path clip-rule="nonzero" d="M 39.152344 347 L 397.597656 347 L 397.597656 349 L 39.152344 349 Z M 39.152344 347 "/>
</clipPath>
<clipPath id="clip-29">
<path clip-rule="nonzero" d="M 39.152344 304 L 397.597656 304 L 397.597656 306 L 39.152344 306 Z M 39.152344 304 "/>
</clipPath>
<clipPath id="clip-30">
<path clip-rule="nonzero" d="M 39.152344 261 L 397.597656 261 L 397.597656 263 L 39.152344 263 Z M 39.152344 261 "/>
</clipPath>
<clipPath id="clip-31">
<path clip-rule="nonzero" d="M 54 222.671875 L 56 222.671875 L 56 398.851562 L 54 398.851562 Z M 54 222.671875 "/>
</clipPath>
<clipPath id="clip-32">
<path clip-rule="nonzero" d="M 132 222.671875 L 134 222.671875 L 134 398.851562 L 132 398.851562 Z M 132 222.671875 "/>
</clipPath>
<clipPath id="clip-33">
<path clip-rule="nonzero" d="M 210 222.671875 L 212 222.671875 L 212 398.851562 L 210 398.851562 Z M 210 222.671875 "/>
</clipPath>
<clipPath id="clip-34">
<path clip-rule="nonzero" d="M 287 222.671875 L 289 222.671875 L 289 398.851562 L 287 398.851562 Z M 287 222.671875 "/>
</clipPath>
<clipPath id="clip-35">
<path clip-rule="nonzero" d="M 365 222.671875 L 367 222.671875 L 367 398.851562 L 365 398.851562 Z M 365 222.671875 "/>
</clipPath>
<clipPath id="clip-36">
<path clip-rule="nonzero" d="M 403.074219 23.246094 L 761.519531 23.246094 L 761.519531 199.425781 L 403.074219 199.425781 Z M 403.074219 23.246094 "/>
</clipPath>
<clipPath id="clip-37">
<path clip-rule="nonzero" d="M 403.074219 169 L 761.519531 169 L 761.519531 171 L 403.074219 171 Z M 403.074219 169 "/>
</clipPath>
<clipPath id="clip-38">
<path clip-rule="nonzero" d="M 403.074219 126 L 761.519531 126 L 761.519531 128 L 403.074219 128 Z M 403.074219 126 "/>
</clipPath>
<clipPath id="clip-39">
<path clip-rule="nonzero" d="M 403.074219 83 L 761.519531 83 L 761.519531 85 L 403.074219 85 Z M 403.074219 83 "/>
</clipPath>
<clipPath id="clip-40">
<path clip-rule="nonzero" d="M 403.074219 40 L 761.519531 40 L 761.519531 42 L 403.074219 42 Z M 403.074219 40 "/>
</clipPath>
<clipPath id="clip-41">
<path clip-rule="nonzero" d="M 457 23.246094 L 459 23.246094 L 459 199.425781 L 457 199.425781 Z M 457 23.246094 "/>
</clipPath>
<clipPath id="clip-42">
<path clip-rule="nonzero" d="M 535 23.246094 L 537 23.246094 L 537 199.425781 L 535 199.425781 Z M 535 23.246094 "/>
</clipPath>
<clipPath id="clip-43">
<path clip-rule="nonzero" d="M 613 23.246094 L 614 23.246094 L 614 199.425781 L 613 199.425781 Z M 613 23.246094 "/>
</clipPath>
<clipPath id="clip-44">
<path clip-rule="nonzero" d="M 690 23.246094 L 692 23.246094 L 692 199.425781 L 690 199.425781 Z M 690 23.246094 "/>
</clipPath>
<clipPath id="clip-45">
<path clip-rule="nonzero" d="M 403.074219 190 L 761.519531 190 L 761.519531 192 L 403.074219 192 Z M 403.074219 190 "/>
</clipPath>
<clipPath id="clip-46">
<path clip-rule="nonzero" d="M 403.074219 147 L 761.519531 147 L 761.519531 150 L 403.074219 150 Z M 403.074219 147 "/>
</clipPath>
<clipPath id="clip-47">
<path clip-rule="nonzero" d="M 403.074219 105 L 761.519531 105 L 761.519531 107 L 403.074219 107 Z M 403.074219 105 "/>
</clipPath>
<clipPath id="clip-48">
<path clip-rule="nonzero" d="M 403.074219 62 L 761.519531 62 L 761.519531 64 L 403.074219 64 Z M 403.074219 62 "/>
</clipPath>
<clipPath id="clip-49">
<path clip-rule="nonzero" d="M 418 23.246094 L 420 23.246094 L 420 199.425781 L 418 199.425781 Z M 418 23.246094 "/>
</clipPath>
<clipPath id="clip-50">
<path clip-rule="nonzero" d="M 496 23.246094 L 498 23.246094 L 498 199.425781 L 496 199.425781 Z M 496 23.246094 "/>
</clipPath>
<clipPath id="clip-51">
<path clip-rule="nonzero" d="M 574 23.246094 L 576 23.246094 L 576 199.425781 L 574 199.425781 Z M 574 23.246094 "/>
</clipPath>
<clipPath id="clip-52">
<path clip-rule="nonzero" d="M 651 23.246094 L 653 23.246094 L 653 199.425781 L 651 199.425781 Z M 651 23.246094 "/>
</clipPath>
<clipPath id="clip-53">
<path clip-rule="nonzero" d="M 729 23.246094 L 731 23.246094 L 731 199.425781 L 729 199.425781 Z M 729 23.246094 "/>
</clipPath>
<clipPath id="clip-54">
<path clip-rule="nonzero" d="M 403.074219 222.671875 L 761.519531 222.671875 L 761.519531 398.851562 L 403.074219 398.851562 Z M 403.074219 222.671875 "/>
</clipPath>
<clipPath id="clip-55">
<path clip-rule="nonzero" d="M 403.074219 369 L 761.519531 369 L 761.519531 370 L 403.074219 370 Z M 403.074219 369 "/>
</clipPath>
<clipPath id="clip-56">
<path clip-rule="nonzero" d="M 403.074219 326 L 761.519531 326 L 761.519531 327 L 403.074219 327 Z M 403.074219 326 "/>
</clipPath>
<clipPath id="clip-57">
<path clip-rule="nonzero" d="M 403.074219 283 L 761.519531 283 L 761.519531 284 L 403.074219 284 Z M 403.074219 283 "/>
</clipPath>
<clipPath id="clip-58">
<path clip-rule="nonzero" d="M 403.074219 240 L 761.519531 240 L 761.519531 241 L 403.074219 241 Z M 403.074219 240 "/>
</clipPath>
<clipPath id="clip-59">
<path clip-rule="nonzero" d="M 457 222.671875 L 459 222.671875 L 459 398.851562 L 457 398.851562 Z M 457 222.671875 "/>
</clipPath>
<clipPath id="clip-60">
<path clip-rule="nonzero" d="M 535 222.671875 L 537 222.671875 L 537 398.851562 L 535 398.851562 Z M 535 222.671875 "/>
</clipPath>
<clipPath id="clip-61">
<path clip-rule="nonzero" d="M 613 222.671875 L 614 222.671875 L 614 398.851562 L 613 398.851562 Z M 613 222.671875 "/>
</clipPath>
<clipPath id="clip-62">
<path clip-rule="nonzero" d="M 690 222.671875 L 692 222.671875 L 692 398.851562 L 690 398.851562 Z M 690 222.671875 "/>
</clipPath>
<clipPath id="clip-63">
<path clip-rule="nonzero" d="M 403.074219 390 L 761.519531 390 L 761.519531 392 L 403.074219 392 Z M 403.074219 390 "/>
</clipPath>
<clipPath id="clip-64">
<path clip-rule="nonzero" d="M 403.074219 347 L 761.519531 347 L 761.519531 349 L 403.074219 349 Z M 403.074219 347 "/>
</clipPath>
<clipPath id="clip-65">
<path clip-rule="nonzero" d="M 403.074219 304 L 761.519531 304 L 761.519531 306 L 403.074219 306 Z M 403.074219 304 "/>
</clipPath>
<clipPath id="clip-66">
<path clip-rule="nonzero" d="M 403.074219 261 L 761.519531 261 L 761.519531 263 L 403.074219 263 Z M 403.074219 261 "/>
</clipPath>
<clipPath id="clip-67">
<path clip-rule="nonzero" d="M 418 222.671875 L 420 222.671875 L 420 398.851562 L 418 398.851562 Z M 418 222.671875 "/>
</clipPath>
<clipPath id="clip-68">
<path clip-rule="nonzero" d="M 496 222.671875 L 498 222.671875 L 498 398.851562 L 496 398.851562 Z M 496 222.671875 "/>
</clipPath>
<clipPath id="clip-69">
<path clip-rule="nonzero" d="M 574 222.671875 L 576 222.671875 L 576 398.851562 L 574 398.851562 Z M 574 222.671875 "/>
</clipPath>
<clipPath id="clip-70">
<path clip-rule="nonzero" d="M 651 222.671875 L 653 222.671875 L 653 398.851562 L 651 398.851562 Z M 651 222.671875 "/>
</clipPath>
<clipPath id="clip-71">
<path clip-rule="nonzero" d="M 729 222.671875 L 731 222.671875 L 731 398.851562 L 729 398.851562 Z M 729 222.671875 "/>
</clipPath>
<clipPath id="clip-72">
<path clip-rule="nonzero" d="M 39.152344 204.902344 L 397.597656 204.902344 L 397.597656 222.667969 L 39.152344 222.667969 Z M 39.152344 204.902344 "/>
</clipPath>
<clipPath id="clip-73">
<path clip-rule="nonzero" d="M 403.074219 204.902344 L 761.519531 204.902344 L 761.519531 222.667969 L 403.074219 222.667969 Z M 403.074219 204.902344 "/>
</clipPath>
<clipPath id="clip-74">
<path clip-rule="nonzero" d="M 39.152344 5.480469 L 397.597656 5.480469 L 397.597656 23.246094 L 39.152344 23.246094 Z M 39.152344 5.480469 "/>
</clipPath>
<clipPath id="clip-75">
<path clip-rule="nonzero" d="M 403.074219 5.480469 L 761.519531 5.480469 L 761.519531 23.246094 L 403.074219 23.246094 Z M 403.074219 5.480469 "/>
</clipPath>
</defs>
<rect x="-76.7" y="-43.2" width="920.4" height="518.4" fill="rgb(100%, 100%, 100%)" fill-opacity="1"/>
<rect x="-76.7" y="-43.2" width="920.4" height="518.4" fill="rgb(100%, 100%, 100%)" fill-opacity="1"/>
<path fill="none" stroke-width="1.066978" stroke-linecap="round" stroke-linejoin="round" stroke="rgb(100%, 100%, 100%)" stroke-opacity="1" stroke-miterlimit="10" d="M 0 432 L 767 432 L 767 0 L 0 0 Z M 0 432 "/>
<g clip-path="url(#clip-0)">
<path fill-rule="nonzero" fill="rgb(92.156863%, 92.156863%, 92.156863%)" fill-opacity="1" d="M 39.152344 199.425781 L 397.597656 199.425781 L 397.597656 23.246094 L 39.152344 23.246094 Z M 39.152344 199.425781 "/>
</g>
<g clip-path="url(#clip-1)">
<path fill="none" stroke-width="0.533489" stroke-linecap="butt" stroke-linejoin="round" stroke="rgb(100%, 100%, 100%)" stroke-opacity="1" stroke-miterlimit="10" d="M 39.152344 169.945312 L 397.597656 169.945312 "/>
</g>
<g clip-path="url(#clip-2)">
<path fill="none" stroke-width="0.533489" stroke-linecap="butt" stroke-linejoin="round" stroke="rgb(100%, 100%, 100%)" stroke-opacity="1" stroke-miterlimit="10" d="M 39.152344 127.007812 L 397.597656 127.007812 "/>
</g>
<g clip-path="url(#clip-3)">
<path fill="none" stroke-width="0.533489" stroke-linecap="butt" stroke-linejoin="round" stroke="rgb(100%, 100%, 100%)" stroke-opacity="1" stroke-miterlimit="10" d="M 39.152344 84.070312 L 397.597656 84.070312 "/>
</g>
<g clip-path="url(#clip-4)">
<path fill="none" stroke-width="0.533489" stroke-linecap="butt" stroke-linejoin="round" stroke="rgb(100%, 100%, 100%)" stroke-opacity="1" stroke-miterlimit="10" d="M 39.152344 41.128906 L 397.597656 41.128906 "/>
</g>
<g clip-path="url(#clip-5)">
<path fill="none" stroke-width="0.533489" stroke-linecap="butt" stroke-linejoin="round" stroke="rgb(100%, 100%, 100%)" stroke-opacity="1" stroke-miterlimit="10" d="M 94.238281 199.425781 L 94.238281 23.246094 "/>
</g>
<g clip-path="url(#clip-6)">
<path fill="none" stroke-width="0.533489" stroke-linecap="butt" stroke-linejoin="round" stroke="rgb(100%, 100%, 100%)" stroke-opacity="1" stroke-miterlimit="10" d="M 171.820312 199.425781 L 171.820312 23.246094 "/>
</g>
<g clip-path="url(#clip-7)">
<path fill="none" stroke-width="0.533489" stroke-linecap="butt" stroke-linejoin="round" stroke="rgb(100%, 100%, 100%)" stroke-opacity="1" stroke-miterlimit="10" d="M 249.40625 199.425781 L 249.40625 23.246094 "/>
</g>
<g clip-path="url(#clip-8)">
<path fill="none" stroke-width="0.533489" stroke-linecap="butt" stroke-linejoin="round" stroke="rgb(100%, 100%, 100%)" stroke-opacity="1" stroke-miterlimit="10" d="M 326.992188 199.425781 L 326.992188 23.246094 "/>
</g>
<g clip-path="url(#clip-9)">
<path fill="none" stroke-width="1.066978" stroke-linecap="butt" stroke-linejoin="round" stroke="rgb(100%, 100%, 100%)" stroke-opacity="1" stroke-miterlimit="10" d="M 39.152344 191.417969 L 397.597656 191.417969 "/>
</g>
<g clip-path="url(#clip-10)">
<path fill="none" stroke-width="1.066978" stroke-linecap="butt" stroke-linejoin="round" stroke="rgb(100%, 100%, 100%)" stroke-opacity="1" stroke-miterlimit="10" d="M 39.152344 148.476562 L 397.597656 148.476562 "/>
</g>
<g clip-path="url(#clip-11)">
<path fill="none" stroke-width="1.066978" stroke-linecap="butt" stroke-linejoin="round" stroke="rgb(100%, 100%, 100%)" stroke-opacity="1" stroke-miterlimit="10" d="M 39.152344 105.539062 L 397.597656 105.539062 "/>
</g>
<g clip-path="url(#clip-12)">
<path fill="none" stroke-width="1.066978" stroke-linecap="butt" stroke-linejoin="round" stroke="rgb(100%, 100%, 100%)" stroke-opacity="1" stroke-miterlimit="10" d="M 39.152344 62.601562 L 397.597656 62.601562 "/>
</g>
<g clip-path="url(#clip-13)">
<path fill="none" stroke-width="1.066978" stroke-linecap="butt" stroke-linejoin="round" stroke="rgb(100%, 100%, 100%)" stroke-opacity="1" stroke-miterlimit="10" d="M 55.445312 199.425781 L 55.445312 23.246094 "/>
</g>
<g clip-path="url(#clip-14)">
<path fill="none" stroke-width="1.066978" stroke-linecap="butt" stroke-linejoin="round" stroke="rgb(100%, 100%, 100%)" stroke-opacity="1" stroke-miterlimit="10" d="M 133.027344 199.425781 L 133.027344 23.246094 "/>
</g>
<g clip-path="url(#clip-15)">
<path fill="none" stroke-width="1.066978" stroke-linecap="butt" stroke-linejoin="round" stroke="rgb(100%, 100%, 100%)" stroke-opacity="1" stroke-miterlimit="10" d="M 210.613281 199.425781 L 210.613281 23.246094 "/>
</g>
<g clip-path="url(#clip-16)">
<path fill="none" stroke-width="1.066978" stroke-linecap="butt" stroke-linejoin="round" stroke="rgb(100%, 100%, 100%)" stroke-opacity="1" stroke-miterlimit="10" d="M 288.199219 199.425781 L 288.199219 23.246094 "/>
</g>
<g clip-path="url(#clip-17)">
<path fill="none" stroke-width="1.066978" stroke-linecap="butt" stroke-linejoin="round" stroke="rgb(100%, 100%, 100%)" stroke-opacity="1" stroke-miterlimit="10" d="M 365.785156 199.425781 L 365.785156 23.246094 "/>
</g>
<path fill="none" stroke-width="1.066978" stroke-linecap="butt" stroke-linejoin="round" stroke="rgb(0%, 0%, 0%)" stroke-opacity="0.698039" stroke-miterlimit="10" d="M 55.445312 174.671875 L 86.476562 176.386719 "/>
<path fill="none" stroke-width="1.066978" stroke-linecap="butt" stroke-linejoin="round" stroke="rgb(0%, 0%, 0%)" stroke-opacity="0.698039" stroke-miterlimit="10" d="M 55.445312 173.8125 L 86.476562 172.09375 L 117.511719 170.375 L 148.546875 169.519531 L 179.582031 166.941406 L 210.613281 169.519531 L 241.648438 168.230469 "/>
<path fill="none" stroke-width="1.066978" stroke-linecap="butt" stroke-linejoin="round" stroke="rgb(0%, 0%, 0%)" stroke-opacity="0.698039" stroke-miterlimit="10" d="M 55.445312 173.8125 L 86.476562 170.375 L 117.511719 167.371094 L 148.546875 163.9375 L 179.582031 162.21875 L 210.613281 162.21875 L 241.648438 162.648438 L 272.683594 162.21875 "/>
<path fill="none" stroke-width="1.066978" stroke-linecap="butt" stroke-linejoin="round" stroke="rgb(0%, 0%, 0%)" stroke-opacity="0.698039" stroke-miterlimit="10" d="M 55.445312 173.8125 L 86.476562 170.804688 L 117.511719 168.660156 L 148.546875 165.652344 L 179.582031 163.507812 L 210.613281 162.648438 L 241.648438 160.929688 L 272.683594 161.359375 L 303.71875 160.929688 L 334.75 156.636719 L 365.785156 152.34375 L 381.304688 150.195312 "/>
<path fill="none" stroke-width="1.066978" stroke-linecap="butt" stroke-linejoin="round" stroke="rgb(0%, 0%, 0%)" stroke-opacity="0.698039" stroke-miterlimit="10" d="M 55.445312 173.382812 L 86.476562 169.519531 L 117.511719 166.082031 L 148.546875 162.21875 L 179.582031 154.917969 L 210.613281 150.195312 L 241.648438 152.773438 L 272.683594 151.914062 L 303.71875 151.484375 L 334.75 148.476562 L 365.785156 148.476562 L 381.304688 149.335938 "/>
<path fill="none" stroke-width="1.066978" stroke-linecap="butt" stroke-linejoin="round" stroke="rgb(0%, 0%, 0%)" stroke-opacity="0.698039" stroke-miterlimit="10" d="M 55.445312 173.8125 L 86.476562 171.234375 L 117.511719 168.230469 L 148.546875 166.511719 L 179.582031 163.507812 L 210.613281 160.070312 L 241.648438 158.355469 L 272.683594 153.199219 L 303.71875 149.335938 L 334.75 145.472656 L 365.785156 142.035156 L 381.304688 141.179688 "/>
<path fill="none" stroke-width="1.066978" stroke-linecap="butt" stroke-linejoin="round" stroke="rgb(0%, 0%, 0%)" stroke-opacity="0.698039" stroke-miterlimit="10" d="M 55.445312 173.8125 L 86.476562 172.523438 L 117.511719 169.089844 L 148.546875 164.363281 L 179.582031 159.640625 L 210.613281 156.636719 L 241.648438 153.199219 L 272.683594 150.195312 L 303.71875 148.046875 L 334.75 143.324219 L 365.785156 139.890625 L 381.304688 138.171875 "/>
<path fill="none" stroke-width="1.066978" stroke-linecap="butt" stroke-linejoin="round" stroke="rgb(0%, 0%, 0%)" stroke-opacity="0.698039" stroke-miterlimit="10" d="M 55.445312 173.382812 L 86.476562 169.945312 L 117.511719 165.222656 L 148.546875 160.929688 L 179.582031 155.347656 L 210.613281 151.484375 L 241.648438 144.183594 L 272.683594 141.609375 L 303.71875 137.3125 L 334.75 133.878906 L 365.785156 137.742188 "/>
<path fill="none" stroke-width="1.066978" stroke-linecap="butt" stroke-linejoin="round" stroke="rgb(0%, 0%, 0%)" stroke-opacity="0.698039" stroke-miterlimit="10" d="M 55.445312 173.382812 L 86.476562 169.519531 L 117.511719 165.222656 L 179.582031 155.777344 L 210.613281 153.199219 L 241.648438 149.335938 L 272.683594 147.191406 L 303.71875 142.894531 L 334.75 138.601562 L 365.785156 134.308594 L 381.304688 130.445312 "/>
<path fill="none" stroke-width="1.066978" stroke-linecap="butt" stroke-linejoin="round" stroke="rgb(0%, 0%, 0%)" stroke-opacity="0.698039" stroke-miterlimit="10" d="M 55.445312 172.953125 L 86.476562 170.804688 L 117.511719 167.800781 L 148.546875 164.792969 L 179.582031 163.507812 L 210.613281 160.929688 L 241.648438 156.207031 L 272.683594 153.628906 L 303.71875 145.902344 L 334.75 139.890625 L 365.785156 129.585938 L 381.304688 124.003906 "/>
<path fill="none" stroke-width="1.066978" stroke-linecap="butt" stroke-linejoin="round" stroke="rgb(0%, 0%, 0%)" stroke-opacity="0.698039" stroke-miterlimit="10" d="M 55.445312 173.382812 L 86.476562 170.375 L 117.511719 167.371094 L 148.546875 162.648438 L 179.582031 159.640625 L 210.613281 154.058594 L 241.648438 147.617188 L 272.683594 145.042969 L 303.71875 133.019531 L 334.75 125.289062 L 365.785156 122.714844 L 381.304688 124.003906 "/>
<path fill="none" stroke-width="1.066978" stroke-linecap="butt" stroke-linejoin="round" stroke="rgb(0%, 0%, 0%)" stroke-opacity="0.698039" stroke-miterlimit="10" d="M 55.445312 173.8125 L 86.476562 170.375 L 117.511719 166.082031 L 148.546875 159.640625 L 179.582031 149.765625 L 210.613281 138.171875 L 241.648438 130.871094 L 303.71875 124.863281 L 334.75 122.714844 L 365.785156 122.714844 L 381.304688 124.003906 "/>
<path fill="none" stroke-width="1.066978" stroke-linecap="butt" stroke-linejoin="round" stroke="rgb(0%, 0%, 0%)" stroke-opacity="0.698039" stroke-miterlimit="10" d="M 55.445312 172.953125 L 86.476562 169.519531 L 117.511719 164.363281 L 148.546875 155.347656 L 179.582031 143.324219 L 210.613281 131.730469 L 241.648438 119.28125 L 272.683594 115.414062 L 303.71875 113.269531 L 334.75 112.410156 L 365.785156 113.695312 L 381.304688 116.273438 "/>
<path fill="none" stroke-width="1.066978" stroke-linecap="butt" stroke-linejoin="round" stroke="rgb(0%, 0%, 0%)" stroke-opacity="0.698039" stroke-miterlimit="10" d="M 55.445312 172.953125 L 86.476562 174.671875 L 117.511719 167.800781 L 148.546875 162.648438 L 179.582031 155.347656 L 210.613281 148.90625 L 241.648438 142.035156 L 272.683594 132.160156 L 303.71875 121.425781 L 334.75 111.121094 L 365.785156 106.398438 L 381.304688 104.679688 "/>
<path fill="none" stroke-width="1.066978" stroke-linecap="butt" stroke-linejoin="round" stroke="rgb(0%, 0%, 0%)" stroke-opacity="0.698039" stroke-miterlimit="10" d="M 55.445312 173.382812 L 86.476562 169.519531 L 117.511719 166.082031 L 148.546875 163.9375 L 179.582031 158.78125 L 210.613281 151.484375 L 241.648438 145.902344 L 272.683594 137.742188 L 303.71875 127.4375 L 334.75 117.992188 L 365.785156 105.96875 L 381.304688 103.390625 "/>
<path fill="none" stroke-width="1.066978" stroke-linecap="butt" stroke-linejoin="round" stroke="rgb(0%, 0%, 0%)" stroke-opacity="0.698039" stroke-miterlimit="10" d="M 55.445312 173.8125 L 86.476562 170.375 L 117.511719 167.371094 L 148.546875 164.792969 L 179.582031 160.5 L 210.613281 153.628906 L 241.648438 140.320312 L 272.683594 133.449219 L 303.71875 121.855469 L 334.75 111.980469 L 365.785156 107.6875 L 381.304688 103.390625 "/>
<path fill="none" stroke-width="1.066978" stroke-linecap="butt" stroke-linejoin="round" stroke="rgb(0%, 0%, 0%)" stroke-opacity="0.698039" stroke-miterlimit="10" d="M 55.445312 174.242188 L 86.476562 170.375 L 117.511719 166.511719 L 148.546875 160.5 L 179.582031 155.347656 L 210.613281 147.191406 L 241.648438 139.03125 L 272.683594 132.160156 L 303.71875 121.855469 L 334.75 111.121094 L 365.785156 101.675781 L 381.304688 99.097656 "/>
<path fill="none" stroke-width="1.066978" stroke-linecap="butt" stroke-linejoin="round" stroke="rgb(0%, 0%, 0%)" stroke-opacity="0.698039" stroke-miterlimit="10" d="M 55.445312 173.8125 L 86.476562 173.382812 L 117.511719 170.804688 L 148.546875 165.652344 L 179.582031 157.496094 L 210.613281 145.902344 L 241.648438 130.871094 L 272.683594 120.996094 L 303.71875 106.828125 L 334.75 105.96875 L 365.785156 96.949219 L 381.304688 95.664062 "/>
<path fill="none" stroke-width="1.066978" stroke-linecap="butt" stroke-linejoin="round" stroke="rgb(0%, 0%, 0%)" stroke-opacity="0.698039" stroke-miterlimit="10" d="M 55.445312 173.8125 L 86.476562 170.375 L 117.511719 164.792969 L 148.546875 157.496094 L 179.582031 148.046875 L 210.613281 136.453125 L 241.648438 120.996094 L 272.683594 108.972656 L 303.71875 93.945312 L 334.75 84.929688 L 365.785156 80.203125 L 381.304688 77.199219 "/>
<path fill="none" stroke-width="1.066978" stroke-linecap="butt" stroke-linejoin="round" stroke="rgb(0%, 0%, 0%)" stroke-opacity="0.698039" stroke-miterlimit="10" d="M 55.445312 173.8125 L 86.476562 170.375 L 117.511719 166.941406 L 148.546875 160.929688 L 179.582031 153.199219 L 210.613281 143.324219 L 241.648438 128.726562 L 272.683594 116.703125 L 303.71875 97.808594 L 334.75 84.070312 L 365.785156 67.753906 L 381.304688 60.453125 "/>
<g clip-path="url(#clip-18)">
<path fill-rule="nonzero" fill="rgb(92.156863%, 92.156863%, 92.156863%)" fill-opacity="1" d="M 39.152344 398.847656 L 397.597656 398.847656 L 397.597656 222.667969 L 39.152344 222.667969 Z M 39.152344 398.847656 "/>
</g>
<g clip-path="url(#clip-19)">
<path fill="none" stroke-width="0.533489" stroke-linecap="butt" stroke-linejoin="round" stroke="rgb(100%, 100%, 100%)" stroke-opacity="1" stroke-miterlimit="10" d="M 39.152344 369.371094 L 397.597656 369.371094 "/>
</g>
<g clip-path="url(#clip-20)">
<path fill="none" stroke-width="0.533489" stroke-linecap="butt" stroke-linejoin="round" stroke="rgb(100%, 100%, 100%)" stroke-opacity="1" stroke-miterlimit="10" d="M 39.152344 326.433594 L 397.597656 326.433594 "/>
</g>
<g clip-path="url(#clip-21)">
<path fill="none" stroke-width="0.533489" stroke-linecap="butt" stroke-linejoin="round" stroke="rgb(100%, 100%, 100%)" stroke-opacity="1" stroke-miterlimit="10" d="M 39.152344 283.492188 L 397.597656 283.492188 "/>
</g>
<g clip-path="url(#clip-22)">
<path fill="none" stroke-width="0.533489" stroke-linecap="butt" stroke-linejoin="round" stroke="rgb(100%, 100%, 100%)" stroke-opacity="1" stroke-miterlimit="10" d="M 39.152344 240.554688 L 397.597656 240.554688 "/>
</g>
<g clip-path="url(#clip-23)">
<path fill="none" stroke-width="0.533489" stroke-linecap="butt" stroke-linejoin="round" stroke="rgb(100%, 100%, 100%)" stroke-opacity="1" stroke-miterlimit="10" d="M 94.238281 398.847656 L 94.238281 222.671875 "/>
</g>
<g clip-path="url(#clip-24)">
<path fill="none" stroke-width="0.533489" stroke-linecap="butt" stroke-linejoin="round" stroke="rgb(100%, 100%, 100%)" stroke-opacity="1" stroke-miterlimit="10" d="M 171.820312 398.847656 L 171.820312 222.671875 "/>
</g>
<g clip-path="url(#clip-25)">
<path fill="none" stroke-width="0.533489" stroke-linecap="butt" stroke-linejoin="round" stroke="rgb(100%, 100%, 100%)" stroke-opacity="1" stroke-miterlimit="10" d="M 249.40625 398.847656 L 249.40625 222.671875 "/>
</g>
<g clip-path="url(#clip-26)">
<path fill="none" stroke-width="0.533489" stroke-linecap="butt" stroke-linejoin="round" stroke="rgb(100%, 100%, 100%)" stroke-opacity="1" stroke-miterlimit="10" d="M 326.992188 398.847656 L 326.992188 222.671875 "/>
</g>
<g clip-path="url(#clip-27)">
<path fill="none" stroke-width="1.066978" stroke-linecap="butt" stroke-linejoin="round" stroke="rgb(100%, 100%, 100%)" stroke-opacity="1" stroke-miterlimit="10" d="M 39.152344 390.839844 L 397.597656 390.839844 "/>
</g>
<g clip-path="url(#clip-28)">
<path fill="none" stroke-width="1.066978" stroke-linecap="butt" stroke-linejoin="round" stroke="rgb(100%, 100%, 100%)" stroke-opacity="1" stroke-miterlimit="10" d="M 39.152344 347.902344 L 397.597656 347.902344 "/>
</g>
<g clip-path="url(#clip-29)">
<path fill="none" stroke-width="1.066978" stroke-linecap="butt" stroke-linejoin="round" stroke="rgb(100%, 100%, 100%)" stroke-opacity="1" stroke-miterlimit="10" d="M 39.152344 304.964844 L 397.597656 304.964844 "/>
</g>
<g clip-path="url(#clip-30)">
<path fill="none" stroke-width="1.066978" stroke-linecap="butt" stroke-linejoin="round" stroke="rgb(100%, 100%, 100%)" stroke-opacity="1" stroke-miterlimit="10" d="M 39.152344 262.023438 L 397.597656 262.023438 "/>
</g>
<g clip-path="url(#clip-31)">
<path fill="none" stroke-width="1.066978" stroke-linecap="butt" stroke-linejoin="round" stroke="rgb(100%, 100%, 100%)" stroke-opacity="1" stroke-miterlimit="10" d="M 55.445312 398.847656 L 55.445312 222.671875 "/>
</g>
<g clip-path="url(#clip-32)">
<path fill="none" stroke-width="1.066978" stroke-linecap="butt" stroke-linejoin="round" stroke="rgb(100%, 100%, 100%)" stroke-opacity="1" stroke-miterlimit="10" d="M 133.027344 398.847656 L 133.027344 222.671875 "/>
</g>
<g clip-path="url(#clip-33)">
<path fill="none" stroke-width="1.066978" stroke-linecap="butt" stroke-linejoin="round" stroke="rgb(100%, 100%, 100%)" stroke-opacity="1" stroke-miterlimit="10" d="M 210.613281 398.847656 L 210.613281 222.671875 "/>
</g>
<g clip-path="url(#clip-34)">
<path fill="none" stroke-width="1.066978" stroke-linecap="butt" stroke-linejoin="round" stroke="rgb(100%, 100%, 100%)" stroke-opacity="1" stroke-miterlimit="10" d="M 288.199219 398.847656 L 288.199219 222.671875 "/>
</g>
<g clip-path="url(#clip-35)">
<path fill="none" stroke-width="1.066978" stroke-linecap="butt" stroke-linejoin="round" stroke="rgb(100%, 100%, 100%)" stroke-opacity="1" stroke-miterlimit="10" d="M 365.785156 398.847656 L 365.785156 222.671875 "/>
</g>
<path fill="none" stroke-width="1.066978" stroke-linecap="butt" stroke-linejoin="round" stroke="rgb(0%, 0%, 0%)" stroke-opacity="0.698039" stroke-miterlimit="10" d="M 55.445312 374.09375 L 86.476562 369.371094 L 117.511719 363.789062 L 148.546875 357.777344 L 179.582031 349.621094 L 210.613281 343.179688 L 241.648438 332.015625 L 272.683594 329.007812 L 303.71875 326.003906 L 334.75 328.152344 L 365.785156 323.855469 L 381.304688 327.722656 "/>
<path fill="none" stroke-width="1.066978" stroke-linecap="butt" stroke-linejoin="round" stroke="rgb(0%, 0%, 0%)" stroke-opacity="0.698039" stroke-miterlimit="10" d="M 55.445312 373.234375 L 86.476562 370.230469 L 117.511719 366.796875 L 148.546875 361.644531 L 179.582031 356.488281 L 210.613281 355.203125 L 241.648438 346.613281 L 272.683594 342.75 L 303.71875 332.875 L 334.75 323.425781 L 365.785156 318.273438 L 381.304688 314.410156 "/>
<path fill="none" stroke-width="1.066978" stroke-linecap="butt" stroke-linejoin="round" stroke="rgb(0%, 0%, 0%)" stroke-opacity="0.698039" stroke-miterlimit="10" d="M 55.445312 374.09375 L 86.476562 370.230469 L 117.511719 364.648438 L 148.546875 358.207031 L 179.582031 348.761719 L 210.613281 341.03125 L 241.648438 328.578125 L 272.683594 319.5625 L 303.71875 305.824219 L 334.75 293.371094 L 365.785156 294.230469 L 381.304688 296.375 "/>
<path fill="none" stroke-width="1.066978" stroke-linecap="butt" stroke-linejoin="round" stroke="rgb(0%, 0%, 0%)" stroke-opacity="0.698039" stroke-miterlimit="10" d="M 55.445312 372.808594 L 86.476562 368.082031 L 117.511719 364.21875 L 148.546875 359.496094 L 179.582031 354.34375 L 210.613281 347.042969 L 241.648438 338.027344 L 272.683594 331.585938 L 303.71875 317.84375 L 334.75 303.246094 L 365.785156 289.933594 L 381.304688 280.917969 "/>
<path fill="none" stroke-width="1.066978" stroke-linecap="butt" stroke-linejoin="round" stroke="rgb(0%, 0%, 0%)" stroke-opacity="0.698039" stroke-miterlimit="10" d="M 55.445312 372.808594 L 86.476562 369.371094 L 117.511719 364.648438 L 148.546875 357.347656 L 179.582031 352.625 L 210.613281 344.039062 L 241.648438 335.019531 L 272.683594 328.152344 L 303.71875 317.84375 L 334.75 298.953125 L 365.785156 283.492188 L 381.304688 274.046875 "/>
<path fill="none" stroke-width="1.066978" stroke-linecap="butt" stroke-linejoin="round" stroke="rgb(0%, 0%, 0%)" stroke-opacity="0.698039" stroke-miterlimit="10" d="M 55.445312 373.234375 L 86.476562 369.800781 L 117.511719 364.648438 L 148.546875 359.066406 L 179.582031 348.761719 L 210.613281 344.039062 L 241.648438 335.878906 L 272.683594 324.714844 L 303.71875 308.398438 L 334.75 291.222656 L 365.785156 270.613281 L 381.304688 266.320312 "/>
<path fill="none" stroke-width="1.066978" stroke-linecap="butt" stroke-linejoin="round" stroke="rgb(0%, 0%, 0%)" stroke-opacity="0.698039" stroke-miterlimit="10" d="M 55.445312 373.234375 L 86.476562 369.800781 L 117.511719 362.929688 L 148.546875 355.632812 L 179.582031 344.898438 L 210.613281 335.449219 L 241.648438 322.570312 L 272.683594 313.980469 L 303.71875 295.945312 L 334.75 277.910156 L 365.785156 265.890625 L 381.304688 259.878906 "/>
<path fill="none" stroke-width="1.066978" stroke-linecap="butt" stroke-linejoin="round" stroke="rgb(0%, 0%, 0%)" stroke-opacity="0.698039" stroke-miterlimit="10" d="M 55.445312 373.234375 L 86.476562 367.226562 L 117.511719 362.5 L 148.546875 356.917969 L 179.582031 347.472656 L 210.613281 339.316406 L 241.648438 324.714844 L 272.683594 312.691406 L 303.71875 298.523438 L 334.75 278.339844 L 365.785156 264.171875 L 381.304688 253.007812 "/>
<path fill="none" stroke-width="1.066978" stroke-linecap="butt" stroke-linejoin="round" stroke="rgb(0%, 0%, 0%)" stroke-opacity="0.698039" stroke-miterlimit="10" d="M 55.445312 373.234375 L 86.476562 369.800781 L 117.511719 363.789062 L 179.582031 344.898438 L 210.613281 333.304688 L 241.648438 320.421875 L 272.683594 310.976562 L 303.71875 289.933594 L 334.75 264.601562 L 365.785156 250.429688 L 381.304688 244.417969 "/>
<path fill="none" stroke-width="1.066978" stroke-linecap="butt" stroke-linejoin="round" stroke="rgb(0%, 0%, 0%)" stroke-opacity="0.698039" stroke-miterlimit="10" d="M 55.445312 373.234375 L 86.476562 368.082031 L 117.511719 363.359375 L 148.546875 353.484375 L 179.582031 338.027344 L 210.613281 322.996094 L 241.648438 304.535156 L 272.683594 288.648438 L 303.71875 267.605469 L 334.75 248.285156 L 365.785156 235.832031 L 381.304688 230.679688 "/>
<g clip-path="url(#clip-36)">
<path fill-rule="nonzero" fill="rgb(92.156863%, 92.156863%, 92.156863%)" fill-opacity="1" d="M 403.074219 199.425781 L 761.519531 199.425781 L 761.519531 23.246094 L 403.074219 23.246094 Z M 403.074219 199.425781 "/>
</g>
<g clip-path="url(#clip-37)">
<path fill="none" stroke-width="0.533489" stroke-linecap="butt" stroke-linejoin="round" stroke="rgb(100%, 100%, 100%)" stroke-opacity="1" stroke-miterlimit="10" d="M 403.074219 169.945312 L 761.519531 169.945312 "/>
</g>
<g clip-path="url(#clip-38)">
<path fill="none" stroke-width="0.533489" stroke-linecap="butt" stroke-linejoin="round" stroke="rgb(100%, 100%, 100%)" stroke-opacity="1" stroke-miterlimit="10" d="M 403.074219 127.007812 L 761.519531 127.007812 "/>
</g>
<g clip-path="url(#clip-39)">
<path fill="none" stroke-width="0.533489" stroke-linecap="butt" stroke-linejoin="round" stroke="rgb(100%, 100%, 100%)" stroke-opacity="1" stroke-miterlimit="10" d="M 403.074219 84.070312 L 761.519531 84.070312 "/>
</g>
<g clip-path="url(#clip-40)">
<path fill="none" stroke-width="0.533489" stroke-linecap="butt" stroke-linejoin="round" stroke="rgb(100%, 100%, 100%)" stroke-opacity="1" stroke-miterlimit="10" d="M 403.074219 41.128906 L 761.519531 41.128906 "/>
</g>
<g clip-path="url(#clip-41)">
<path fill="none" stroke-width="0.533489" stroke-linecap="butt" stroke-linejoin="round" stroke="rgb(100%, 100%, 100%)" stroke-opacity="1" stroke-miterlimit="10" d="M 458.160156 199.425781 L 458.160156 23.246094 "/>
</g>
<g clip-path="url(#clip-42)">
<path fill="none" stroke-width="0.533489" stroke-linecap="butt" stroke-linejoin="round" stroke="rgb(100%, 100%, 100%)" stroke-opacity="1" stroke-miterlimit="10" d="M 535.746094 199.425781 L 535.746094 23.246094 "/>
</g>
<g clip-path="url(#clip-43)">
<path fill="none" stroke-width="0.533489" stroke-linecap="butt" stroke-linejoin="round" stroke="rgb(100%, 100%, 100%)" stroke-opacity="1" stroke-miterlimit="10" d="M 613.332031 199.425781 L 613.332031 23.246094 "/>
</g>
<g clip-path="url(#clip-44)">
<path fill="none" stroke-width="0.533489" stroke-linecap="butt" stroke-linejoin="round" stroke="rgb(100%, 100%, 100%)" stroke-opacity="1" stroke-miterlimit="10" d="M 690.917969 199.425781 L 690.917969 23.246094 "/>
</g>
<g clip-path="url(#clip-45)">
<path fill="none" stroke-width="1.066978" stroke-linecap="butt" stroke-linejoin="round" stroke="rgb(100%, 100%, 100%)" stroke-opacity="1" stroke-miterlimit="10" d="M 403.074219 191.417969 L 761.519531 191.417969 "/>
</g>
<g clip-path="url(#clip-46)">
<path fill="none" stroke-width="1.066978" stroke-linecap="butt" stroke-linejoin="round" stroke="rgb(100%, 100%, 100%)" stroke-opacity="1" stroke-miterlimit="10" d="M 403.074219 148.476562 L 761.519531 148.476562 "/>
</g>
<g clip-path="url(#clip-47)">
<path fill="none" stroke-width="1.066978" stroke-linecap="butt" stroke-linejoin="round" stroke="rgb(100%, 100%, 100%)" stroke-opacity="1" stroke-miterlimit="10" d="M 403.074219 105.539062 L 761.519531 105.539062 "/>
</g>
<g clip-path="url(#clip-48)">
<path fill="none" stroke-width="1.066978" stroke-linecap="butt" stroke-linejoin="round" stroke="rgb(100%, 100%, 100%)" stroke-opacity="1" stroke-miterlimit="10" d="M 403.074219 62.601562 L 761.519531 62.601562 "/>
</g>
<g clip-path="url(#clip-49)">
<path fill="none" stroke-width="1.066978" stroke-linecap="butt" stroke-linejoin="round" stroke="rgb(100%, 100%, 100%)" stroke-opacity="1" stroke-miterlimit="10" d="M 419.367188 199.425781 L 419.367188 23.246094 "/>
</g>
<g clip-path="url(#clip-50)">
<path fill="none" stroke-width="1.066978" stroke-linecap="butt" stroke-linejoin="round" stroke="rgb(100%, 100%, 100%)" stroke-opacity="1" stroke-miterlimit="10" d="M 496.953125 199.425781 L 496.953125 23.246094 "/>
</g>
<g clip-path="url(#clip-51)">
<path fill="none" stroke-width="1.066978" stroke-linecap="butt" stroke-linejoin="round" stroke="rgb(100%, 100%, 100%)" stroke-opacity="1" stroke-miterlimit="10" d="M 574.539062 199.425781 L 574.539062 23.246094 "/>
</g>
<g clip-path="url(#clip-52)">
<path fill="none" stroke-width="1.066978" stroke-linecap="butt" stroke-linejoin="round" stroke="rgb(100%, 100%, 100%)" stroke-opacity="1" stroke-miterlimit="10" d="M 652.125 199.425781 L 652.125 23.246094 "/>
</g>
<g clip-path="url(#clip-53)">
<path fill="none" stroke-width="1.066978" stroke-linecap="butt" stroke-linejoin="round" stroke="rgb(100%, 100%, 100%)" stroke-opacity="1" stroke-miterlimit="10" d="M 729.710938 199.425781 L 729.710938 23.246094 "/>
</g>
<path fill="none" stroke-width="1.066978" stroke-linecap="butt" stroke-linejoin="round" stroke="rgb(0%, 0%, 0%)" stroke-opacity="0.698039" stroke-miterlimit="10" d="M 419.367188 173.382812 L 450.402344 169.089844 L 481.4375 166.511719 L 512.472656 159.640625 L 543.503906 163.078125 L 605.574219 161.359375 L 636.609375 160.929688 L 667.640625 160.5 L 698.675781 160.5 L 729.710938 158.78125 L 745.226562 159.640625 "/>
<path fill="none" stroke-width="1.066978" stroke-linecap="butt" stroke-linejoin="round" stroke="rgb(0%, 0%, 0%)" stroke-opacity="0.698039" stroke-miterlimit="10" d="M 419.367188 173.382812 L 450.402344 170.804688 L 481.4375 166.082031 L 512.472656 160.5 L 543.503906 154.917969 L 574.539062 149.335938 L 605.574219 142.035156 L 636.609375 139.03125 L 667.640625 130.015625 L 698.675781 126.578125 L 729.710938 124.003906 L 745.226562 127.007812 "/>
<path fill="none" stroke-width="1.066978" stroke-linecap="butt" stroke-linejoin="round" stroke="rgb(0%, 0%, 0%)" stroke-opacity="0.698039" stroke-miterlimit="10" d="M 419.367188 173.8125 L 450.402344 167.800781 L 481.4375 163.9375 L 512.472656 158.355469 L 543.503906 152.773438 L 574.539062 150.625 L 605.574219 145.042969 L 636.609375 143.753906 L 667.640625 135.167969 L 698.675781 127.867188 L 729.710938 120.996094 L 745.226562 119.707031 "/>
<path fill="none" stroke-width="1.066978" stroke-linecap="butt" stroke-linejoin="round" stroke="rgb(0%, 0%, 0%)" stroke-opacity="0.698039" stroke-miterlimit="10" d="M 419.367188 172.953125 L 450.402344 169.089844 L 481.4375 165.222656 L 512.472656 160.070312 L 543.503906 152.773438 L 574.539062 147.191406 L 605.574219 136.882812 L 636.609375 133.449219 L 667.640625 129.15625 L 698.675781 121.425781 L 729.710938 118.421875 L 745.226562 116.273438 "/>
<path fill="none" stroke-width="1.066978" stroke-linecap="butt" stroke-linejoin="round" stroke="rgb(0%, 0%, 0%)" stroke-opacity="0.698039" stroke-miterlimit="10" d="M 419.367188 174.671875 L 450.402344 171.664062 L 481.4375 166.511719 L 512.472656 160.070312 L 543.503906 154.058594 L 574.539062 148.476562 L 605.574219 142.035156 L 636.609375 138.601562 L 667.640625 129.585938 L 698.675781 121.425781 L 729.710938 111.980469 L 745.226562 108.972656 "/>
<path fill="none" stroke-width="1.066978" stroke-linecap="butt" stroke-linejoin="round" stroke="rgb(0%, 0%, 0%)" stroke-opacity="0.698039" stroke-miterlimit="10" d="M 419.367188 174.671875 L 450.402344 171.664062 L 481.4375 166.511719 L 512.472656 160.070312 L 543.503906 151.914062 L 574.539062 142.464844 L 605.574219 129.15625 L 636.609375 124.433594 L 667.640625 112.410156 L 698.675781 102.53125 L 729.710938 100.386719 L 745.226562 91.367188 "/>
<path fill="none" stroke-width="1.066978" stroke-linecap="butt" stroke-linejoin="round" stroke="rgb(0%, 0%, 0%)" stroke-opacity="0.698039" stroke-miterlimit="10" d="M 419.367188 173.382812 L 450.402344 170.804688 L 481.4375 166.941406 L 512.472656 159.640625 L 543.503906 151.484375 L 574.539062 142.464844 L 605.574219 133.019531 L 636.609375 128.296875 L 667.640625 118.851562 L 698.675781 103.390625 L 729.710938 90.082031 L 745.226562 83.640625 "/>
<path fill="none" stroke-width="1.066978" stroke-linecap="butt" stroke-linejoin="round" stroke="rgb(0%, 0%, 0%)" stroke-opacity="0.698039" stroke-miterlimit="10" d="M 419.367188 174.242188 L 450.402344 170.375 L 481.4375 164.792969 L 512.472656 157.925781 L 543.503906 147.617188 L 605.574219 128.726562 L 636.609375 120.996094 L 667.640625 106.828125 L 698.675781 92.226562 L 729.710938 80.203125 L 745.226562 77.628906 "/>
<path fill="none" stroke-width="1.066978" stroke-linecap="butt" stroke-linejoin="round" stroke="rgb(0%, 0%, 0%)" stroke-opacity="0.698039" stroke-miterlimit="10" d="M 419.367188 174.671875 L 450.402344 170.804688 L 481.4375 166.082031 L 512.472656 159.640625 L 543.503906 154.058594 L 574.539062 145.902344 L 605.574219 133.878906 L 636.609375 127.007812 L 667.640625 111.121094 L 698.675781 92.65625 L 729.710938 71.617188 L 745.226562 58.734375 "/>
<path fill="none" stroke-width="1.066978" stroke-linecap="butt" stroke-linejoin="round" stroke="rgb(0%, 0%, 0%)" stroke-opacity="0.698039" stroke-miterlimit="10" d="M 419.367188 174.242188 L 450.402344 169.945312 L 481.4375 164.792969 L 512.472656 154.488281 L 543.503906 137.742188 L 574.539062 121.425781 L 605.574219 98.238281 L 636.609375 88.363281 L 667.640625 73.335938 L 698.675781 59.59375 L 729.710938 54.871094 L 745.226562 49.289062 "/>
<g clip-path="url(#clip-54)">
<path fill-rule="nonzero" fill="rgb(92.156863%, 92.156863%, 92.156863%)" fill-opacity="1" d="M 403.074219 398.847656 L 761.519531 398.847656 L 761.519531 222.667969 L 403.074219 222.667969 Z M 403.074219 398.847656 "/>
</g>
<g clip-path="url(#clip-55)">
<path fill="none" stroke-width="0.533489" stroke-linecap="butt" stroke-linejoin="round" stroke="rgb(100%, 100%, 100%)" stroke-opacity="1" stroke-miterlimit="10" d="M 403.074219 369.371094 L 761.519531 369.371094 "/>
</g>
<g clip-path="url(#clip-56)">
<path fill="none" stroke-width="0.533489" stroke-linecap="butt" stroke-linejoin="round" stroke="rgb(100%, 100%, 100%)" stroke-opacity="1" stroke-miterlimit="10" d="M 403.074219 326.433594 L 761.519531 326.433594 "/>
</g>
<g clip-path="url(#clip-57)">
<path fill="none" stroke-width="0.533489" stroke-linecap="butt" stroke-linejoin="round" stroke="rgb(100%, 100%, 100%)" stroke-opacity="1" stroke-miterlimit="10" d="M 403.074219 283.492188 L 761.519531 283.492188 "/>
</g>
<g clip-path="url(#clip-58)">
<path fill="none" stroke-width="0.533489" stroke-linecap="butt" stroke-linejoin="round" stroke="rgb(100%, 100%, 100%)" stroke-opacity="1" stroke-miterlimit="10" d="M 403.074219 240.554688 L 761.519531 240.554688 "/>
</g>
<g clip-path="url(#clip-59)">
<path fill="none" stroke-width="0.533489" stroke-linecap="butt" stroke-linejoin="round" stroke="rgb(100%, 100%, 100%)" stroke-opacity="1" stroke-miterlimit="10" d="M 458.160156 398.847656 L 458.160156 222.671875 "/>
</g>
<g clip-path="url(#clip-60)">
<path fill="none" stroke-width="0.533489" stroke-linecap="butt" stroke-linejoin="round" stroke="rgb(100%, 100%, 100%)" stroke-opacity="1" stroke-miterlimit="10" d="M 535.746094 398.847656 L 535.746094 222.671875 "/>
</g>
<g clip-path="url(#clip-61)">
<path fill="none" stroke-width="0.533489" stroke-linecap="butt" stroke-linejoin="round" stroke="rgb(100%, 100%, 100%)" stroke-opacity="1" stroke-miterlimit="10" d="M 613.332031 398.847656 L 613.332031 222.671875 "/>
</g>
<g clip-path="url(#clip-62)">
<path fill="none" stroke-width="0.533489" stroke-linecap="butt" stroke-linejoin="round" stroke="rgb(100%, 100%, 100%)" stroke-opacity="1" stroke-miterlimit="10" d="M 690.917969 398.847656 L 690.917969 222.671875 "/>
</g>
<g clip-path="url(#clip-63)">
<path fill="none" stroke-width="1.066978" stroke-linecap="butt" stroke-linejoin="round" stroke="rgb(100%, 100%, 100%)" stroke-opacity="1" stroke-miterlimit="10" d="M 403.074219 390.839844 L 761.519531 390.839844 "/>
</g>
<g clip-path="url(#clip-64)">
<path fill="none" stroke-width="1.066978" stroke-linecap="butt" stroke-linejoin="round" stroke="rgb(100%, 100%, 100%)" stroke-opacity="1" stroke-miterlimit="10" d="M 403.074219 347.902344 L 761.519531 347.902344 "/>
</g>
<g clip-path="url(#clip-65)">
<path fill="none" stroke-width="1.066978" stroke-linecap="butt" stroke-linejoin="round" stroke="rgb(100%, 100%, 100%)" stroke-opacity="1" stroke-miterlimit="10" d="M 403.074219 304.964844 L 761.519531 304.964844 "/>
</g>
<g clip-path="url(#clip-66)">
<path fill="none" stroke-width="1.066978" stroke-linecap="butt" stroke-linejoin="round" stroke="rgb(100%, 100%, 100%)" stroke-opacity="1" stroke-miterlimit="10" d="M 403.074219 262.023438 L 761.519531 262.023438 "/>
</g>
<g clip-path="url(#clip-67)">
<path fill="none" stroke-width="1.066978" stroke-linecap="butt" stroke-linejoin="round" stroke="rgb(100%, 100%, 100%)" stroke-opacity="1" stroke-miterlimit="10" d="M 419.367188 398.847656 L 419.367188 222.671875 "/>
</g>
<g clip-path="url(#clip-68)">
<path fill="none" stroke-width="1.066978" stroke-linecap="butt" stroke-linejoin="round" stroke="rgb(100%, 100%, 100%)" stroke-opacity="1" stroke-miterlimit="10" d="M 496.953125 398.847656 L 496.953125 222.671875 "/>
</g>
<g clip-path="url(#clip-69)">
<path fill="none" stroke-width="1.066978" stroke-linecap="butt" stroke-linejoin="round" stroke="rgb(100%, 100%, 100%)" stroke-opacity="1" stroke-miterlimit="10" d="M 574.539062 398.847656 L 574.539062 222.671875 "/>
</g>
<g clip-path="url(#clip-70)">
<path fill="none" stroke-width="1.066978" stroke-linecap="butt" stroke-linejoin="round" stroke="rgb(100%, 100%, 100%)" stroke-opacity="1" stroke-miterlimit="10" d="M 652.125 398.847656 L 652.125 222.671875 "/>
</g>
<g clip-path="url(#clip-71)">
<path fill="none" stroke-width="1.066978" stroke-linecap="butt" stroke-linejoin="round" stroke="rgb(100%, 100%, 100%)" stroke-opacity="1" stroke-miterlimit="10" d="M 729.710938 398.847656 L 729.710938 222.671875 "/>
</g>
<path fill="none" stroke-width="1.066978" stroke-linecap="butt" stroke-linejoin="round" stroke="rgb(0%, 0%, 0%)" stroke-opacity="0.698039" stroke-miterlimit="10" d="M 419.367188 372.808594 L 450.402344 368.941406 L 481.4375 362.929688 L 512.472656 353.914062 L 543.503906 346.613281 L 574.539062 340.171875 L 605.574219 336.308594 L 636.609375 331.585938 L 667.640625 328.578125 L 698.675781 328.152344 "/>
<path fill="none" stroke-width="1.066978" stroke-linecap="butt" stroke-linejoin="round" stroke="rgb(0%, 0%, 0%)" stroke-opacity="0.698039" stroke-miterlimit="10" d="M 419.367188 373.234375 L 450.402344 369.371094 L 481.4375 364.648438 L 512.472656 357.347656 L 543.503906 348.761719 L 574.539062 340.601562 L 605.574219 332.875 L 636.609375 330.296875 L 667.640625 327.722656 L 698.675781 316.128906 L 729.710938 306.25 L 745.226562 306.679688 "/>
<path fill="none" stroke-width="1.066978" stroke-linecap="butt" stroke-linejoin="round" stroke="rgb(0%, 0%, 0%)" stroke-opacity="0.698039" stroke-miterlimit="10" d="M 419.367188 372.808594 L 450.402344 367.226562 L 481.4375 361.214844 L 512.472656 349.621094 L 543.503906 334.589844 L 574.539062 323.425781 L 605.574219 311.832031 L 636.609375 310.117188 L 667.640625 306.25 L 698.675781 305.824219 L 729.710938 305.394531 L 745.226562 304.964844 "/>
<path fill="none" stroke-width="1.066978" stroke-linecap="butt" stroke-linejoin="round" stroke="rgb(0%, 0%, 0%)" stroke-opacity="0.698039" stroke-miterlimit="10" d="M 419.367188 372.808594 L 450.402344 368.941406 L 481.4375 362.5 L 512.472656 354.34375 L 543.503906 346.613281 L 574.539062 337.597656 L 605.574219 324.285156 L 636.609375 325.144531 L 667.640625 315.699219 L 698.675781 311.832031 L 729.710938 305.394531 L 745.226562 303.246094 "/>
<path fill="none" stroke-width="1.066978" stroke-linecap="butt" stroke-linejoin="round" stroke="rgb(0%, 0%, 0%)" stroke-opacity="0.698039" stroke-miterlimit="10" d="M 419.367188 373.234375 L 450.402344 368.082031 L 512.472656 356.917969 L 543.503906 347.902344 L 574.539062 338.027344 L 605.574219 327.292969 L 636.609375 323.425781 L 667.640625 318.703125 L 698.675781 311.40625 L 729.710938 300.667969 L 745.226562 302.816406 "/>
<path fill="none" stroke-width="1.066978" stroke-linecap="butt" stroke-linejoin="round" stroke="rgb(0%, 0%, 0%)" stroke-opacity="0.698039" stroke-miterlimit="10" d="M 419.367188 373.664062 L 450.402344 368.082031 L 481.4375 363.359375 L 512.472656 354.34375 L 543.503906 344.46875 L 574.539062 335.878906 L 605.574219 325.574219 L 636.609375 319.5625 L 667.640625 311.832031 L 698.675781 303.675781 L 729.710938 290.792969 L 745.226562 289.074219 "/>
<path fill="none" stroke-width="1.066978" stroke-linecap="butt" stroke-linejoin="round" stroke="rgb(0%, 0%, 0%)" stroke-opacity="0.698039" stroke-miterlimit="10" d="M 419.367188 373.664062 L 450.402344 368.511719 L 481.4375 364.21875 L 512.472656 355.632812 L 543.503906 347.472656 L 574.539062 339.316406 L 605.574219 329.007812 L 636.609375 323.855469 L 667.640625 316.558594 L 698.675781 300.667969 L 729.710938 291.652344 L 745.226562 288.648438 "/>
<path fill="none" stroke-width="1.066978" stroke-linecap="butt" stroke-linejoin="round" stroke="rgb(0%, 0%, 0%)" stroke-opacity="0.698039" stroke-miterlimit="10" d="M 419.367188 373.234375 L 481.4375 362.070312 L 512.472656 354.773438 L 543.503906 345.753906 L 574.539062 338.457031 L 605.574219 324.285156 L 636.609375 315.699219 L 667.640625 302.816406 L 698.675781 290.363281 L 729.710938 277.484375 L 745.226562 277.484375 "/>
<path fill="none" stroke-width="1.066978" stroke-linecap="butt" stroke-linejoin="round" stroke="rgb(0%, 0%, 0%)" stroke-opacity="0.698039" stroke-miterlimit="10" d="M 419.367188 372.808594 L 450.402344 369.800781 L 481.4375 363.789062 L 512.472656 354.773438 L 543.503906 346.613281 L 574.539062 336.738281 L 605.574219 322.140625 L 636.609375 316.128906 L 667.640625 303.246094 L 698.675781 290.363281 L 729.710938 275.335938 L 745.226562 270.183594 "/>
<path fill="none" stroke-width="1.066978" stroke-linecap="butt" stroke-linejoin="round" stroke="rgb(0%, 0%, 0%)" stroke-opacity="0.698039" stroke-miterlimit="10" d="M 419.367188 374.09375 L 450.402344 369.371094 L 481.4375 364.21875 L 512.472656 356.488281 L 543.503906 346.183594 L 574.539062 337.167969 L 605.574219 324.714844 L 636.609375 317.84375 L 667.640625 295.515625 L 698.675781 278.769531 L 729.710938 260.738281 L 745.226562 252.578125 "/>
<g clip-path="url(#clip-72)">
<path fill-rule="nonzero" fill="rgb(85.098039%, 85.098039%, 85.098039%)" fill-opacity="1" d="M 39.152344 222.671875 L 397.597656 222.671875 L 397.597656 204.90625 L 39.152344 204.90625 Z M 39.152344 222.671875 "/>
</g>
<g fill="rgb(10.196078%, 10.196078%, 10.196078%)" fill-opacity="1">
<use xlink:href="#glyph-0-1" x="206.375" y="217.06543"/>
<use xlink:href="#glyph-0-2" x="212.375" y="217.06543"/>
<use xlink:href="#glyph-0-3" x="214.375" y="217.06543"/>
<use xlink:href="#glyph-0-4" x="219.375" y="217.06543"/>
<use xlink:href="#glyph-0-5" x="221.375" y="217.06543"/>
<use xlink:href="#glyph-0-6" x="223.375" y="217.06543"/>
<use xlink:href="#glyph-0-7" x="225.375" y="217.06543"/>
</g>
<g clip-path="url(#clip-73)">
<path fill-rule="nonzero" fill="rgb(85.098039%, 85.098039%, 85.098039%)" fill-opacity="1" d="M 403.074219 222.671875 L 761.519531 222.671875 L 761.519531 204.90625 L 403.074219 204.90625 Z M 403.074219 222.671875 "/>
</g>
<g fill="rgb(10.196078%, 10.196078%, 10.196078%)" fill-opacity="1">
<use xlink:href="#glyph-0-1" x="570.296875" y="217.06543"/>
<use xlink:href="#glyph-0-2" x="576.296875" y="217.06543"/>
<use xlink:href="#glyph-0-3" x="578.296875" y="217.06543"/>
<use xlink:href="#glyph-0-4" x="583.296875" y="217.06543"/>
<use xlink:href="#glyph-0-5" x="585.296875" y="217.06543"/>
<use xlink:href="#glyph-0-6" x="587.296875" y="217.06543"/>
<use xlink:href="#glyph-0-8" x="589.296875" y="217.06543"/>
</g>
<g clip-path="url(#clip-74)">
<path fill-rule="nonzero" fill="rgb(85.098039%, 85.098039%, 85.098039%)" fill-opacity="1" d="M 39.152344 23.246094 L 397.597656 23.246094 L 397.597656 5.480469 L 39.152344 5.480469 Z M 39.152344 23.246094 "/>
</g>
<g fill="rgb(10.196078%, 10.196078%, 10.196078%)" fill-opacity="1">
<use xlink:href="#glyph-0-1" x="206.375" y="17.639648"/>
<use xlink:href="#glyph-0-2" x="212.375" y="17.639648"/>
<use xlink:href="#glyph-0-3" x="214.375" y="17.639648"/>
<use xlink:href="#glyph-0-4" x="219.375" y="17.639648"/>
<use xlink:href="#glyph-0-5" x="221.375" y="17.639648"/>
<use xlink:href="#glyph-0-6" x="223.375" y="17.639648"/>
<use xlink:href="#glyph-0-9" x="225.375" y="17.639648"/>
</g>
<g clip-path="url(#clip-75)">
<path fill-rule="nonzero" fill="rgb(85.098039%, 85.098039%, 85.098039%)" fill-opacity="1" d="M 403.074219 23.246094 L 761.519531 23.246094 L 761.519531 5.480469 L 403.074219 5.480469 Z M 403.074219 23.246094 "/>
</g>
<g fill="rgb(10.196078%, 10.196078%, 10.196078%)" fill-opacity="1">
<use xlink:href="#glyph-0-1" x="570.296875" y="17.639648"/>
<use xlink:href="#glyph-0-2" x="576.296875" y="17.639648"/>
<use xlink:href="#glyph-0-3" x="578.296875" y="17.639648"/>
<use xlink:href="#glyph-0-4" x="583.296875" y="17.639648"/>
<use xlink:href="#glyph-0-5" x="585.296875" y="17.639648"/>
<use xlink:href="#glyph-0-6" x="587.296875" y="17.639648"/>
<use xlink:href="#glyph-0-10" x="589.296875" y="17.639648"/>
</g>
<path fill="none" stroke-width="1.066978" stroke-linecap="butt" stroke-linejoin="round" stroke="rgb(20%, 20%, 20%)" stroke-opacity="1" stroke-miterlimit="10" d="M 55.445312 401.589844 L 55.445312 398.847656 "/>
<path fill="none" stroke-width="1.066978" stroke-linecap="butt" stroke-linejoin="round" stroke="rgb(20%, 20%, 20%)" stroke-opacity="1" stroke-miterlimit="10" d="M 133.027344 401.589844 L 133.027344 398.847656 "/>
<path fill="none" stroke-width="1.066978" stroke-linecap="butt" stroke-linejoin="round" stroke="rgb(20%, 20%, 20%)" stroke-opacity="1" stroke-miterlimit="10" d="M 210.613281 401.589844 L 210.613281 398.847656 "/>
<path fill="none" stroke-width="1.066978" stroke-linecap="butt" stroke-linejoin="round" stroke="rgb(20%, 20%, 20%)" stroke-opacity="1" stroke-miterlimit="10" d="M 288.199219 401.589844 L 288.199219 398.847656 "/>
<path fill="none" stroke-width="1.066978" stroke-linecap="butt" stroke-linejoin="round" stroke="rgb(20%, 20%, 20%)" stroke-opacity="1" stroke-miterlimit="10" d="M 365.785156 401.589844 L 365.785156 398.847656 "/>
<g fill="rgb(30.196078%, 30.196078%, 30.196078%)" fill-opacity="1">
<use xlink:href="#glyph-0-11" x="52.945312" y="410.557617"/>
</g>
<g fill="rgb(30.196078%, 30.196078%, 30.196078%)" fill-opacity="1">
<use xlink:href="#glyph-0-12" x="130.527344" y="410.557617"/>
</g>
<g fill="rgb(30.196078%, 30.196078%, 30.196078%)" fill-opacity="1">
<use xlink:href="#glyph-0-9" x="205.613281" y="410.557617"/>
<use xlink:href="#glyph-0-11" x="210.613281" y="410.557617"/>
</g>
<g fill="rgb(30.196078%, 30.196078%, 30.196078%)" fill-opacity="1">
<use xlink:href="#glyph-0-9" x="283.199219" y="410.557617"/>
<use xlink:href="#glyph-0-12" x="288.199219" y="410.557617"/>
</g>
<g fill="rgb(30.196078%, 30.196078%, 30.196078%)" fill-opacity="1">
<use xlink:href="#glyph-0-10" x="360.785156" y="410.557617"/>
<use xlink:href="#glyph-0-11" x="365.785156" y="410.557617"/>
</g>
<path fill="none" stroke-width="1.066978" stroke-linecap="butt" stroke-linejoin="round" stroke="rgb(20%, 20%, 20%)" stroke-opacity="1" stroke-miterlimit="10" d="M 419.367188 401.589844 L 419.367188 398.847656 "/>
<path fill="none" stroke-width="1.066978" stroke-linecap="butt" stroke-linejoin="round" stroke="rgb(20%, 20%, 20%)" stroke-opacity="1" stroke-miterlimit="10" d="M 496.953125 401.589844 L 496.953125 398.847656 "/>
<path fill="none" stroke-width="1.066978" stroke-linecap="butt" stroke-linejoin="round" stroke="rgb(20%, 20%, 20%)" stroke-opacity="1" stroke-miterlimit="10" d="M 574.539062 401.589844 L 574.539062 398.847656 "/>
<path fill="none" stroke-width="1.066978" stroke-linecap="butt" stroke-linejoin="round" stroke="rgb(20%, 20%, 20%)" stroke-opacity="1" stroke-miterlimit="10" d="M 652.125 401.589844 L 652.125 398.847656 "/>
<path fill="none" stroke-width="1.066978" stroke-linecap="butt" stroke-linejoin="round" stroke="rgb(20%, 20%, 20%)" stroke-opacity="1" stroke-miterlimit="10" d="M 729.710938 401.589844 L 729.710938 398.847656 "/>
<g fill="rgb(30.196078%, 30.196078%, 30.196078%)" fill-opacity="1">
<use xlink:href="#glyph-0-11" x="416.867188" y="410.557617"/>
</g>
<g fill="rgb(30.196078%, 30.196078%, 30.196078%)" fill-opacity="1">
<use xlink:href="#glyph-0-12" x="494.453125" y="410.557617"/>
</g>
<g fill="rgb(30.196078%, 30.196078%, 30.196078%)" fill-opacity="1">
<use xlink:href="#glyph-0-9" x="569.539062" y="410.557617"/>
<use xlink:href="#glyph-0-11" x="574.539062" y="410.557617"/>
</g>
<g fill="rgb(30.196078%, 30.196078%, 30.196078%)" fill-opacity="1">
<use xlink:href="#glyph-0-9" x="647.125" y="410.557617"/>
<use xlink:href="#glyph-0-12" x="652.125" y="410.557617"/>
</g>
<g fill="rgb(30.196078%, 30.196078%, 30.196078%)" fill-opacity="1">
<use xlink:href="#glyph-0-10" x="724.710938" y="410.557617"/>
<use xlink:href="#glyph-0-11" x="729.710938" y="410.557617"/>
</g>
<g fill="rgb(30.196078%, 30.196078%, 30.196078%)" fill-opacity="1">
<use xlink:href="#glyph-0-11" x="29.21875" y="194.694336"/>
</g>
<g fill="rgb(30.196078%, 30.196078%, 30.196078%)" fill-opacity="1">
<use xlink:href="#glyph-0-9" x="19.21875" y="151.75293"/>
<use xlink:href="#glyph-0-11" x="24.21875" y="151.75293"/>
<use xlink:href="#glyph-0-11" x="29.21875" y="151.75293"/>
</g>
<g fill="rgb(30.196078%, 30.196078%, 30.196078%)" fill-opacity="1">
<use xlink:href="#glyph-0-10" x="19.21875" y="108.81543"/>
<use xlink:href="#glyph-0-11" x="24.21875" y="108.81543"/>
<use xlink:href="#glyph-0-11" x="29.21875" y="108.81543"/>
</g>
<g fill="rgb(30.196078%, 30.196078%, 30.196078%)" fill-opacity="1">
<use xlink:href="#glyph-0-7" x="19.21875" y="65.87793"/>
<use xlink:href="#glyph-0-11" x="24.21875" y="65.87793"/>
<use xlink:href="#glyph-0-11" x="29.21875" y="65.87793"/>
</g>
<path fill="none" stroke-width="1.066978" stroke-linecap="butt" stroke-linejoin="round" stroke="rgb(20%, 20%, 20%)" stroke-opacity="1" stroke-miterlimit="10" d="M 36.410156 191.417969 L 39.152344 191.417969 "/>
<path fill="none" stroke-width="1.066978" stroke-linecap="butt" stroke-linejoin="round" stroke="rgb(20%, 20%, 20%)" stroke-opacity="1" stroke-miterlimit="10" d="M 36.410156 148.476562 L 39.152344 148.476562 "/>
<path fill="none" stroke-width="1.066978" stroke-linecap="butt" stroke-linejoin="round" stroke="rgb(20%, 20%, 20%)" stroke-opacity="1" stroke-miterlimit="10" d="M 36.410156 105.539062 L 39.152344 105.539062 "/>
<path fill="none" stroke-width="1.066978" stroke-linecap="butt" stroke-linejoin="round" stroke="rgb(20%, 20%, 20%)" stroke-opacity="1" stroke-miterlimit="10" d="M 36.410156 62.601562 L 39.152344 62.601562 "/>
<g fill="rgb(30.196078%, 30.196078%, 30.196078%)" fill-opacity="1">
<use xlink:href="#glyph-0-11" x="29.21875" y="394.116211"/>
</g>
<g fill="rgb(30.196078%, 30.196078%, 30.196078%)" fill-opacity="1">
<use xlink:href="#glyph-0-9" x="19.21875" y="351.178711"/>
<use xlink:href="#glyph-0-11" x="24.21875" y="351.178711"/>
<use xlink:href="#glyph-0-11" x="29.21875" y="351.178711"/>
</g>
<g fill="rgb(30.196078%, 30.196078%, 30.196078%)" fill-opacity="1">
<use xlink:href="#glyph-0-10" x="19.21875" y="308.241211"/>
<use xlink:href="#glyph-0-11" x="24.21875" y="308.241211"/>
<use xlink:href="#glyph-0-11" x="29.21875" y="308.241211"/>
</g>
<g fill="rgb(30.196078%, 30.196078%, 30.196078%)" fill-opacity="1">
<use xlink:href="#glyph-0-7" x="19.21875" y="265.299805"/>
<use xlink:href="#glyph-0-11" x="24.21875" y="265.299805"/>
<use xlink:href="#glyph-0-11" x="29.21875" y="265.299805"/>
</g>
<path fill="none" stroke-width="1.066978" stroke-linecap="butt" stroke-linejoin="round" stroke="rgb(20%, 20%, 20%)" stroke-opacity="1" stroke-miterlimit="10" d="M 36.410156 390.839844 L 39.152344 390.839844 "/>
<path fill="none" stroke-width="1.066978" stroke-linecap="butt" stroke-linejoin="round" stroke="rgb(20%, 20%, 20%)" stroke-opacity="1" stroke-miterlimit="10" d="M 36.410156 347.902344 L 39.152344 347.902344 "/>
<path fill="none" stroke-width="1.066978" stroke-linecap="butt" stroke-linejoin="round" stroke="rgb(20%, 20%, 20%)" stroke-opacity="1" stroke-miterlimit="10" d="M 36.410156 304.964844 L 39.152344 304.964844 "/>
<path fill="none" stroke-width="1.066978" stroke-linecap="butt" stroke-linejoin="round" stroke="rgb(20%, 20%, 20%)" stroke-opacity="1" stroke-miterlimit="10" d="M 36.410156 262.023438 L 39.152344 262.023438 "/>
<g fill="rgb(0%, 0%, 0%)" fill-opacity="1">
<use xlink:href="#glyph-1-1" x="388.335938" y="422.990234"/>
<use xlink:href="#glyph-1-2" x="395.335938" y="422.990234"/>
<use xlink:href="#glyph-1-3" x="397.335938" y="422.990234"/>
<use xlink:href="#glyph-1-4" x="406.335938" y="422.990234"/>
</g>
<g fill="rgb(0%, 0%, 0%)" fill-opacity="1">
<use xlink:href="#glyph-2-1" x="12.951172" y="226.546875"/>
<use xlink:href="#glyph-2-2" x="12.951172" y="218.546875"/>
<use xlink:href="#glyph-2-3" x="12.951172" y="212.546875"/>
<use xlink:href="#glyph-2-4" x="12.951172" y="210.546875"/>
<use xlink:href="#glyph-2-5" x="12.951172" y="204.546875"/>
<use xlink:href="#glyph-2-6" x="12.951172" y="198.546875"/>
</g>
</svg>
