<?xml version="1.0" encoding="UTF-8"?>
<svg xmlns="http://www.w3.org/2000/svg" xmlns:xlink="http://www.w3.org/1999/xlink" width="767pt" height="432pt" viewBox="0 0 767 432">
<defs>
<g>
<g id="glyph-0-0">
<path d="M 6.953125 -13.4375 L 1.578125 -13.4375 L 1.578125 4.484375 L 6.953125 4.484375 Z M 6.25 -12.765625 L 6.25 3.8125 L 2.28125 3.8125 L 2.28125 -12.765625 Z M 4.140625 -5.765625 C 3.640625 -5.765625 2.953125 -5.625 2.953125 -5.265625 C 2.953125 -5.109375 3.078125 -4.984375 3.265625 -4.984375 C 3.3125 -4.984375 3.359375 -4.984375 3.421875 -5.015625 C 3.640625 -5.125 3.828125 -5.15625 4.09375 -5.15625 C 4.734375 -5.15625 4.875 -4.765625 4.875 -4.28125 C 4.875 -3.59375 4.625 -3.34375 3.71875 -3.28125 L 3.71875 -2.21875 C 3.71875 -2.015625 3.859375 -1.90625 4.03125 -1.90625 C 4.1875 -1.90625 4.34375 -2.015625 4.34375 -2.21875 L 4.34375 -2.796875 C 5.203125 -2.921875 5.5625 -3.40625 5.5625 -4.296875 C 5.5625 -5.0625 5.25 -5.765625 4.140625 -5.765625 Z M 4.03125 -1.53125 C 3.78125 -1.53125 3.578125 -1.34375 3.578125 -1.09375 C 3.578125 -0.8125 3.78125 -0.609375 4.03125 -0.609375 C 4.28125 -0.609375 4.484375 -0.8125 4.484375 -1.09375 C 4.484375 -1.34375 4.28125 -1.53125 4.03125 -1.53125 Z M 4.03125 -1.53125 "/>
</g>
<g id="glyph-0-1">
<path d="M 2.5625 0.15625 C 2.90625 0.15625 3.234375 0.0625 3.5 -0.078125 L 3.1875 -0.890625 C 3.0625 -0.84375 2.921875 -0.8125 2.75 -0.8125 C 2.4375 -0.8125 2.328125 -1 2.328125 -1.359375 L 2.328125 -9.59375 L 1.15625 -9.453125 L 1.15625 -1.328125 C 1.15625 -0.375 1.703125 0.15625 2.5625 0.15625 Z M 2.5625 0.15625 "/>
</g>
<g id="glyph-0-2">
<path d="M 5.765625 -1.578125 L 5.765625 -4.65625 C 5.765625 -6.0625 5.015625 -6.890625 3.390625 -6.890625 C 2.640625 -6.890625 1.890625 -6.75 1.0625 -6.4375 L 1.359375 -5.578125 C 2.046875 -5.8125 2.671875 -5.9375 3.171875 -5.9375 C 4.109375 -5.9375 4.578125 -5.578125 4.578125 -4.609375 L 4.578125 -4.109375 L 3.546875 -4.109375 C 1.65625 -4.109375 0.578125 -3.328125 0.578125 -1.875 C 0.578125 -0.671875 1.375 0.15625 2.71875 0.15625 C 3.546875 0.15625 4.265625 -0.15625 4.734375 -0.859375 C 4.9375 -0.1875 5.375 0.078125 6.046875 0.15625 L 6.328125 -0.671875 C 5.96875 -0.796875 5.765625 -0.984375 5.765625 -1.578125 Z M 3 -0.734375 C 2.234375 -0.734375 1.828125 -1.15625 1.828125 -1.9375 C 1.828125 -2.859375 2.453125 -3.328125 3.703125 -3.328125 L 4.578125 -3.328125 L 4.578125 -1.78125 C 4.203125 -1.078125 3.6875 -0.734375 3 -0.734375 Z M 3 -0.734375 "/>
</g>
<g id="glyph-0-3">
<path d="M 7.984375 -6.890625 C 7.078125 -6.890625 6.46875 -6.40625 5.96875 -5.6875 C 5.71875 -6.453125 5.109375 -6.890625 4.28125 -6.890625 C 3.390625 -6.890625 2.78125 -6.4375 2.328125 -5.765625 L 2.234375 -6.75 L 1.21875 -6.75 L 1.21875 0 L 2.390625 0 L 2.390625 -4.78125 C 2.84375 -5.5 3.25 -5.96875 3.984375 -5.96875 C 4.484375 -5.96875 4.921875 -5.6875 4.921875 -4.671875 L 4.921875 0 L 6.109375 0 L 6.109375 -4.78125 C 6.5625 -5.5 6.96875 -5.96875 7.6875 -5.96875 C 8.203125 -5.96875 8.640625 -5.6875 8.640625 -4.671875 L 8.640625 0 L 9.8125 0 L 9.8125 -4.84375 C 9.8125 -6.109375 9.078125 -6.890625 7.984375 -6.890625 Z M 7.984375 -6.890625 "/>
</g>
<g id="glyph-0-4">
<path d="M 4.296875 -6.890625 C 3.484375 -6.890625 2.859375 -6.53125 2.390625 -5.90625 L 2.390625 -9.59375 L 1.21875 -9.453125 L 1.21875 0 L 2.25 0 L 2.375 -0.75 C 2.828125 -0.171875 3.421875 0.15625 4.15625 0.15625 C 5.796875 0.15625 6.8125 -1.265625 6.8125 -3.375 C 6.8125 -5.625 5.828125 -6.890625 4.296875 -6.890625 Z M 3.875 -0.78125 C 3.28125 -0.78125 2.734375 -1.15625 2.390625 -1.6875 L 2.390625 -4.90625 C 2.734375 -5.453125 3.21875 -5.96875 3.96875 -5.96875 C 4.90625 -5.96875 5.546875 -5.296875 5.546875 -3.375 C 5.546875 -1.53125 4.859375 -0.78125 3.875 -0.78125 Z M 3.875 -0.78125 "/>
</g>
<g id="glyph-0-5">
<path d="M 5.265625 -9.59375 L 5.265625 -6.0625 C 4.8125 -6.546875 4.234375 -6.890625 3.4375 -6.890625 C 1.796875 -6.890625 0.796875 -5.40625 0.796875 -3.34375 C 0.796875 -1.234375 1.703125 0.15625 3.34375 0.15625 C 4.171875 0.15625 4.84375 -0.25 5.28125 -0.9375 L 5.40625 0 L 6.4375 0 L 6.4375 -9.453125 Z M 3.59375 -0.78125 C 2.625 -0.78125 2.0625 -1.59375 2.0625 -3.359375 C 2.0625 -5.125 2.6875 -5.96875 3.703125 -5.96875 C 4.359375 -5.96875 4.84375 -5.625 5.265625 -5.078125 L 5.265625 -1.78125 C 4.8125 -1.15625 4.34375 -0.78125 3.59375 -0.78125 Z M 3.59375 -0.78125 "/>
</g>
<g id="glyph-0-6">
<path d="M 0.796875 -4.984375 L 5.609375 -4.984375 L 5.609375 -5.96875 L 0.796875 -5.96875 Z M 0.796875 -2.515625 L 5.609375 -2.515625 L 5.609375 -3.5 L 0.796875 -3.5 Z M 0.796875 -2.515625 "/>
</g>
<g id="glyph-0-7">
<path d="M 4.140625 -8.5625 L 3.09375 -8.5625 L 0.453125 -6.921875 L 0.953125 -6.09375 L 2.953125 -7.3125 L 2.953125 0 L 4.140625 0 Z M 4.140625 -8.5625 "/>
</g>
<g id="glyph-0-8">
<path d="M 3.578125 -8.6875 C 1.65625 -8.6875 0.703125 -7.109375 0.703125 -4.28125 C 0.703125 -1.4375 1.65625 0.15625 3.578125 0.15625 C 5.484375 0.15625 6.4375 -1.4375 6.4375 -4.28125 C 6.4375 -7.109375 5.484375 -8.6875 3.578125 -8.6875 Z M 3.578125 -7.75 C 4.625 -7.75 5.203125 -6.78125 5.203125 -4.28125 C 5.203125 -1.75 4.625 -0.78125 3.578125 -0.78125 C 2.5 -0.78125 1.9375 -1.75 1.9375 -4.28125 C 1.9375 -6.78125 2.5 -7.75 3.578125 -7.75 Z M 3.578125 -7.75 "/>
</g>
<g id="glyph-0-9">
<path d="M 6.421875 -3.046875 L 5.3125 -3.046875 L 5.3125 -5.34375 L 4.28125 -5.34375 L 4.1875 -3.046875 L 1.75 -3.046875 L 4.0625 -8.28125 L 3.078125 -8.6875 L 0.515625 -2.953125 L 0.515625 -2.109375 L 4.171875 -2.109375 L 4.171875 0 L 5.3125 0 L 5.3125 -2.109375 L 6.421875 -2.109375 Z M 6.421875 -3.046875 "/>
</g>
<g id="glyph-0-10">
<path d="M 5.546875 -8.5625 L 0.90625 -8.5625 L 0.90625 -4.25 L 1.828125 -4.25 C 2.234375 -4.4375 2.578125 -4.546875 3.046875 -4.546875 C 3.921875 -4.546875 4.609375 -4.078125 4.609375 -2.765625 C 4.609375 -1.515625 3.921875 -0.8125 2.859375 -0.8125 C 2.109375 -0.8125 1.5625 -1.078125 1.046875 -1.625 L 0.328125 -0.9375 C 1 -0.25 1.78125 0.15625 2.859375 0.15625 C 4.640625 0.15625 5.828125 -1.03125 5.828125 -2.734375 C 5.828125 -4.4375 4.84375 -5.453125 3.40625 -5.453125 C 2.9375 -5.453125 2.484375 -5.34375 2.03125 -5.125 L 2.03125 -7.640625 L 5.375 -7.640625 Z M 5.546875 -8.5625 "/>
</g>
<g id="glyph-0-11">
<path d="M 2.921875 -8.6875 C 1.84375 -8.6875 1.015625 -8.25 0.3125 -7.390625 L 1.109375 -6.78125 C 1.65625 -7.4375 2.140625 -7.71875 2.859375 -7.71875 C 3.6875 -7.71875 4.265625 -7.1875 4.265625 -6.296875 C 4.265625 -4.90625 3.515625 -4.078125 0.5 -0.9375 L 0.5 0 L 5.546875 0 L 5.6875 -0.984375 L 1.84375 -0.984375 C 4.46875 -3.609375 5.484375 -4.75 5.484375 -6.34375 C 5.484375 -7.671875 4.484375 -8.6875 2.921875 -8.6875 Z M 2.921875 -8.6875 "/>
</g>
<g id="glyph-0-12">
<path d="M 1.515625 -1.625 C 1.03125 -1.625 0.640625 -1.234375 0.640625 -0.75 C 0.640625 -0.25 1.03125 0.15625 1.515625 0.15625 C 2.03125 0.15625 2.421875 -0.25 2.421875 -0.75 C 2.421875 -1.234375 2.03125 -1.625 1.515625 -1.625 Z M 1.515625 -1.625 "/>
</g>
<g id="glyph-0-13">
<path d="M 2.875 -8.6875 C 1.953125 -8.6875 1.171875 -8.359375 0.4375 -7.671875 L 1.046875 -6.96875 C 1.625 -7.515625 2.140625 -7.734375 2.8125 -7.734375 C 3.671875 -7.734375 4.234375 -7.25 4.234375 -6.4375 C 4.234375 -5.4375 3.53125 -4.921875 2.6875 -4.921875 L 2.25 -4.921875 L 2.109375 -4.015625 L 2.75 -4.015625 C 3.78125 -4.015625 4.453125 -3.65625 4.453125 -2.484375 C 4.453125 -1.46875 3.796875 -0.8125 2.71875 -0.8125 C 2.03125 -0.8125 1.453125 -1.0625 0.890625 -1.65625 L 0.1875 -1 C 0.84375 -0.21875 1.734375 0.15625 2.765625 0.15625 C 4.546875 0.15625 5.6875 -0.96875 5.6875 -2.46875 C 5.6875 -3.765625 4.828125 -4.4375 3.75 -4.546875 C 4.703125 -4.765625 5.40625 -5.421875 5.40625 -6.515625 C 5.40625 -7.671875 4.515625 -8.6875 2.875 -8.6875 Z M 2.875 -8.6875 "/>
</g>
<g id="glyph-1-0">
<path d="M 8.6875 -16.796875 L 1.96875 -16.796875 L 1.96875 5.59375 L 8.6875 5.59375 Z M 7.828125 -15.96875 L 7.828125 4.765625 L 2.84375 4.765625 L 2.84375 -15.96875 Z M 5.1875 -7.21875 C 4.5625 -7.21875 3.703125 -7.03125 3.703125 -6.59375 C 3.703125 -6.390625 3.84375 -6.21875 4.078125 -6.21875 C 4.140625 -6.21875 4.203125 -6.234375 4.28125 -6.265625 C 4.5625 -6.40625 4.78125 -6.453125 5.125 -6.453125 C 5.921875 -6.453125 6.09375 -5.96875 6.09375 -5.34375 C 6.09375 -4.5 5.796875 -4.171875 4.640625 -4.109375 L 4.640625 -2.765625 C 4.640625 -2.53125 4.828125 -2.390625 5.046875 -2.390625 C 5.234375 -2.390625 5.4375 -2.53125 5.4375 -2.765625 L 5.4375 -3.484375 C 6.515625 -3.640625 6.953125 -4.25 6.953125 -5.375 C 6.953125 -6.34375 6.5625 -7.21875 5.1875 -7.21875 Z M 5.046875 -1.921875 C 4.71875 -1.921875 4.484375 -1.6875 4.484375 -1.359375 C 4.484375 -1.03125 4.71875 -0.765625 5.046875 -0.765625 C 5.359375 -0.765625 5.59375 -1.03125 5.59375 -1.359375 C 5.59375 -1.6875 5.359375 -1.921875 5.046875 -1.921875 Z M 5.046875 -1.921875 "/>
</g>
<g id="glyph-1-1">
<path d="M 5.453125 -11.21875 C 2.953125 -11.21875 0.875 -9.25 0.875 -5.515625 C 0.875 -1.8125 2.8125 0.1875 5.484375 0.1875 C 6.96875 0.1875 8.046875 -0.421875 8.640625 -1.046875 L 7.875 -2.015625 C 7.25 -1.546875 6.578125 -1.09375 5.53125 -1.09375 C 3.828125 -1.09375 2.5 -2.34375 2.5 -5.515625 C 2.5 -8.84375 3.890625 -9.96875 5.546875 -9.96875 C 6.3125 -9.96875 6.984375 -9.71875 7.6875 -9.15625 L 8.515625 -10.125 C 7.625 -10.828125 6.84375 -11.21875 5.453125 -11.21875 Z M 5.453125 -11.21875 "/>
</g>
<g id="glyph-1-2">
<path d="M 4.6875 -8.625 C 2.28125 -8.625 0.90625 -6.8125 0.90625 -4.203125 C 0.90625 -1.53125 2.265625 0.1875 4.671875 0.1875 C 7.0625 0.1875 8.4375 -1.609375 8.4375 -4.21875 C 8.4375 -6.890625 7.09375 -8.625 4.6875 -8.625 Z M 4.6875 -7.4375 C 6.078125 -7.4375 6.84375 -6.421875 6.84375 -4.21875 C 6.84375 -2.015625 6.078125 -0.984375 4.671875 -0.984375 C 3.265625 -0.984375 2.5 -2.015625 2.5 -4.203125 C 2.5 -6.421875 3.28125 -7.4375 4.6875 -7.4375 Z M 4.6875 -7.4375 "/>
</g>
<g id="glyph-1-3">
<path d="M 7.796875 -8.4375 L 6.3125 -8.4375 L 6.3125 -2.421875 C 5.8125 -1.5625 5.125 -0.953125 4.203125 -0.953125 C 3.296875 -0.953125 2.90625 -1.390625 2.90625 -2.546875 L 2.90625 -8.4375 L 1.4375 -8.4375 L 1.4375 -2.390625 C 1.4375 -0.734375 2.3125 0.1875 3.796875 0.1875 C 4.984375 0.1875 5.78125 -0.28125 6.421875 -1.3125 L 6.53125 0 L 7.796875 0 Z M 7.796875 -8.4375 "/>
</g>
<g id="glyph-1-4">
<path d="M 5.484375 -8.625 C 4.390625 -8.625 3.484375 -8.046875 2.90625 -7.1875 L 2.78125 -8.4375 L 1.515625 -8.4375 L 1.515625 0 L 2.984375 0 L 2.984375 -5.984375 C 3.546875 -6.875 4.1875 -7.46875 5.140625 -7.46875 C 5.953125 -7.46875 6.46875 -7.109375 6.46875 -5.84375 L 6.46875 0 L 7.9375 0 L 7.9375 -6.046875 C 7.9375 -7.640625 7.046875 -8.625 5.484375 -8.625 Z M 5.484375 -8.625 "/>
</g>
<g id="glyph-1-5">
<path d="M 5.21875 -1.390625 C 4.796875 -1.140625 4.46875 -1.03125 4.09375 -1.03125 C 3.359375 -1.03125 3.09375 -1.421875 3.09375 -2.265625 L 3.09375 -7.296875 L 4.921875 -7.296875 L 5.09375 -8.4375 L 3.09375 -8.4375 L 3.09375 -10.515625 L 1.609375 -10.34375 L 1.609375 -8.4375 L 0.140625 -8.4375 L 0.140625 -7.296875 L 1.609375 -7.296875 L 1.609375 -2.203125 C 1.609375 -0.640625 2.46875 0.1875 3.890625 0.1875 C 4.609375 0.1875 5.21875 0 5.78125 -0.390625 Z M 5.21875 -1.390625 "/>
</g>
<g id="glyph-1-6">
<path d="M 5.390625 -8.625 C 4.4375 -8.625 3.515625 -8.15625 2.890625 -7.296875 L 2.78125 -8.4375 L 1.515625 -8.4375 L 1.515625 3.40625 L 2.984375 3.234375 L 2.984375 -0.765625 C 3.53125 -0.109375 4.28125 0.1875 5.203125 0.1875 C 7.375 0.1875 8.515625 -1.65625 8.515625 -4.21875 C 8.515625 -6.875 7.625 -8.625 5.390625 -8.625 Z M 4.84375 -1.015625 C 4.078125 -1.015625 3.421875 -1.375 2.984375 -2.03125 L 2.984375 -6.140625 C 3.4375 -6.8125 4.125 -7.453125 5.03125 -7.453125 C 6.28125 -7.453125 6.921875 -6.421875 6.921875 -4.21875 C 6.921875 -2.015625 6.1875 -1.015625 4.84375 -1.015625 Z M 4.84375 -1.015625 "/>
</g>
<g id="glyph-1-7">
<path d="M 7.203125 -1.96875 L 7.203125 -5.828125 C 7.203125 -7.578125 6.265625 -8.625 4.234375 -8.625 C 3.296875 -8.625 2.375 -8.4375 1.328125 -8.046875 L 1.703125 -6.96875 C 2.5625 -7.265625 3.34375 -7.421875 3.96875 -7.421875 C 5.140625 -7.421875 5.734375 -6.96875 5.734375 -5.765625 L 5.734375 -5.140625 L 4.4375 -5.140625 C 2.078125 -5.140625 0.71875 -4.15625 0.71875 -2.359375 C 0.71875 -0.84375 1.734375 0.1875 3.40625 0.1875 C 4.4375 0.1875 5.328125 -0.1875 5.921875 -1.078125 C 6.171875 -0.234375 6.71875 0.09375 7.5625 0.1875 L 7.90625 -0.828125 C 7.46875 -0.984375 7.203125 -1.234375 7.203125 -1.96875 Z M 3.75 -0.90625 C 2.78125 -0.90625 2.28125 -1.4375 2.28125 -2.4375 C 2.28125 -3.578125 3.078125 -4.15625 4.625 -4.15625 L 5.734375 -4.15625 L 5.734375 -2.21875 C 5.25 -1.34375 4.609375 -0.90625 3.75 -0.90625 Z M 3.75 -0.90625 "/>
</g>
<g id="glyph-1-8">
<path d="M 5.1875 -8.625 C 4.15625 -8.625 3.375 -7.984375 2.921875 -6.71875 L 2.78125 -8.4375 L 1.515625 -8.4375 L 1.515625 0 L 2.984375 0 L 2.984375 -4.8125 C 3.34375 -6.4375 3.953125 -7.1875 5.015625 -7.1875 C 5.3125 -7.1875 5.484375 -7.15625 5.75 -7.09375 L 6.015625 -8.53125 C 5.765625 -8.59375 5.453125 -8.625 5.1875 -8.625 Z M 5.1875 -8.625 "/>
</g>
<g id="glyph-1-9">
<path d="M 9.984375 -8.625 C 8.84375 -8.625 8.078125 -8.015625 7.46875 -7.109375 C 7.15625 -8.0625 6.390625 -8.625 5.34375 -8.625 C 4.234375 -8.625 3.46875 -8.046875 2.90625 -7.203125 L 2.78125 -8.4375 L 1.515625 -8.4375 L 1.515625 0 L 2.984375 0 L 2.984375 -5.984375 C 3.546875 -6.875 4.0625 -7.46875 4.96875 -7.46875 C 5.609375 -7.46875 6.15625 -7.109375 6.15625 -5.84375 L 6.15625 0 L 7.625 0 L 7.625 -5.984375 C 8.203125 -6.875 8.703125 -7.46875 9.609375 -7.46875 C 10.25 -7.46875 10.796875 -7.109375 10.796875 -5.84375 L 10.796875 0 L 12.265625 0 L 12.265625 -6.046875 C 12.265625 -7.625 11.359375 -8.625 9.984375 -8.625 Z M 9.984375 -8.625 "/>
</g>
<g id="glyph-1-10">
<path d="M 3.8125 -8.625 C 2.0625 -8.625 0.765625 -7.640625 0.765625 -6.296875 C 0.765625 -5.125 1.484375 -4.34375 3.3125 -3.859375 C 4.9375 -3.421875 5.359375 -3.109375 5.359375 -2.265625 C 5.359375 -1.46875 4.65625 -0.984375 3.546875 -0.984375 C 2.640625 -0.984375 1.859375 -1.296875 1.1875 -1.8125 L 0.40625 -0.90625 C 1.140625 -0.265625 2.15625 0.1875 3.578125 0.1875 C 5.296875 0.1875 6.90625 -0.609375 6.90625 -2.375 C 6.90625 -3.84375 5.890625 -4.546875 4.109375 -4.984375 C 2.75 -5.34375 2.296875 -5.65625 2.296875 -6.359375 C 2.296875 -7.03125 2.890625 -7.453125 3.859375 -7.453125 C 4.640625 -7.453125 5.296875 -7.21875 6.046875 -6.734375 L 6.671875 -7.65625 C 5.875 -8.265625 4.984375 -8.625 3.8125 -8.625 Z M 3.8125 -8.625 "/>
</g>
<g id="glyph-2-0">
<path d="M -16.796875 -8.6875 L -16.796875 -1.96875 L 5.59375 -1.96875 L 5.59375 -8.6875 Z M -15.96875 -7.828125 L 4.765625 -7.828125 L 4.765625 -2.84375 L -15.96875 -2.84375 Z M -7.21875 -5.1875 C -7.21875 -4.5625 -7.03125 -3.703125 -6.59375 -3.703125 C -6.390625 -3.703125 -6.21875 -3.84375 -6.21875 -4.078125 C -6.21875 -4.140625 -6.234375 -4.203125 -6.265625 -4.28125 C -6.40625 -4.5625 -6.453125 -4.78125 -6.453125 -5.125 C -6.453125 -5.921875 -5.96875 -6.09375 -5.34375 -6.09375 C -4.5 -6.09375 -4.171875 -5.796875 -4.109375 -4.640625 L -2.765625 -4.640625 C -2.53125 -4.640625 -2.390625 -4.828125 -2.390625 -5.046875 C -2.390625 -5.234375 -2.53125 -5.4375 -2.765625 -5.4375 L -3.484375 -5.4375 C -3.640625 -6.515625 -4.25 -6.953125 -5.375 -6.953125 C -6.34375 -6.953125 -7.21875 -6.5625 -7.21875 -5.1875 Z M -1.921875 -5.046875 C -1.921875 -4.71875 -1.6875 -4.484375 -1.359375 -4.484375 C -1.03125 -4.484375 -0.765625 -4.71875 -0.765625 -5.046875 C -0.765625 -5.359375 -1.03125 -5.59375 -1.359375 -5.59375 C -1.6875 -5.59375 -1.921875 -5.359375 -1.921875 -5.046875 Z M -1.921875 -5.046875 "/>
</g>
<g id="glyph-2-1">
<path d="M -11.03125 -4.5 L -11.03125 -1.59375 L 0 -1.59375 L 0 -3.125 L -4.046875 -3.125 L -4.046875 -4.515625 C -4.046875 -6.9375 -5.09375 -8.78125 -7.609375 -8.78125 C -9.9375 -8.78125 -11.03125 -7.15625 -11.03125 -4.5 Z M -5.25 -4.453125 L -5.25 -3.125 L -9.84375 -3.125 L -9.84375 -4.484375 C -9.84375 -6.109375 -9.25 -7.171875 -7.59375 -7.171875 C -5.734375 -7.171875 -5.25 -6.078125 -5.25 -4.453125 Z M -5.25 -4.453125 "/>
</g>
<g id="glyph-2-2">
<path d="M -8.625 -5.1875 C -8.625 -4.15625 -7.984375 -3.375 -6.71875 -2.921875 L -8.4375 -2.78125 L -8.4375 -1.515625 L 0 -1.515625 L 0 -2.984375 L -4.8125 -2.984375 C -6.4375 -3.34375 -7.1875 -3.953125 -7.1875 -5.015625 C -7.1875 -5.3125 -7.15625 -5.484375 -7.09375 -5.75 L -8.53125 -6.015625 C -8.59375 -5.765625 -8.625 -5.453125 -8.625 -5.1875 Z M -8.625 -5.1875 "/>
</g>
<g id="glyph-2-3">
<path d="M -8.625 -4.6875 C -8.625 -2.28125 -6.8125 -0.90625 -4.203125 -0.90625 C -1.53125 -0.90625 0.1875 -2.265625 0.1875 -4.671875 C 0.1875 -7.0625 -1.609375 -8.4375 -4.21875 -8.4375 C -6.890625 -8.4375 -8.625 -7.09375 -8.625 -4.6875 Z M -7.4375 -4.6875 C -7.4375 -6.078125 -6.421875 -6.84375 -4.21875 -6.84375 C -2.015625 -6.84375 -0.984375 -6.078125 -0.984375 -4.671875 C -0.984375 -3.265625 -2.015625 -2.5 -4.203125 -2.5 C -6.421875 -2.5 -7.4375 -3.28125 -7.4375 -4.6875 Z M -7.4375 -4.6875 "/>
</g>
<g id="glyph-2-4">
<path d="M -8.625 -5.375 C -8.625 -4.359375 -8.15625 -3.5625 -7.375 -2.984375 L -12 -2.984375 L -11.828125 -1.515625 L 0 -1.515625 L 0 -2.8125 L -0.921875 -2.953125 C -0.21875 -3.53125 0.1875 -4.265625 0.1875 -5.203125 C 0.1875 -7.25 -1.578125 -8.515625 -4.21875 -8.515625 C -7.046875 -8.515625 -8.625 -7.28125 -8.625 -5.375 Z M -0.96875 -4.84375 C -0.96875 -4.09375 -1.4375 -3.421875 -2.109375 -2.984375 L -6.140625 -2.984375 C -6.8125 -3.421875 -7.453125 -4.03125 -7.453125 -4.953125 C -7.453125 -6.140625 -6.625 -6.921875 -4.21875 -6.921875 C -1.921875 -6.921875 -0.96875 -6.078125 -0.96875 -4.84375 Z M -0.96875 -4.84375 "/>
</g>
<g id="glyph-2-5">
<path d="M -1.96875 -7.203125 L -5.828125 -7.203125 C -7.578125 -7.203125 -8.625 -6.265625 -8.625 -4.234375 C -8.625 -3.296875 -8.4375 -2.375 -8.046875 -1.328125 L -6.96875 -1.703125 C -7.265625 -2.5625 -7.421875 -3.34375 -7.421875 -3.96875 C -7.421875 -5.140625 -6.96875 -5.734375 -5.765625 -5.734375 L -5.140625 -5.734375 L -5.140625 -4.4375 C -5.140625 -2.078125 -4.15625 -0.71875 -2.359375 -0.71875 C -0.84375 -0.71875 0.1875 -1.734375 0.1875 -3.40625 C 0.1875 -4.4375 -0.1875 -5.328125 -1.078125 -5.921875 C -0.234375 -6.171875 0.09375 -6.71875 0.1875 -7.5625 L -0.828125 -7.90625 C -0.984375 -7.46875 -1.234375 -7.203125 -1.96875 -7.203125 Z M -0.90625 -3.75 C -0.90625 -2.78125 -1.4375 -2.28125 -2.4375 -2.28125 C -3.578125 -2.28125 -4.15625 -3.078125 -4.15625 -4.625 L -4.15625 -5.734375 L -2.21875 -5.734375 C -1.34375 -5.25 -0.90625 -4.609375 -0.90625 -3.75 Z M -0.90625 -3.75 "/>
</g>
<g id="glyph-2-6">
<path d="M -12.484375 -2.234375 C -12.484375 -1.625 -12.046875 -1.21875 -11.46875 -1.21875 C -10.90625 -1.21875 -10.484375 -1.625 -10.484375 -2.234375 C -10.484375 -2.859375 -10.90625 -3.28125 -11.46875 -3.28125 C -12.046875 -3.28125 -12.484375 -2.859375 -12.484375 -2.234375 Z M -8.4375 -2.984375 L -8.4375 -1.515625 L 0 -1.515625 L 0 -2.984375 Z M -8.4375 -2.984375 "/>
</g>
<g id="glyph-2-7">
<path d="M 0.1875 -3.203125 C 0.1875 -3.625 0.078125 -4.046875 -0.09375 -4.375 L -1.125 -3.984375 C -1.0625 -3.828125 -1.03125 -3.640625 -1.03125 -3.4375 C -1.03125 -3.0625 -1.25 -2.90625 -1.703125 -2.90625 L -12 -2.90625 L -11.828125 -1.4375 L -1.65625 -1.4375 C -0.46875 -1.4375 0.1875 -2.125 0.1875 -3.203125 Z M 0.1875 -3.203125 "/>
</g>
<g id="glyph-2-8">
<path d="M -1.390625 -5.21875 C -1.140625 -4.796875 -1.03125 -4.46875 -1.03125 -4.09375 C -1.03125 -3.359375 -1.421875 -3.09375 -2.265625 -3.09375 L -7.296875 -3.09375 L -7.296875 -4.921875 L -8.4375 -5.09375 L -8.4375 -3.09375 L -10.515625 -3.09375 L -10.34375 -1.609375 L -8.4375 -1.609375 L -8.4375 -0.140625 L -7.296875 -0.140625 L -7.296875 -1.609375 L -2.203125 -1.609375 C -0.640625 -1.609375 0.1875 -2.46875 0.1875 -3.890625 C 0.1875 -4.609375 0 -5.21875 -0.390625 -5.78125 Z M -1.390625 -5.21875 "/>
</g>
<g id="glyph-2-9">
<path d="M -8.4375 -7.71875 L -8.4375 -6.1875 L -1.078125 -3.984375 L -8.4375 -1.734375 L -8.4375 -0.15625 L 0 -2.984375 L 0 -3.484375 C 1.3125 -3.015625 1.96875 -2.53125 2.25 -0.8125 L 3.40625 -0.96875 C 3.15625 -3.3125 1.84375 -4.296875 0.046875 -4.890625 Z M -8.4375 -7.71875 "/>
</g>
<g id="glyph-2-10">
</g>
<g id="glyph-2-11">
<path d="M -11.03125 -10.546875 L -11.03125 -8.484375 L -3.015625 -6.265625 L -11.03125 -3.953125 L -11.03125 -1.90625 L 0 -0.984375 L 0 -2.4375 L -4.859375 -2.796875 C -6.484375 -2.921875 -8.1875 -3.015625 -9.484375 -3.015625 L -1.25 -5.515625 L -1.25 -6.9375 L -9.46875 -9.328125 C -8.5625 -9.34375 -6.703125 -9.453125 -4.96875 -9.59375 L 0 -9.984375 L 0 -11.453125 Z M -11.03125 -10.546875 "/>
</g>
<g id="glyph-2-12">
<path d="M -8.625 -3.8125 C -8.625 -2.0625 -7.640625 -0.765625 -6.296875 -0.765625 C -5.125 -0.765625 -4.34375 -1.484375 -3.859375 -3.3125 C -3.421875 -4.9375 -3.109375 -5.359375 -2.265625 -5.359375 C -1.46875 -5.359375 -0.984375 -4.65625 -0.984375 -3.546875 C -0.984375 -2.640625 -1.296875 -1.859375 -1.8125 -1.1875 L -0.90625 -0.40625 C -0.265625 -1.140625 0.1875 -2.15625 0.1875 -3.578125 C 0.1875 -5.296875 -0.609375 -6.90625 -2.375 -6.90625 C -3.84375 -6.90625 -4.546875 -5.890625 -4.984375 -4.109375 C -5.34375 -2.75 -5.65625 -2.296875 -6.359375 -2.296875 C -7.03125 -2.296875 -7.453125 -2.890625 -7.453125 -3.859375 C -7.453125 -4.640625 -7.21875 -5.296875 -6.734375 -6.046875 L -7.65625 -6.671875 C -8.265625 -5.875 -8.625 -4.984375 -8.625 -3.8125 Z M -8.625 -3.8125 "/>
</g>
</g>
<clipPath id="clip-0">
<path clip-rule="nonzero" d="M 52.128906 324 L 242.074219 324 L 242.074219 326 L 52.128906 326 Z M 52.128906 324 "/>
</clipPath>
<clipPath id="clip-1">
<path clip-rule="nonzero" d="M 52.128906 237 L 242.074219 237 L 242.074219 239 L 52.128906 239 Z M 52.128906 237 "/>
</clipPath>
<clipPath id="clip-2">
<path clip-rule="nonzero" d="M 52.128906 150 L 242.074219 150 L 242.074219 152 L 52.128906 152 Z M 52.128906 150 "/>
</clipPath>
<clipPath id="clip-3">
<path clip-rule="nonzero" d="M 52.128906 63 L 242.074219 63 L 242.074219 65 L 52.128906 65 Z M 52.128906 63 "/>
</clipPath>
<clipPath id="clip-4">
<path clip-rule="nonzero" d="M 84 32.722656 L 86 32.722656 L 86 384.871094 L 84 384.871094 Z M 84 32.722656 "/>
</clipPath>
<clipPath id="clip-5">
<path clip-rule="nonzero" d="M 126 32.722656 L 127 32.722656 L 127 384.871094 L 126 384.871094 Z M 126 32.722656 "/>
</clipPath>
<clipPath id="clip-6">
<path clip-rule="nonzero" d="M 167 32.722656 L 169 32.722656 L 169 384.871094 L 167 384.871094 Z M 167 32.722656 "/>
</clipPath>
<clipPath id="clip-7">
<path clip-rule="nonzero" d="M 208 32.722656 L 210 32.722656 L 210 384.871094 L 208 384.871094 Z M 208 32.722656 "/>
</clipPath>
<clipPath id="clip-8">
<path clip-rule="nonzero" d="M 52.128906 368 L 242.074219 368 L 242.074219 370 L 52.128906 370 Z M 52.128906 368 "/>
</clipPath>
<clipPath id="clip-9">
<path clip-rule="nonzero" d="M 52.128906 281 L 242.074219 281 L 242.074219 283 L 52.128906 283 Z M 52.128906 281 "/>
</clipPath>
<clipPath id="clip-10">
<path clip-rule="nonzero" d="M 52.128906 194 L 242.074219 194 L 242.074219 196 L 52.128906 196 Z M 52.128906 194 "/>
</clipPath>
<clipPath id="clip-11">
<path clip-rule="nonzero" d="M 52.128906 107 L 242.074219 107 L 242.074219 109 L 52.128906 109 Z M 52.128906 107 "/>
</clipPath>
<clipPath id="clip-12">
<path clip-rule="nonzero" d="M 63 32.722656 L 66 32.722656 L 66 384.871094 L 63 384.871094 Z M 63 32.722656 "/>
</clipPath>
<clipPath id="clip-13">
<path clip-rule="nonzero" d="M 105 32.722656 L 107 32.722656 L 107 384.871094 L 105 384.871094 Z M 105 32.722656 "/>
</clipPath>
<clipPath id="clip-14">
<path clip-rule="nonzero" d="M 146 32.722656 L 148 32.722656 L 148 384.871094 L 146 384.871094 Z M 146 32.722656 "/>
</clipPath>
<clipPath id="clip-15">
<path clip-rule="nonzero" d="M 187 32.722656 L 190 32.722656 L 190 384.871094 L 187 384.871094 Z M 187 32.722656 "/>
</clipPath>
<clipPath id="clip-16">
<path clip-rule="nonzero" d="M 228 32.722656 L 231 32.722656 L 231 384.871094 L 228 384.871094 Z M 228 32.722656 "/>
</clipPath>
<clipPath id="clip-17">
<path clip-rule="nonzero" d="M 250.042969 324 L 439.988281 324 L 439.988281 326 L 250.042969 326 Z M 250.042969 324 "/>
</clipPath>
<clipPath id="clip-18">
<path clip-rule="nonzero" d="M 250.042969 237 L 439.988281 237 L 439.988281 239 L 250.042969 239 Z M 250.042969 237 "/>
</clipPath>
<clipPath id="clip-19">
<path clip-rule="nonzero" d="M 250.042969 150 L 439.988281 150 L 439.988281 152 L 250.042969 152 Z M 250.042969 150 "/>
</clipPath>
<clipPath id="clip-20">
<path clip-rule="nonzero" d="M 250.042969 63 L 439.988281 63 L 439.988281 65 L 250.042969 65 Z M 250.042969 63 "/>
</clipPath>
<clipPath id="clip-21">
<path clip-rule="nonzero" d="M 282 32.722656 L 284 32.722656 L 284 384.871094 L 282 384.871094 Z M 282 32.722656 "/>
</clipPath>
<clipPath id="clip-22">
<path clip-rule="nonzero" d="M 323 32.722656 L 325 32.722656 L 325 384.871094 L 323 384.871094 Z M 323 32.722656 "/>
</clipPath>
<clipPath id="clip-23">
<path clip-rule="nonzero" d="M 365 32.722656 L 367 32.722656 L 367 384.871094 L 365 384.871094 Z M 365 32.722656 "/>
</clipPath>
<clipPath id="clip-24">
<path clip-rule="nonzero" d="M 406 32.722656 L 408 32.722656 L 408 384.871094 L 406 384.871094 Z M 406 32.722656 "/>
</clipPath>
<clipPath id="clip-25">
<path clip-rule="nonzero" d="M 250.042969 368 L 439.988281 368 L 439.988281 370 L 250.042969 370 Z M 250.042969 368 "/>
</clipPath>
<clipPath id="clip-26">
<path clip-rule="nonzero" d="M 250.042969 281 L 439.988281 281 L 439.988281 283 L 250.042969 283 Z M 250.042969 281 "/>
</clipPath>
<clipPath id="clip-27">
<path clip-rule="nonzero" d="M 250.042969 194 L 439.988281 194 L 439.988281 196 L 250.042969 196 Z M 250.042969 194 "/>
</clipPath>
<clipPath id="clip-28">
<path clip-rule="nonzero" d="M 250.042969 107 L 439.988281 107 L 439.988281 109 L 250.042969 109 Z M 250.042969 107 "/>
</clipPath>
<clipPath id="clip-29">
<path clip-rule="nonzero" d="M 261 32.722656 L 264 32.722656 L 264 384.871094 L 261 384.871094 Z M 261 32.722656 "/>
</clipPath>
<clipPath id="clip-30">
<path clip-rule="nonzero" d="M 302 32.722656 L 305 32.722656 L 305 384.871094 L 302 384.871094 Z M 302 32.722656 "/>
</clipPath>
<clipPath id="clip-31">
<path clip-rule="nonzero" d="M 344 32.722656 L 346 32.722656 L 346 384.871094 L 344 384.871094 Z M 344 32.722656 "/>
</clipPath>
<clipPath id="clip-32">
<path clip-rule="nonzero" d="M 385 32.722656 L 388 32.722656 L 388 384.871094 L 385 384.871094 Z M 385 32.722656 "/>
</clipPath>
<clipPath id="clip-33">
<path clip-rule="nonzero" d="M 426 32.722656 L 429 32.722656 L 429 384.871094 L 426 384.871094 Z M 426 32.722656 "/>
</clipPath>
<clipPath id="clip-34">
<path clip-rule="nonzero" d="M 447.957031 324 L 637.902344 324 L 637.902344 326 L 447.957031 326 Z M 447.957031 324 "/>
</clipPath>
<clipPath id="clip-35">
<path clip-rule="nonzero" d="M 447.957031 237 L 637.902344 237 L 637.902344 239 L 447.957031 239 Z M 447.957031 237 "/>
</clipPath>
<clipPath id="clip-36">
<path clip-rule="nonzero" d="M 447.957031 150 L 637.902344 150 L 637.902344 152 L 447.957031 152 Z M 447.957031 150 "/>
</clipPath>
<clipPath id="clip-37">
<path clip-rule="nonzero" d="M 447.957031 63 L 637.902344 63 L 637.902344 65 L 447.957031 65 Z M 447.957031 63 "/>
</clipPath>
<clipPath id="clip-38">
<path clip-rule="nonzero" d="M 480 32.722656 L 482 32.722656 L 482 384.871094 L 480 384.871094 Z M 480 32.722656 "/>
</clipPath>
<clipPath id="clip-39">
<path clip-rule="nonzero" d="M 521 32.722656 L 523 32.722656 L 523 384.871094 L 521 384.871094 Z M 521 32.722656 "/>
</clipPath>
<clipPath id="clip-40">
<path clip-rule="nonzero" d="M 563 32.722656 L 564 32.722656 L 564 384.871094 L 563 384.871094 Z M 563 32.722656 "/>
</clipPath>
<clipPath id="clip-41">
<path clip-rule="nonzero" d="M 604 32.722656 L 606 32.722656 L 606 384.871094 L 604 384.871094 Z M 604 32.722656 "/>
</clipPath>
<clipPath id="clip-42">
<path clip-rule="nonzero" d="M 447.957031 368 L 637.902344 368 L 637.902344 370 L 447.957031 370 Z M 447.957031 368 "/>
</clipPath>
<clipPath id="clip-43">
<path clip-rule="nonzero" d="M 447.957031 281 L 637.902344 281 L 637.902344 283 L 447.957031 283 Z M 447.957031 281 "/>
</clipPath>
<clipPath id="clip-44">
<path clip-rule="nonzero" d="M 447.957031 194 L 637.902344 194 L 637.902344 196 L 447.957031 196 Z M 447.957031 194 "/>
</clipPath>
<clipPath id="clip-45">
<path clip-rule="nonzero" d="M 447.957031 107 L 637.902344 107 L 637.902344 109 L 447.957031 109 Z M 447.957031 107 "/>
</clipPath>
<clipPath id="clip-46">
<path clip-rule="nonzero" d="M 459 32.722656 L 462 32.722656 L 462 384.871094 L 459 384.871094 Z M 459 32.722656 "/>
</clipPath>
<clipPath id="clip-47">
<path clip-rule="nonzero" d="M 500 32.722656 L 503 32.722656 L 503 384.871094 L 500 384.871094 Z M 500 32.722656 "/>
</clipPath>
<clipPath id="clip-48">
<path clip-rule="nonzero" d="M 542 32.722656 L 544 32.722656 L 544 384.871094 L 542 384.871094 Z M 542 32.722656 "/>
</clipPath>
<clipPath id="clip-49">
<path clip-rule="nonzero" d="M 583 32.722656 L 586 32.722656 L 586 384.871094 L 583 384.871094 Z M 583 32.722656 "/>
</clipPath>
<clipPath id="clip-50">
<path clip-rule="nonzero" d="M 624 32.722656 L 627 32.722656 L 627 384.871094 L 624 384.871094 Z M 624 32.722656 "/>
</clipPath>
</defs>
<rect x="-76.7" y="-43.2" width="920.4" height="518.4" fill="rgb(100%, 100%, 100%)" fill-opacity="1"/>
<rect x="-76.7" y="-43.2" width="920.4" height="518.4" fill="rgb(100%, 100%, 100%)" fill-opacity="1"/>
<g clip-path="url(#clip-0)">
<path fill="none" stroke-width="0.775984" stroke-linecap="butt" stroke-linejoin="round" stroke="rgb(92.156863%, 92.156863%, 92.156863%)" stroke-opacity="1" stroke-miterlimit="10" d="M 52.128906 325.355469 L 242.070312 325.355469 "/>
</g>
<g clip-path="url(#clip-1)">
<path fill="none" stroke-width="0.775984" stroke-linecap="butt" stroke-linejoin="round" stroke="rgb(92.156863%, 92.156863%, 92.156863%)" stroke-opacity="1" stroke-miterlimit="10" d="M 52.128906 238.332031 L 242.070312 238.332031 "/>
</g>
<g clip-path="url(#clip-2)">
<path fill="none" stroke-width="0.775984" stroke-linecap="butt" stroke-linejoin="round" stroke="rgb(92.156863%, 92.156863%, 92.156863%)" stroke-opacity="1" stroke-miterlimit="10" d="M 52.128906 151.308594 L 242.070312 151.308594 "/>
</g>
<g clip-path="url(#clip-3)">
<path fill="none" stroke-width="0.775984" stroke-linecap="butt" stroke-linejoin="round" stroke="rgb(92.156863%, 92.156863%, 92.156863%)" stroke-opacity="1" stroke-miterlimit="10" d="M 52.128906 64.289062 L 242.070312 64.289062 "/>
</g>
<g clip-path="url(#clip-4)">
<path fill="none" stroke-width="0.775984" stroke-linecap="butt" stroke-linejoin="round" stroke="rgb(92.156863%, 92.156863%, 92.156863%)" stroke-opacity="1" stroke-miterlimit="10" d="M 85.136719 384.871094 L 85.136719 32.722656 "/>
</g>
<g clip-path="url(#clip-5)">
<path fill="none" stroke-width="0.775984" stroke-linecap="butt" stroke-linejoin="round" stroke="rgb(92.156863%, 92.156863%, 92.156863%)" stroke-opacity="1" stroke-miterlimit="10" d="M 126.445312 384.871094 L 126.445312 32.722656 "/>
</g>
<g clip-path="url(#clip-6)">
<path fill="none" stroke-width="0.775984" stroke-linecap="butt" stroke-linejoin="round" stroke="rgb(92.156863%, 92.156863%, 92.156863%)" stroke-opacity="1" stroke-miterlimit="10" d="M 167.753906 384.871094 L 167.753906 32.722656 "/>
</g>
<g clip-path="url(#clip-7)">
<path fill="none" stroke-width="0.775984" stroke-linecap="butt" stroke-linejoin="round" stroke="rgb(92.156863%, 92.156863%, 92.156863%)" stroke-opacity="1" stroke-miterlimit="10" d="M 209.066406 384.871094 L 209.066406 32.722656 "/>
</g>
<g clip-path="url(#clip-8)">
<path fill="none" stroke-width="1.551969" stroke-linecap="butt" stroke-linejoin="round" stroke="rgb(92.156863%, 92.156863%, 92.156863%)" stroke-opacity="1" stroke-miterlimit="10" d="M 52.128906 368.863281 L 242.070312 368.863281 "/>
</g>
<g clip-path="url(#clip-9)">
<path fill="none" stroke-width="1.551969" stroke-linecap="butt" stroke-linejoin="round" stroke="rgb(92.156863%, 92.156863%, 92.156863%)" stroke-opacity="1" stroke-miterlimit="10" d="M 52.128906 281.84375 L 242.070312 281.84375 "/>
</g>
<g clip-path="url(#clip-10)">
<path fill="none" stroke-width="1.551969" stroke-linecap="butt" stroke-linejoin="round" stroke="rgb(92.156863%, 92.156863%, 92.156863%)" stroke-opacity="1" stroke-miterlimit="10" d="M 52.128906 194.820312 L 242.070312 194.820312 "/>
</g>
<g clip-path="url(#clip-11)">
<path fill="none" stroke-width="1.551969" stroke-linecap="butt" stroke-linejoin="round" stroke="rgb(92.156863%, 92.156863%, 92.156863%)" stroke-opacity="1" stroke-miterlimit="10" d="M 52.128906 107.800781 L 242.070312 107.800781 "/>
</g>
<g clip-path="url(#clip-12)">
<path fill="none" stroke-width="1.551969" stroke-linecap="butt" stroke-linejoin="round" stroke="rgb(92.156863%, 92.156863%, 92.156863%)" stroke-opacity="1" stroke-miterlimit="10" d="M 64.480469 384.871094 L 64.480469 32.722656 "/>
</g>
<g clip-path="url(#clip-13)">
<path fill="none" stroke-width="1.551969" stroke-linecap="butt" stroke-linejoin="round" stroke="rgb(92.156863%, 92.156863%, 92.156863%)" stroke-opacity="1" stroke-miterlimit="10" d="M 105.789062 384.871094 L 105.789062 32.722656 "/>
</g>
<g clip-path="url(#clip-14)">
<path fill="none" stroke-width="1.551969" stroke-linecap="butt" stroke-linejoin="round" stroke="rgb(92.156863%, 92.156863%, 92.156863%)" stroke-opacity="1" stroke-miterlimit="10" d="M 147.101562 384.871094 L 147.101562 32.722656 "/>
</g>
<g clip-path="url(#clip-15)">
<path fill="none" stroke-width="1.551969" stroke-linecap="butt" stroke-linejoin="round" stroke="rgb(92.156863%, 92.156863%, 92.156863%)" stroke-opacity="1" stroke-miterlimit="10" d="M 188.410156 384.871094 L 188.410156 32.722656 "/>
</g>
<g clip-path="url(#clip-16)">
<path fill="none" stroke-width="1.551969" stroke-linecap="butt" stroke-linejoin="round" stroke="rgb(92.156863%, 92.156863%, 92.156863%)" stroke-opacity="1" stroke-miterlimit="10" d="M 229.71875 384.871094 L 229.71875 32.722656 "/>
</g>
<path fill-rule="nonzero" fill="rgb(90.196078%, 62.352941%, 0%)" fill-opacity="1" d="M 60.761719 368.863281 L 68.199219 368.863281 L 68.199219 48.726562 L 60.761719 48.726562 Z M 60.761719 368.863281 "/>
<path fill-rule="nonzero" fill="rgb(90.196078%, 62.352941%, 0%)" fill-opacity="1" d="M 69.023438 368.863281 L 76.460938 368.863281 L 76.460938 48.726562 L 69.023438 48.726562 Z M 69.023438 368.863281 "/>
<path fill-rule="nonzero" fill="rgb(90.196078%, 62.352941%, 0%)" fill-opacity="1" d="M 77.285156 368.863281 L 84.722656 368.863281 L 84.722656 208.796875 L 77.285156 208.796875 Z M 77.285156 368.863281 "/>
<path fill-rule="nonzero" fill="rgb(90.196078%, 62.352941%, 0%)" fill-opacity="1" d="M 85.546875 368.863281 L 92.984375 368.863281 L 92.984375 315.507812 L 85.546875 315.507812 Z M 85.546875 368.863281 "/>
<path fill-rule="nonzero" fill="rgb(90.196078%, 62.352941%, 0%)" fill-opacity="1" d="M 93.808594 368.863281 L 101.246094 368.863281 L 101.246094 355.523438 L 93.808594 355.523438 Z M 93.808594 368.863281 "/>
<path fill-rule="nonzero" fill="rgb(90.196078%, 62.352941%, 0%)" fill-opacity="1" d="M 102.070312 368.863281 L 109.507812 368.863281 L 109.507812 366.195312 L 102.070312 366.195312 Z M 102.070312 368.863281 "/>
<path fill-rule="nonzero" fill="rgb(90.196078%, 62.352941%, 0%)" fill-opacity="1" d="M 110.335938 368.863281 L 117.773438 368.863281 L 117.773438 368.417969 L 110.335938 368.417969 Z M 110.335938 368.863281 "/>
<path fill-rule="nonzero" fill="rgb(90.196078%, 62.352941%, 0%)" fill-opacity="1" d="M 118.597656 368.863281 L 126.035156 368.863281 L 126.035156 368.800781 L 118.597656 368.800781 Z M 118.597656 368.863281 "/>
<path fill-rule="nonzero" fill="rgb(90.196078%, 62.352941%, 0%)" fill-opacity="1" d="M 126.859375 368.863281 L 134.296875 368.863281 L 134.296875 368.855469 L 126.859375 368.855469 Z M 126.859375 368.863281 "/>
<g clip-path="url(#clip-17)">
<path fill="none" stroke-width="0.775984" stroke-linecap="butt" stroke-linejoin="round" stroke="rgb(92.156863%, 92.156863%, 92.156863%)" stroke-opacity="1" stroke-miterlimit="10" d="M 250.042969 325.355469 L 439.984375 325.355469 "/>
</g>
<g clip-path="url(#clip-18)">
<path fill="none" stroke-width="0.775984" stroke-linecap="butt" stroke-linejoin="round" stroke="rgb(92.156863%, 92.156863%, 92.156863%)" stroke-opacity="1" stroke-miterlimit="10" d="M 250.042969 238.332031 L 439.984375 238.332031 "/>
</g>
<g clip-path="url(#clip-19)">
<path fill="none" stroke-width="0.775984" stroke-linecap="butt" stroke-linejoin="round" stroke="rgb(92.156863%, 92.156863%, 92.156863%)" stroke-opacity="1" stroke-miterlimit="10" d="M 250.042969 151.308594 L 439.984375 151.308594 "/>
</g>
<g clip-path="url(#clip-20)">
<path fill="none" stroke-width="0.775984" stroke-linecap="butt" stroke-linejoin="round" stroke="rgb(92.156863%, 92.156863%, 92.156863%)" stroke-opacity="1" stroke-miterlimit="10" d="M 250.042969 64.289062 L 439.984375 64.289062 "/>
</g>
<g clip-path="url(#clip-21)">
<path fill="none" stroke-width="0.775984" stroke-linecap="butt" stroke-linejoin="round" stroke="rgb(92.156863%, 92.156863%, 92.156863%)" stroke-opacity="1" stroke-miterlimit="10" d="M 283.046875 384.871094 L 283.046875 32.722656 "/>
</g>
<g clip-path="url(#clip-22)">
<path fill="none" stroke-width="0.775984" stroke-linecap="butt" stroke-linejoin="round" stroke="rgb(92.156863%, 92.156863%, 92.156863%)" stroke-opacity="1" stroke-miterlimit="10" d="M 324.359375 384.871094 L 324.359375 32.722656 "/>
</g>
<g clip-path="url(#clip-23)">
<path fill="none" stroke-width="0.775984" stroke-linecap="butt" stroke-linejoin="round" stroke="rgb(92.156863%, 92.156863%, 92.156863%)" stroke-opacity="1" stroke-miterlimit="10" d="M 365.667969 384.871094 L 365.667969 32.722656 "/>
</g>
<g clip-path="url(#clip-24)">
<path fill="none" stroke-width="0.775984" stroke-linecap="butt" stroke-linejoin="round" stroke="rgb(92.156863%, 92.156863%, 92.156863%)" stroke-opacity="1" stroke-miterlimit="10" d="M 406.980469 384.871094 L 406.980469 32.722656 "/>
</g>
<g clip-path="url(#clip-25)">
<path fill="none" stroke-width="1.551969" stroke-linecap="butt" stroke-linejoin="round" stroke="rgb(92.156863%, 92.156863%, 92.156863%)" stroke-opacity="1" stroke-miterlimit="10" d="M 250.042969 368.863281 L 439.984375 368.863281 "/>
</g>
<g clip-path="url(#clip-26)">
<path fill="none" stroke-width="1.551969" stroke-linecap="butt" stroke-linejoin="round" stroke="rgb(92.156863%, 92.156863%, 92.156863%)" stroke-opacity="1" stroke-miterlimit="10" d="M 250.042969 281.84375 L 439.984375 281.84375 "/>
</g>
<g clip-path="url(#clip-27)">
<path fill="none" stroke-width="1.551969" stroke-linecap="butt" stroke-linejoin="round" stroke="rgb(92.156863%, 92.156863%, 92.156863%)" stroke-opacity="1" stroke-miterlimit="10" d="M 250.042969 194.820312 L 439.984375 194.820312 "/>
</g>
<g clip-path="url(#clip-28)">
<path fill="none" stroke-width="1.551969" stroke-linecap="butt" stroke-linejoin="round" stroke="rgb(92.156863%, 92.156863%, 92.156863%)" stroke-opacity="1" stroke-miterlimit="10" d="M 250.042969 107.800781 L 439.984375 107.800781 "/>
</g>
<g clip-path="url(#clip-29)">
<path fill="none" stroke-width="1.551969" stroke-linecap="butt" stroke-linejoin="round" stroke="rgb(92.156863%, 92.156863%, 92.156863%)" stroke-opacity="1" stroke-miterlimit="10" d="M 262.394531 384.871094 L 262.394531 32.722656 "/>
</g>
<g clip-path="url(#clip-30)">
<path fill="none" stroke-width="1.551969" stroke-linecap="butt" stroke-linejoin="round" stroke="rgb(92.156863%, 92.156863%, 92.156863%)" stroke-opacity="1" stroke-miterlimit="10" d="M 303.703125 384.871094 L 303.703125 32.722656 "/>
</g>
<g clip-path="url(#clip-31)">
<path fill="none" stroke-width="1.551969" stroke-linecap="butt" stroke-linejoin="round" stroke="rgb(92.156863%, 92.156863%, 92.156863%)" stroke-opacity="1" stroke-miterlimit="10" d="M 345.015625 384.871094 L 345.015625 32.722656 "/>
</g>
<g clip-path="url(#clip-32)">
<path fill="none" stroke-width="1.551969" stroke-linecap="butt" stroke-linejoin="round" stroke="rgb(92.156863%, 92.156863%, 92.156863%)" stroke-opacity="1" stroke-miterlimit="10" d="M 386.324219 384.871094 L 386.324219 32.722656 "/>
</g>
<g clip-path="url(#clip-33)">
<path fill="none" stroke-width="1.551969" stroke-linecap="butt" stroke-linejoin="round" stroke="rgb(92.156863%, 92.156863%, 92.156863%)" stroke-opacity="1" stroke-miterlimit="10" d="M 427.632812 384.871094 L 427.632812 32.722656 "/>
</g>
<path fill-rule="nonzero" fill="rgb(33.72549%, 70.588235%, 91.372549%)" fill-opacity="1" d="M 258.675781 368.863281 L 266.113281 368.863281 L 266.113281 368.824219 L 258.675781 368.824219 Z M 258.675781 368.863281 "/>
<path fill-rule="nonzero" fill="rgb(33.72549%, 70.588235%, 91.372549%)" fill-opacity="1" d="M 266.9375 368.863281 L 274.375 368.863281 L 274.375 368.46875 L 266.9375 368.46875 Z M 266.9375 368.863281 "/>
<path fill-rule="nonzero" fill="rgb(33.72549%, 70.588235%, 91.372549%)" fill-opacity="1" d="M 275.199219 368.863281 L 282.636719 368.863281 L 282.636719 366.886719 L 275.199219 366.886719 Z M 275.199219 368.863281 "/>
<path fill-rule="nonzero" fill="rgb(33.72549%, 70.588235%, 91.372549%)" fill-opacity="1" d="M 283.460938 368.863281 L 290.898438 368.863281 L 290.898438 362.277344 L 283.460938 362.277344 Z M 283.460938 368.863281 "/>
<path fill-rule="nonzero" fill="rgb(33.72549%, 70.588235%, 91.372549%)" fill-opacity="1" d="M 291.722656 368.863281 L 299.160156 368.863281 L 299.160156 352.402344 L 291.722656 352.402344 Z M 291.722656 368.863281 "/>
<path fill-rule="nonzero" fill="rgb(33.72549%, 70.588235%, 91.372549%)" fill-opacity="1" d="M 299.984375 368.863281 L 307.421875 368.863281 L 307.421875 335.941406 L 299.984375 335.941406 Z M 299.984375 368.863281 "/>
<path fill-rule="nonzero" fill="rgb(33.72549%, 70.588235%, 91.372549%)" fill-opacity="1" d="M 308.246094 368.863281 L 315.683594 368.863281 L 315.683594 313.992188 L 308.246094 313.992188 Z M 308.246094 368.863281 "/>
<path fill-rule="nonzero" fill="rgb(33.72549%, 70.588235%, 91.372549%)" fill-opacity="1" d="M 316.511719 368.863281 L 323.949219 368.863281 L 323.949219 290.472656 L 316.511719 290.472656 Z M 316.511719 368.863281 "/>
<path fill-rule="nonzero" fill="rgb(33.72549%, 70.588235%, 91.372549%)" fill-opacity="1" d="M 324.773438 368.863281 L 332.210938 368.863281 L 332.210938 270.878906 L 324.773438 270.878906 Z M 324.773438 368.863281 "/>
<path fill-rule="nonzero" fill="rgb(33.72549%, 70.588235%, 91.372549%)" fill-opacity="1" d="M 333.035156 368.863281 L 340.472656 368.863281 L 340.472656 259.988281 L 333.035156 259.988281 Z M 333.035156 368.863281 "/>
<path fill-rule="nonzero" fill="rgb(33.72549%, 70.588235%, 91.372549%)" fill-opacity="1" d="M 341.296875 368.863281 L 348.734375 368.863281 L 348.734375 259.988281 L 341.296875 259.988281 Z M 341.296875 368.863281 "/>
<path fill-rule="nonzero" fill="rgb(33.72549%, 70.588235%, 91.372549%)" fill-opacity="1" d="M 349.558594 368.863281 L 356.996094 368.863281 L 356.996094 269.886719 L 349.558594 269.886719 Z M 349.558594 368.863281 "/>
<path fill-rule="nonzero" fill="rgb(33.72549%, 70.588235%, 91.372549%)" fill-opacity="1" d="M 357.820312 368.863281 L 365.257812 368.863281 L 365.257812 286.382812 L 357.820312 286.382812 Z M 357.820312 368.863281 "/>
<path fill-rule="nonzero" fill="rgb(33.72549%, 70.588235%, 91.372549%)" fill-opacity="1" d="M 366.082031 368.863281 L 373.519531 368.863281 L 373.519531 305.417969 L 366.082031 305.417969 Z M 366.082031 368.863281 "/>
<path fill-rule="nonzero" fill="rgb(33.72549%, 70.588235%, 91.372549%)" fill-opacity="1" d="M 374.34375 368.863281 L 381.78125 368.863281 L 381.78125 323.542969 L 374.34375 323.542969 Z M 374.34375 368.863281 "/>
<path fill-rule="nonzero" fill="rgb(33.72549%, 70.588235%, 91.372549%)" fill-opacity="1" d="M 382.605469 368.863281 L 390.042969 368.863281 L 390.042969 338.652344 L 382.605469 338.652344 Z M 382.605469 368.863281 "/>
<path fill-rule="nonzero" fill="rgb(33.72549%, 70.588235%, 91.372549%)" fill-opacity="1" d="M 390.867188 368.863281 L 398.304688 368.863281 L 398.304688 349.980469 L 390.867188 349.980469 Z M 390.867188 368.863281 "/>
<path fill-rule="nonzero" fill="rgb(33.72549%, 70.588235%, 91.372549%)" fill-opacity="1" d="M 399.128906 368.863281 L 406.566406 368.863281 L 406.566406 357.753906 L 399.128906 357.753906 Z M 399.128906 368.863281 "/>
<path fill-rule="nonzero" fill="rgb(33.72549%, 70.588235%, 91.372549%)" fill-opacity="1" d="M 407.390625 368.863281 L 414.828125 368.863281 L 414.828125 362.691406 L 407.390625 362.691406 Z M 407.390625 368.863281 "/>
<path fill-rule="nonzero" fill="rgb(33.72549%, 70.588235%, 91.372549%)" fill-opacity="1" d="M 415.652344 368.863281 L 423.089844 368.863281 L 423.089844 365.617188 L 415.652344 365.617188 Z M 415.652344 368.863281 "/>
<path fill-rule="nonzero" fill="rgb(33.72549%, 70.588235%, 91.372549%)" fill-opacity="1" d="M 423.914062 368.863281 L 431.351562 368.863281 L 431.351562 367.238281 L 423.914062 367.238281 Z M 423.914062 368.863281 "/>
<g clip-path="url(#clip-34)">
<path fill="none" stroke-width="0.775984" stroke-linecap="butt" stroke-linejoin="round" stroke="rgb(92.156863%, 92.156863%, 92.156863%)" stroke-opacity="1" stroke-miterlimit="10" d="M 447.957031 325.355469 L 637.898438 325.355469 "/>
</g>
<g clip-path="url(#clip-35)">
<path fill="none" stroke-width="0.775984" stroke-linecap="butt" stroke-linejoin="round" stroke="rgb(92.156863%, 92.156863%, 92.156863%)" stroke-opacity="1" stroke-miterlimit="10" d="M 447.957031 238.332031 L 637.898438 238.332031 "/>
</g>
<g clip-path="url(#clip-36)">
<path fill="none" stroke-width="0.775984" stroke-linecap="butt" stroke-linejoin="round" stroke="rgb(92.156863%, 92.156863%, 92.156863%)" stroke-opacity="1" stroke-miterlimit="10" d="M 447.957031 151.308594 L 637.898438 151.308594 "/>
</g>
<g clip-path="url(#clip-37)">
<path fill="none" stroke-width="0.775984" stroke-linecap="butt" stroke-linejoin="round" stroke="rgb(92.156863%, 92.156863%, 92.156863%)" stroke-opacity="1" stroke-miterlimit="10" d="M 447.957031 64.289062 L 637.898438 64.289062 "/>
</g>
<g clip-path="url(#clip-38)">
<path fill="none" stroke-width="0.775984" stroke-linecap="butt" stroke-linejoin="round" stroke="rgb(92.156863%, 92.156863%, 92.156863%)" stroke-opacity="1" stroke-miterlimit="10" d="M 480.960938 384.871094 L 480.960938 32.722656 "/>
</g>
<g clip-path="url(#clip-39)">
<path fill="none" stroke-width="0.775984" stroke-linecap="butt" stroke-linejoin="round" stroke="rgb(92.156863%, 92.156863%, 92.156863%)" stroke-opacity="1" stroke-miterlimit="10" d="M 522.273438 384.871094 L 522.273438 32.722656 "/>
</g>
<g clip-path="url(#clip-40)">
<path fill="none" stroke-width="0.775984" stroke-linecap="butt" stroke-linejoin="round" stroke="rgb(92.156863%, 92.156863%, 92.156863%)" stroke-opacity="1" stroke-miterlimit="10" d="M 563.582031 384.871094 L 563.582031 32.722656 "/>
</g>
<g clip-path="url(#clip-41)">
<path fill="none" stroke-width="0.775984" stroke-linecap="butt" stroke-linejoin="round" stroke="rgb(92.156863%, 92.156863%, 92.156863%)" stroke-opacity="1" stroke-miterlimit="10" d="M 604.894531 384.871094 L 604.894531 32.722656 "/>
</g>
<g clip-path="url(#clip-42)">
<path fill="none" stroke-width="1.551969" stroke-linecap="butt" stroke-linejoin="round" stroke="rgb(92.156863%, 92.156863%, 92.156863%)" stroke-opacity="1" stroke-miterlimit="10" d="M 447.957031 368.863281 L 637.898438 368.863281 "/>
</g>
<g clip-path="url(#clip-43)">
<path fill="none" stroke-width="1.551969" stroke-linecap="butt" stroke-linejoin="round" stroke="rgb(92.156863%, 92.156863%, 92.156863%)" stroke-opacity="1" stroke-miterlimit="10" d="M 447.957031 281.84375 L 637.898438 281.84375 "/>
</g>
<g clip-path="url(#clip-44)">
<path fill="none" stroke-width="1.551969" stroke-linecap="butt" stroke-linejoin="round" stroke="rgb(92.156863%, 92.156863%, 92.156863%)" stroke-opacity="1" stroke-miterlimit="10" d="M 447.957031 194.820312 L 637.898438 194.820312 "/>
</g>
<g clip-path="url(#clip-45)">
<path fill="none" stroke-width="1.551969" stroke-linecap="butt" stroke-linejoin="round" stroke="rgb(92.156863%, 92.156863%, 92.156863%)" stroke-opacity="1" stroke-miterlimit="10" d="M 447.957031 107.800781 L 637.898438 107.800781 "/>
</g>
<g clip-path="url(#clip-46)">
<path fill="none" stroke-width="1.551969" stroke-linecap="butt" stroke-linejoin="round" stroke="rgb(92.156863%, 92.156863%, 92.156863%)" stroke-opacity="1" stroke-miterlimit="10" d="M 460.308594 384.871094 L 460.308594 32.722656 "/>
</g>
<g clip-path="url(#clip-47)">
<path fill="none" stroke-width="1.551969" stroke-linecap="butt" stroke-linejoin="round" stroke="rgb(92.156863%, 92.156863%, 92.156863%)" stroke-opacity="1" stroke-miterlimit="10" d="M 501.617188 384.871094 L 501.617188 32.722656 "/>
</g>
<g clip-path="url(#clip-48)">
<path fill="none" stroke-width="1.551969" stroke-linecap="butt" stroke-linejoin="round" stroke="rgb(92.156863%, 92.156863%, 92.156863%)" stroke-opacity="1" stroke-miterlimit="10" d="M 542.925781 384.871094 L 542.925781 32.722656 "/>
</g>
<g clip-path="url(#clip-49)">
<path fill="none" stroke-width="1.551969" stroke-linecap="butt" stroke-linejoin="round" stroke="rgb(92.156863%, 92.156863%, 92.156863%)" stroke-opacity="1" stroke-miterlimit="10" d="M 584.238281 384.871094 L 584.238281 32.722656 "/>
</g>
<g clip-path="url(#clip-50)">
<path fill="none" stroke-width="1.551969" stroke-linecap="butt" stroke-linejoin="round" stroke="rgb(92.156863%, 92.156863%, 92.156863%)" stroke-opacity="1" stroke-miterlimit="10" d="M 625.546875 384.871094 L 625.546875 32.722656 "/>
</g>
<path fill-rule="nonzero" fill="rgb(0%, 61.960784%, 45.098039%)" fill-opacity="1" d="M 456.589844 368.863281 L 464.027344 368.863281 L 464.027344 352.925781 L 456.589844 352.925781 Z M 456.589844 368.863281 "/>
<path fill-rule="nonzero" fill="rgb(0%, 61.960784%, 45.098039%)" fill-opacity="1" d="M 464.851562 368.863281 L 472.289062 368.863281 L 472.289062 305.109375 L 464.851562 305.109375 Z M 464.851562 368.863281 "/>
<path fill-rule="nonzero" fill="rgb(0%, 61.960784%, 45.098039%)" fill-opacity="1" d="M 473.113281 368.863281 L 480.550781 368.863281 L 480.550781 241.355469 L 473.113281 241.355469 Z M 473.113281 368.863281 "/>
<path fill-rule="nonzero" fill="rgb(0%, 61.960784%, 45.098039%)" fill-opacity="1" d="M 481.375 368.863281 L 488.8125 368.863281 L 488.8125 198.851562 L 481.375 198.851562 Z M 481.375 368.863281 "/>
<path fill-rule="nonzero" fill="rgb(0%, 61.960784%, 45.098039%)" fill-opacity="1" d="M 489.636719 368.863281 L 497.074219 368.863281 L 497.074219 198.851562 L 489.636719 198.851562 Z M 489.636719 368.863281 "/>
<path fill-rule="nonzero" fill="rgb(0%, 61.960784%, 45.098039%)" fill-opacity="1" d="M 497.898438 368.863281 L 505.335938 368.863281 L 505.335938 232.855469 L 497.898438 232.855469 Z M 497.898438 368.863281 "/>
<path fill-rule="nonzero" fill="rgb(0%, 61.960784%, 45.098039%)" fill-opacity="1" d="M 506.160156 368.863281 L 513.597656 368.863281 L 513.597656 278.191406 L 506.160156 278.191406 Z M 506.160156 368.863281 "/>
<path fill-rule="nonzero" fill="rgb(0%, 61.960784%, 45.098039%)" fill-opacity="1" d="M 514.421875 368.863281 L 521.859375 368.863281 L 521.859375 317.050781 L 514.421875 317.050781 Z M 514.421875 368.863281 "/>
<path fill-rule="nonzero" fill="rgb(0%, 61.960784%, 45.098039%)" fill-opacity="1" d="M 522.6875 368.863281 L 530.125 368.863281 L 530.125 342.957031 L 522.6875 342.957031 Z M 522.6875 368.863281 "/>
<path fill-rule="nonzero" fill="rgb(0%, 61.960784%, 45.098039%)" fill-opacity="1" d="M 530.949219 368.863281 L 538.386719 368.863281 L 538.386719 357.347656 L 530.949219 357.347656 Z M 530.949219 368.863281 "/>
<path fill-rule="nonzero" fill="rgb(0%, 61.960784%, 45.098039%)" fill-opacity="1" d="M 539.210938 368.863281 L 546.648438 368.863281 L 546.648438 364.257812 L 539.210938 364.257812 Z M 539.210938 368.863281 "/>
<path fill-rule="nonzero" fill="rgb(0%, 61.960784%, 45.098039%)" fill-opacity="1" d="M 547.472656 368.863281 L 554.910156 368.863281 L 554.910156 367.1875 L 547.472656 367.1875 Z M 547.472656 368.863281 "/>
<path fill-rule="nonzero" fill="rgb(0%, 61.960784%, 45.098039%)" fill-opacity="1" d="M 555.734375 368.863281 L 563.171875 368.863281 L 563.171875 368.304688 L 555.734375 368.304688 Z M 555.734375 368.863281 "/>
<path fill-rule="nonzero" fill="rgb(0%, 61.960784%, 45.098039%)" fill-opacity="1" d="M 563.996094 368.863281 L 571.433594 368.863281 L 571.433594 368.691406 L 563.996094 368.691406 Z M 563.996094 368.863281 "/>
<path fill-rule="nonzero" fill="rgb(0%, 61.960784%, 45.098039%)" fill-opacity="1" d="M 572.257812 368.863281 L 579.695312 368.863281 L 579.695312 368.8125 L 572.257812 368.8125 Z M 572.257812 368.863281 "/>
<path fill-rule="nonzero" fill="rgb(0%, 61.960784%, 45.098039%)" fill-opacity="1" d="M 580.519531 368.863281 L 587.957031 368.863281 L 587.957031 368.851562 L 580.519531 368.851562 Z M 580.519531 368.863281 "/>
<path fill-rule="nonzero" fill="rgb(0%, 61.960784%, 45.098039%)" fill-opacity="1" d="M 588.78125 368.863281 L 596.21875 368.863281 L 596.21875 368.859375 L 588.78125 368.859375 Z M 588.78125 368.863281 "/>
<g fill="rgb(10.196078%, 10.196078%, 10.196078%)" fill-opacity="1">
<use xlink:href="#glyph-0-1" x="118.601562" y="24.81543"/>
<use xlink:href="#glyph-0-2" x="122.601562" y="24.81543"/>
<use xlink:href="#glyph-0-3" x="129.601562" y="24.81543"/>
<use xlink:href="#glyph-0-4" x="140.601562" y="24.81543"/>
<use xlink:href="#glyph-0-5" x="148.601562" y="24.81543"/>
<use xlink:href="#glyph-0-2" x="156.601562" y="24.81543"/>
<use xlink:href="#glyph-0-6" x="163.601562" y="24.81543"/>
<use xlink:href="#glyph-0-7" x="169.601562" y="24.81543"/>
</g>
<g fill="rgb(10.196078%, 10.196078%, 10.196078%)" fill-opacity="1">
<use xlink:href="#glyph-0-1" x="313.015625" y="24.81543"/>
<use xlink:href="#glyph-0-2" x="317.015625" y="24.81543"/>
<use xlink:href="#glyph-0-3" x="324.015625" y="24.81543"/>
<use xlink:href="#glyph-0-4" x="335.015625" y="24.81543"/>
<use xlink:href="#glyph-0-5" x="343.015625" y="24.81543"/>
<use xlink:href="#glyph-0-2" x="351.015625" y="24.81543"/>
<use xlink:href="#glyph-0-6" x="358.015625" y="24.81543"/>
<use xlink:href="#glyph-0-7" x="364.015625" y="24.81543"/>
<use xlink:href="#glyph-0-8" x="370.015625" y="24.81543"/>
</g>
<g fill="rgb(10.196078%, 10.196078%, 10.196078%)" fill-opacity="1">
<use xlink:href="#glyph-0-1" x="513.925781" y="24.81543"/>
<use xlink:href="#glyph-0-2" x="517.925781" y="24.81543"/>
<use xlink:href="#glyph-0-3" x="524.925781" y="24.81543"/>
<use xlink:href="#glyph-0-4" x="535.925781" y="24.81543"/>
<use xlink:href="#glyph-0-5" x="543.925781" y="24.81543"/>
<use xlink:href="#glyph-0-2" x="551.925781" y="24.81543"/>
<use xlink:href="#glyph-0-6" x="558.925781" y="24.81543"/>
<use xlink:href="#glyph-0-9" x="564.925781" y="24.81543"/>
</g>
<g fill="rgb(30.196078%, 30.196078%, 30.196078%)" fill-opacity="1">
<use xlink:href="#glyph-0-8" x="60.980469" y="401.010742"/>
</g>
<g fill="rgb(30.196078%, 30.196078%, 30.196078%)" fill-opacity="1">
<use xlink:href="#glyph-0-10" x="102.789062" y="401.010742"/>
</g>
<g fill="rgb(30.196078%, 30.196078%, 30.196078%)" fill-opacity="1">
<use xlink:href="#glyph-0-7" x="140.601562" y="401.010742"/>
<use xlink:href="#glyph-0-8" x="146.601562" y="401.010742"/>
</g>
<g fill="rgb(30.196078%, 30.196078%, 30.196078%)" fill-opacity="1">
<use xlink:href="#glyph-0-7" x="182.410156" y="401.010742"/>
<use xlink:href="#glyph-0-10" x="188.410156" y="401.010742"/>
</g>
<g fill="rgb(30.196078%, 30.196078%, 30.196078%)" fill-opacity="1">
<use xlink:href="#glyph-0-11" x="223.21875" y="401.010742"/>
<use xlink:href="#glyph-0-8" x="229.21875" y="401.010742"/>
</g>
<g fill="rgb(30.196078%, 30.196078%, 30.196078%)" fill-opacity="1">
<use xlink:href="#glyph-0-8" x="258.894531" y="401.010742"/>
</g>
<g fill="rgb(30.196078%, 30.196078%, 30.196078%)" fill-opacity="1">
<use xlink:href="#glyph-0-10" x="300.703125" y="401.010742"/>
</g>
<g fill="rgb(30.196078%, 30.196078%, 30.196078%)" fill-opacity="1">
<use xlink:href="#glyph-0-7" x="338.515625" y="401.010742"/>
<use xlink:href="#glyph-0-8" x="344.515625" y="401.010742"/>
</g>
<g fill="rgb(30.196078%, 30.196078%, 30.196078%)" fill-opacity="1">
<use xlink:href="#glyph-0-7" x="380.324219" y="401.010742"/>
<use xlink:href="#glyph-0-10" x="386.324219" y="401.010742"/>
</g>
<g fill="rgb(30.196078%, 30.196078%, 30.196078%)" fill-opacity="1">
<use xlink:href="#glyph-0-11" x="421.132812" y="401.010742"/>
<use xlink:href="#glyph-0-8" x="427.132812" y="401.010742"/>
</g>
<g fill="rgb(30.196078%, 30.196078%, 30.196078%)" fill-opacity="1">
<use xlink:href="#glyph-0-8" x="456.808594" y="401.010742"/>
</g>
<g fill="rgb(30.196078%, 30.196078%, 30.196078%)" fill-opacity="1">
<use xlink:href="#glyph-0-10" x="498.617188" y="401.010742"/>
</g>
<g fill="rgb(30.196078%, 30.196078%, 30.196078%)" fill-opacity="1">
<use xlink:href="#glyph-0-7" x="536.425781" y="401.010742"/>
<use xlink:href="#glyph-0-8" x="542.425781" y="401.010742"/>
</g>
<g fill="rgb(30.196078%, 30.196078%, 30.196078%)" fill-opacity="1">
<use xlink:href="#glyph-0-7" x="578.238281" y="401.010742"/>
<use xlink:href="#glyph-0-10" x="584.238281" y="401.010742"/>
</g>
<g fill="rgb(30.196078%, 30.196078%, 30.196078%)" fill-opacity="1">
<use xlink:href="#glyph-0-11" x="619.046875" y="401.010742"/>
<use xlink:href="#glyph-0-8" x="625.046875" y="401.010742"/>
</g>
<g fill="rgb(30.196078%, 30.196078%, 30.196078%)" fill-opacity="1">
<use xlink:href="#glyph-0-8" x="27.957031" y="373.331055"/>
<use xlink:href="#glyph-0-12" x="34.957031" y="373.331055"/>
<use xlink:href="#glyph-0-8" x="37.957031" y="373.331055"/>
</g>
<g fill="rgb(30.196078%, 30.196078%, 30.196078%)" fill-opacity="1">
<use xlink:href="#glyph-0-8" x="29.957031" y="286.311523"/>
<use xlink:href="#glyph-0-12" x="36.957031" y="286.311523"/>
<use xlink:href="#glyph-0-7" x="38.957031" y="286.311523"/>
</g>
<g fill="rgb(30.196078%, 30.196078%, 30.196078%)" fill-opacity="1">
<use xlink:href="#glyph-0-8" x="28.957031" y="199.288086"/>
<use xlink:href="#glyph-0-12" x="35.957031" y="199.288086"/>
<use xlink:href="#glyph-0-11" x="38.957031" y="199.288086"/>
</g>
<g fill="rgb(30.196078%, 30.196078%, 30.196078%)" fill-opacity="1">
<use xlink:href="#glyph-0-8" x="28.957031" y="112.268555"/>
<use xlink:href="#glyph-0-12" x="35.957031" y="112.268555"/>
<use xlink:href="#glyph-0-13" x="38.957031" y="112.268555"/>
</g>
<g fill="rgb(0%, 0%, 0%)" fill-opacity="1">
<use xlink:href="#glyph-1-1" x="324.015625" y="419.991211"/>
<use xlink:href="#glyph-1-2" x="333.015625" y="419.991211"/>
<use xlink:href="#glyph-1-3" x="342.015625" y="419.991211"/>
<use xlink:href="#glyph-1-4" x="351.015625" y="419.991211"/>
<use xlink:href="#glyph-1-5" x="360.015625" y="419.991211"/>
</g>
<g fill="rgb(0%, 0%, 0%)" fill-opacity="1">
<use xlink:href="#glyph-2-1" x="19.928711" y="269.796875"/>
<use xlink:href="#glyph-2-2" x="19.928711" y="260.796875"/>
<use xlink:href="#glyph-2-3" x="19.928711" y="254.796875"/>
<use xlink:href="#glyph-2-4" x="19.928711" y="245.796875"/>
<use xlink:href="#glyph-2-5" x="19.928711" y="235.796875"/>
<use xlink:href="#glyph-2-4" x="19.928711" y="226.796875"/>
<use xlink:href="#glyph-2-6" x="19.928711" y="216.796875"/>
<use xlink:href="#glyph-2-7" x="19.928711" y="211.796875"/>
<use xlink:href="#glyph-2-6" x="19.928711" y="206.796875"/>
<use xlink:href="#glyph-2-8" x="19.928711" y="201.796875"/>
<use xlink:href="#glyph-2-9" x="19.928711" y="195.796875"/>
<use xlink:href="#glyph-2-10" x="19.928711" y="187.796875"/>
<use xlink:href="#glyph-2-11" x="19.928711" y="183.796875"/>
<use xlink:href="#glyph-2-5" x="19.928711" y="170.796875"/>
<use xlink:href="#glyph-2-12" x="19.928711" y="161.796875"/>
<use xlink:href="#glyph-2-12" x="19.928711" y="154.796875"/>
</g>
<g fill="rgb(0%, 0%, 0%)" fill-opacity="1">
<use xlink:href="#glyph-1-6" x="661.808594" y="184.850586"/>
<use xlink:href="#glyph-1-7" x="671.808594" y="184.850586"/>
<use xlink:href="#glyph-1-8" x="680.808594" y="184.850586"/>
<use xlink:href="#glyph-1-7" x="686.808594" y="184.850586"/>
<use xlink:href="#glyph-1-9" x="695.808594" y="184.850586"/>
<use xlink:href="#glyph-1-10" x="709.808594" y="184.850586"/>
</g>
<path fill-rule="nonzero" fill="rgb(90.196078%, 62.352941%, 0%)" fill-opacity="1" d="M 662.839844 211.109375 L 678.058594 211.109375 L 678.058594 195.890625 L 662.839844 195.890625 Z M 662.839844 211.109375 "/>
<path fill-rule="nonzero" fill="rgb(33.72549%, 70.588235%, 91.372549%)" fill-opacity="1" d="M 662.839844 228.390625 L 678.058594 228.390625 L 678.058594 213.171875 L 662.839844 213.171875 Z M 662.839844 228.390625 "/>
<path fill-rule="nonzero" fill="rgb(0%, 61.960784%, 45.098039%)" fill-opacity="1" d="M 662.839844 245.671875 L 678.058594 245.671875 L 678.058594 230.453125 L 662.839844 230.453125 Z M 662.839844 245.671875 "/>
<g fill="rgb(0%, 0%, 0%)" fill-opacity="1">
<use xlink:href="#glyph-0-1" x="687.058594" y="207.97168"/>
<use xlink:href="#glyph-0-2" x="691.058594" y="207.97168"/>
<use xlink:href="#glyph-0-3" x="698.058594" y="207.97168"/>
<use xlink:href="#glyph-0-4" x="709.058594" y="207.97168"/>
<use xlink:href="#glyph-0-5" x="717.058594" y="207.97168"/>
<use xlink:href="#glyph-0-2" x="725.058594" y="207.97168"/>
<use xlink:href="#glyph-0-6" x="732.058594" y="207.97168"/>
<use xlink:href="#glyph-0-7" x="738.058594" y="207.97168"/>
</g>
<g fill="rgb(0%, 0%, 0%)" fill-opacity="1">
<use xlink:href="#glyph-0-1" x="687.058594" y="225.249023"/>
<use xlink:href="#glyph-0-2" x="691.058594" y="225.249023"/>
<use xlink:href="#glyph-0-3" x="698.058594" y="225.249023"/>
<use xlink:href="#glyph-0-4" x="709.058594" y="225.249023"/>
<use xlink:href="#glyph-0-5" x="717.058594" y="225.249023"/>
<use xlink:href="#glyph-0-2" x="725.058594" y="225.249023"/>
<use xlink:href="#glyph-0-6" x="732.058594" y="225.249023"/>
<use xlink:href="#glyph-0-7" x="738.058594" y="225.249023"/>
<use xlink:href="#glyph-0-8" x="744.058594" y="225.249023"/>
</g>
<g fill="rgb(0%, 0%, 0%)" fill-opacity="1">
<use xlink:href="#glyph-0-1" x="687.058594" y="242.530273"/>
<use xlink:href="#glyph-0-2" x="691.058594" y="242.530273"/>
<use xlink:href="#glyph-0-3" x="698.058594" y="242.530273"/>
<use xlink:href="#glyph-0-4" x="709.058594" y="242.530273"/>
<use xlink:href="#glyph-0-5" x="717.058594" y="242.530273"/>
<use xlink:href="#glyph-0-2" x="725.058594" y="242.530273"/>
<use xlink:href="#glyph-0-6" x="732.058594" y="242.530273"/>
<use xlink:href="#glyph-0-9" x="738.058594" y="242.530273"/>
</g>
</svg>
